<?xml version="1.0" standalone="no"?>
<!DOCTYPE svg PUBLIC "-//W3C//DTD SVG 20010904//EN"
 "http://www.w3.org/TR/2001/REC-SVG-20010904/DTD/svg10.dtd">
<svg version="1.0" xmlns="http://www.w3.org/2000/svg"
 width="150.000000pt" height="150.000000pt" viewBox="0 0 150.000000 150.000000"
 preserveAspectRatio="xMidYMid meet">
<metadata>
Created by potrace 1.16, written by Peter Selinger 2001-2019
</metadata>
<g transform="translate(0.000000,150.000000) scale(0.100000,-0.100000)"
fill="#000000" stroke="none">
<path d="M667 1284 c-56 -17 -122 -78 -152 -139 -15 -30 -20 -59 -19 -115 1
-129 29 -163 263 -319 146 -96 176 -125 191 -181 31 -117 -33 -233 -147 -266
-103 -30 -190 4 -232 90 -22 45 -23 53 -12 95 19 73 40 95 93 99 40 3 49 -1
67 -24 28 -35 27 -47 -9 -87 -34 -39 -39 -67 -12 -67 48 0 98 77 88 134 -8 42
-54 85 -102 96 -74 17 -120 -10 -160 -95 -32 -68 -30 -111 9 -186 26 -51 41
-67 78 -86 192 -99 415 46 396 258 -10 114 -42 148 -293 318 -151 102 -168
124 -168 220 0 74 15 110 66 157 50 47 77 58 148 58 99 0 156 -39 182 -125 13
-46 1 -100 -33 -143 -16 -21 -29 -26 -63 -26 -76 0 -104 65 -52 119 14 15 26
35 26 44 0 28 -34 20 -68 -16 -42 -43 -50 -91 -23 -134 29 -46 62 -64 120 -65
60 -2 89 20 127 94 38 74 28 152 -28 231 -45 64 -182 93 -281 61z"/>
<path d="M1270 1225 c-28 -34 12 -85 54 -69 22 8 31 50 16 69 -16 19 -54 19
-70 0z"/>
<path d="M160 1215 c-28 -34 12 -85 54 -69 22 8 31 50 16 69 -16 19 -54 19
-70 0z"/>
<path d="M1240 1047 c-11 -17 -43 -90 -72 -162 l-51 -130 22 -64 c33 -93 103
-255 114 -263 13 -8 37 1 37 14 0 5 -22 61 -49 124 -34 79 -44 111 -33 104 10
-5 57 -36 106 -68 49 -33 95 -58 103 -55 32 13 7 41 -92 107 -58 38 -105 69
-105 70 0 0 60 1 132 1 l133 0 0 25 0 25 -133 0 c-72 0 -132 1 -132 1 0 1 47
32 105 70 99 66 124 94 92 107 -8 3 -54 -22 -103 -55 -49 -32 -96 -63 -106
-68 -11 -7 -1 25 33 104 27 63 49 119 49 124 0 5 -7 12 -15 16 -10 4 -22 -5
-35 -27z"/>
<path d="M221 1061 c-16 -10 -13 -21 44 -151 32 -72 39 -97 27 -91 -9 6 -57
37 -106 69 -49 33 -95 58 -103 55 -32 -13 -7 -41 92 -107 58 -38 105 -69 105
-70 0 0 -60 -1 -132 -1 l-133 0 0 -25 0 -25 133 0 c72 0 132 -1 132 -1 0 -1
-47 -32 -105 -70 -99 -66 -124 -94 -92 -107 8 -3 54 22 103 55 49 32 96 63
106 68 11 7 1 -25 -33 -104 -27 -63 -49 -119 -49 -124 0 -13 24 -22 37 -14 10
8 76 158 113 260 l23 63 -33 87 c-41 110 -95 227 -107 235 -5 3 -15 2 -22 -2z"/>
<path d="M1276 334 c-19 -18 -20 -28 -6 -55 19 -35 80 -18 80 22 0 21 -26 49
-45 49 -7 0 -21 -7 -29 -16z"/>
<path d="M166 324 c-31 -31 -13 -74 31 -74 21 0 43 25 43 49 0 14 -29 41 -45
41 -7 0 -21 -7 -29 -16z"/>
</g>
</svg>
