<?xml version="1.0" standalone="no"?>
<!DOCTYPE svg PUBLIC "-//W3C//DTD SVG 20010904//EN"
 "http://www.w3.org/TR/2001/REC-SVG-20010904/DTD/svg10.dtd">
<svg version="1.0" xmlns="http://www.w3.org/2000/svg"
 width="500.000000pt" height="500.000000pt" viewBox="0 0 500.000000 500.000000"
 preserveAspectRatio="xMidYMid meet">
<metadata>
Created by potrace 1.16, written by Peter Selinger 2001-2019
</metadata>
<g transform="translate(0.000000,500.000000) scale(0.100000,-0.100000)"
fill="#000000" stroke="none">
<path d="M2471 3944 c-21 -15 -21 -19 -21 -462 l-1 -447 -330 -235 c-182 -129
-338 -239 -346 -244 -12 -6 -92 68 -352 328 -327 327 -365 359 -386 326 -3 -5
-109 -94 -235 -196 -127 -103 -230 -193 -230 -201 0 -27 21 -53 43 -53 13 0
104 68 236 176 l215 175 98 -98 c54 -54 97 -101 96 -105 -2 -4 -72 -79 -155
-167 -86 -90 -153 -168 -153 -178 0 -11 5 -24 12 -31 30 -30 56 -12 212 151
l156 162 107 -107 108 -108 -143 -143 c-140 -140 -158 -167 -130 -195 28 -28
55 -10 195 130 l143 143 63 -63 c35 -35 71 -62 82 -62 11 1 170 109 353 240
184 132 336 240 338 240 2 0 4 -242 3 -537 l0 -538 -305 -249 c-190 -156 -304
-256 -304 -267 0 -22 26 -49 48 -49 9 0 139 101 287 223 l270 223 3 -380 c1
-260 6 -383 13 -393 14 -16 51 -17 67 -1 9 9 12 112 12 400 l0 388 279 -230
c154 -127 288 -230 298 -230 11 0 24 5 31 12 34 34 17 52 -286 301 -164 135
-304 252 -310 260 -9 11 -12 150 -10 546 l3 531 343 -245 c188 -135 350 -245
359 -245 10 0 46 28 80 62 l63 63 143 -143 c140 -140 167 -158 195 -130 28 28
10 55 -130 195 l-143 143 108 108 107 107 156 -162 c156 -163 182 -181 212
-151 7 7 12 20 12 31 0 10 -67 88 -152 178 -84 88 -154 163 -156 167 -1 4 42
51 96 105 l99 98 216 -175 c118 -97 224 -176 234 -176 25 0 43 19 43 46 0 16
-59 70 -240 218 -132 108 -248 196 -258 196 -9 0 -168 -151 -353 -336 -257
-257 -340 -334 -351 -328 -9 5 -167 117 -351 249 l-336 240 -1 372 0 372 128
-132 c70 -72 161 -168 203 -211 66 -69 79 -78 102 -72 28 7 43 37 30 60 -13
22 -484 514 -498 520 -7 2 -22 -2 -34 -10z"/>
</g>
</svg>
