<?xml version="1.0" standalone="no"?>
<!DOCTYPE svg PUBLIC "-//W3C//DTD SVG 20010904//EN"
 "http://www.w3.org/TR/2001/REC-SVG-20010904/DTD/svg10.dtd">
<svg version="1.0" xmlns="http://www.w3.org/2000/svg"
 width="70.000000pt" height="70.000000pt" viewBox="0 0 70.000000 70.000000"
 preserveAspectRatio="xMidYMid meet">
<metadata>
Created by potrace 1.16, written by Peter Selinger 2001-2019
</metadata>
<g transform="translate(0.000000,70.000000) scale(0.100000,-0.100000)"
fill="#000000" stroke="none">
<path d="M334 613 c-13 -43 -32 -70 -66 -92 -21 -13 -35 -28 -32 -33 8 -13 80
31 95 58 7 13 15 24 19 24 4 0 12 -11 19 -24 16 -28 87 -71 96 -57 3 6 -7 17
-22 25 -37 19 -63 48 -72 82 -9 33 -29 43 -37 17z"/>
<path d="M128 539 c-35 -20 -42 -52 -43 -184 -2 -137 7 -175 44 -195 38 -20
44 -9 14 23 -29 30 -37 50 -34 86 1 11 7 9 24 -7 13 -12 26 -22 30 -22 16 0 5
23 -19 42 l-25 20 22 24 c21 22 21 25 6 42 -22 24 -21 39 3 54 20 13 28 38 12
38 -5 0 -17 -9 -27 -20 -13 -15 -21 -17 -26 -9 -10 17 7 59 39 92 26 28 15 37
-20 16z"/>
<path d="M557 518 c33 -35 51 -82 35 -92 -5 -3 -17 3 -27 14 -10 11 -22 20
-27 20 -17 0 -7 -23 18 -42 l25 -20 -22 -24 c-21 -22 -21 -25 -6 -42 22 -24
21 -39 -3 -54 -20 -13 -28 -38 -12 -38 5 0 17 9 27 20 13 15 21 17 26 9 11
-18 -8 -61 -38 -86 -31 -25 -24 -42 10 -24 44 24 51 48 52 186 2 137 -7 175
-44 195 -38 20 -44 9 -14 -22z"/>
<path d="M36 412 c-7 -11 31 -48 41 -38 4 3 -2 16 -14 27 -11 12 -23 17 -27
11z"/>
<path d="M635 400 c-25 -27 -10 -39 16 -13 12 11 17 23 11 27 -5 3 -17 -3 -27
-14z"/>
<path d="M20 350 c0 -5 11 -10 25 -10 14 0 25 5 25 10 0 6 -11 10 -25 10 -14
0 -25 -4 -25 -10z"/>
<path d="M630 350 c0 -5 11 -10 25 -10 14 0 25 5 25 10 0 6 -11 10 -25 10 -14
0 -25 -4 -25 -10z"/>
<path d="M47 312 c-10 -10 -14 -22 -10 -25 7 -8 43 21 43 35 0 14 -16 9 -33
-10z"/>
<path d="M620 322 c0 -14 36 -43 43 -35 4 3 0 15 -10 25 -17 19 -33 24 -33 10z"/>
</g>
</svg>
