<?xml version="1.0" standalone="no"?>
<!DOCTYPE svg PUBLIC "-//W3C//DTD SVG 20010904//EN"
 "http://www.w3.org/TR/2001/REC-SVG-20010904/DTD/svg10.dtd">
<svg version="1.0" xmlns="http://www.w3.org/2000/svg"
 width="150.000000pt" height="150.000000pt" viewBox="0 0 150.000000 150.000000"
 preserveAspectRatio="xMidYMid meet">
<metadata>
Created by potrace 1.16, written by Peter Selinger 2001-2019
</metadata>
<g transform="translate(0.000000,150.000000) scale(0.100000,-0.100000)"
fill="#000000" stroke="none">
<path d="M250 1233 c0 -10 65 -83 145 -163 l145 -145 -70 -70 -70 -70 -103
103 c-98 98 -137 122 -137 85 0 -10 46 -64 102 -120 l103 -103 -107 -108 c-58
-59 -104 -113 -101 -119 11 -29 43 -8 140 89 l103 103 70 -70 70 -70 -145
-145 c-80 -80 -145 -153 -145 -163 0 -40 43 -9 180 128 l145 145 87 -87 88
-88 88 88 87 87 145 -145 c137 -137 180 -168 180 -128 0 10 -65 83 -145 163
l-145 145 70 70 70 70 109 -109 c103 -103 131 -119 131 -78 0 9 -46 63 -102
119 l-103 103 103 103 c56 56 102 110 102 120 0 37 -39 13 -137 -85 l-103
-103 -70 70 -70 70 145 145 c80 80 145 153 145 163 0 40 -43 9 -180 -128
l-145 -145 -87 87 -88 88 -88 -88 -87 -87 -145 145 c-137 137 -180 168 -180
128z m573 -241 l67 -68 -70 -69 -70 -69 -70 69 -70 69 67 68 c37 38 70 68 73
68 3 0 36 -30 73 -68z m-178 -312 l-70 -70 -70 70 -70 70 70 70 70 70 70 -70
70 -70 -70 -70z m350 0 l-70 -70 -70 70 -70 70 70 70 70 70 70 -70 70 -70 -70
-70z m-172 -38 l67 -68 -70 -69 -70 -69 -70 69 -70 69 67 68 c37 38 70 68 73
68 3 0 36 -30 73 -68z"/>
</g>
</svg>
