<?xml version="1.0" standalone="no"?>
<!DOCTYPE svg PUBLIC "-//W3C//DTD SVG 20010904//EN"
 "http://www.w3.org/TR/2001/REC-SVG-20010904/DTD/svg10.dtd">
<svg version="1.0" xmlns="http://www.w3.org/2000/svg"
 width="500.000000pt" height="500.000000pt" viewBox="0 0 500.000000 500.000000"
 preserveAspectRatio="xMidYMid meet">
<metadata>
Created by potrace 1.16, written by Peter Selinger 2001-2019
</metadata>
<g transform="translate(0.000000,500.000000) scale(0.100000,-0.100000)"
fill="#000000" stroke="none">
<path d="M1908 3602 c-26 -22 -28 -29 -28 -103 0 -69 3 -80 20 -89 27 -14 55
-5 67 22 8 19 16 13 82 -70 46 -59 70 -96 65 -104 -5 -7 -91 -107 -192 -221
l-185 -208 -51 3 -51 3 -55 100 c-57 103 -81 123 -116 95 -22 -19 -17 -46 27
-125 l41 -75 -80 0 -80 0 -73 80 c-57 64 -77 80 -100 80 -24 0 -49 -22 -49
-44 0 -3 21 -29 47 -58 l47 -53 -139 -3 c-144 -3 -165 -8 -165 -46 0 -45 5
-46 367 -46 189 0 343 -3 343 -6 0 -3 -47 -58 -105 -122 -60 -67 -105 -126
-105 -137 0 -43 12 -45 267 -45 270 0 264 2 215 -66 -66 -91 -256 -228 -367
-266 -83 -28 -326 -28 -430 0 -91 25 -237 94 -308 147 -49 36 -122 138 -157
219 -30 67 -53 220 -45 296 12 111 79 263 141 320 35 32 42 58 22 78 -51 51
-152 -56 -219 -236 -31 -82 -33 -94 -32 -212 0 -162 24 -252 95 -370 65 -108
86 -131 177 -192 104 -71 202 -114 328 -144 99 -24 120 -26 248 -20 176 7 221
21 360 104 147 90 253 191 291 277 l28 65 376 -1 375 0 89 -111 89 -110 -63
-230 -64 -229 22 -21 c17 -18 25 -20 45 -11 20 9 31 38 77 204 l53 193 35 -40
c19 -21 46 -54 60 -72 l26 -34 -34 -139 c-36 -149 -35 -171 9 -177 36 -6 48
14 72 119 12 55 26 98 30 97 4 -2 93 -110 199 -240 145 -180 198 -238 214
-238 28 0 46 18 46 45 -1 11 -88 127 -195 259 -107 132 -193 241 -191 243 2 2
47 -2 101 -8 97 -11 99 -11 117 11 22 27 22 34 3 53 -15 16 -39 20 -207 38
l-107 12 -40 51 -40 51 161 3 c168 3 188 8 188 46 0 43 -13 46 -225 46 l-201
0 -77 95 -78 95 418 0 418 0 84 -84 83 -84 75 -333 c41 -184 80 -340 86 -347
24 -30 63 -2 327 247 271 255 292 280 258 309 -7 5 -164 51 -348 101 l-334 91
-93 92 -93 93 -186 5 -186 5 83 103 83 102 326 0 c240 0 329 3 338 12 16 16
15 53 -1 67 -9 7 -109 12 -300 13 l-287 3 125 155 c120 150 138 183 113 208
-32 32 -53 14 -208 -178 -96 -120 -159 -190 -168 -188 -9 2 -49 58 -90 126
-68 110 -78 122 -104 122 -20 0 -32 -7 -39 -23 -9 -20 -3 -36 46 -118 32 -52
59 -97 62 -101 2 -5 -29 -8 -69 -7 l-73 0 -64 89 c-68 95 -82 106 -111 90 -38
-20 -34 -47 15 -113 l46 -62 -98 -3 c-86 -2 -100 -5 -116 -24 -15 -18 -16 -23
-4 -42 14 -20 24 -21 277 -26 l262 -5 -82 -102 -83 -103 -231 0 -231 1 -207
257 -206 257 134 5 c105 4 137 8 144 20 14 22 12 36 -6 54 -13 13 -44 16 -183
16 l-168 0 -31 39 c-18 22 -32 42 -32 45 0 3 88 6 195 6 l195 0 11 24 c8 17 8
29 0 45 -11 20 -17 21 -246 21 l-234 0 -52 63 -52 62 198 3 c167 2 202 5 217
19 24 21 23 50 -1 63 -12 6 -106 10 -237 10 -170 0 -215 3 -206 12 16 16 15
53 0 66 -7 5 -42 12 -78 14 -56 3 -68 0 -92 -20z m421 -586 c78 -96 141 -177
141 -180 0 -3 -135 -6 -300 -6 -165 0 -300 3 -300 6 0 6 309 354 314 354 2 0
67 -78 145 -174z m313 -387 l88 -109 -572 0 -572 0 25 28 c14 15 58 64 99 110
l73 82 386 -1 386 0 87 -110z m1728 -499 c85 -23 158 -45 161 -49 4 -3 -28
-38 -70 -78 l-78 -72 -134 135 -134 134 50 -14 c28 -8 120 -33 205 -56z m-138
-342 c-45 -44 -84 -79 -87 -76 -5 5 -95 393 -95 411 0 7 60 -48 133 -121 l132
-132 -83 -82z"/>
</g>
</svg>
