<?xml version="1.0" standalone="no"?>
<!DOCTYPE svg PUBLIC "-//W3C//DTD SVG 20010904//EN"
 "http://www.w3.org/TR/2001/REC-SVG-20010904/DTD/svg10.dtd">
<svg version="1.0" xmlns="http://www.w3.org/2000/svg"
 width="150.000000pt" height="150.000000pt" viewBox="0 0 150.000000 150.000000"
 preserveAspectRatio="xMidYMid meet">
<metadata>
Created by potrace 1.16, written by Peter Selinger 2001-2019
</metadata>
<g transform="translate(0.000000,150.000000) scale(0.100000,-0.100000)"
fill="#000000" stroke="none">
<path d="M535 1150 c-202 -5 -210 -6 -210 -25 0 -19 8 -20 198 -23 l197 -2 0
-340 0 -340 -117 87 c-65 47 -142 104 -171 126 l-53 40 95 96 c93 93 116 131
79 131 -10 -1 -70 -50 -133 -110 -99 -94 -113 -111 -104 -127 12 -19 420 -323
434 -323 14 0 422 304 434 323 9 16 -5 33 -104 127 -63 60 -123 109 -132 110
-38 0 -15 -38 78 -131 l95 -96 -53 -40 c-29 -22 -106 -79 -170 -126 l-118 -87
0 340 0 340 195 0 c168 0 196 2 202 16 3 8 2 19 -3 24 -11 11 -363 17 -639 10z"/>
<path d="M156 844 c-19 -18 -21 -55 -4 -72 28 -28 88 -2 88 38 0 24 -26 50
-50 50 -10 0 -26 -7 -34 -16z"/>
<path d="M1276 844 c-9 -8 -16 -24 -16 -34 0 -40 60 -66 88 -38 28 28 2 88
-38 88 -10 0 -26 -7 -34 -16z"/>
</g>
</svg>
