<?xml version="1.0" standalone="no"?>
<!DOCTYPE svg PUBLIC "-//W3C//DTD SVG 20010904//EN"
 "http://www.w3.org/TR/2001/REC-SVG-20010904/DTD/svg10.dtd">
<svg version="1.0" xmlns="http://www.w3.org/2000/svg"
 width="150.000000pt" height="150.000000pt" viewBox="0 0 150.000000 150.000000"
 preserveAspectRatio="xMidYMid meet">
<metadata>
Created by potrace 1.16, written by Peter Selinger 2001-2019
</metadata>
<g transform="translate(0.000000,150.000000) scale(0.100000,-0.100000)"
fill="#000000" stroke="none">
<path d="M733 1118 c-6 -7 -45 -74 -87 -148 -43 -74 -81 -139 -86 -144 -4 -4
-34 10 -67 31 -73 50 -89 55 -103 37 -17 -19 -5 -32 75 -84 59 -39 64 -44 53
-64 -6 -11 -44 -79 -85 -149 -61 -104 -72 -131 -63 -143 10 -11 46 -14 181
-14 l169 0 0 -84 c0 -62 4 -87 15 -96 12 -10 18 -10 30 0 11 9 15 34 15 96 l0
84 174 0 c138 0 176 3 185 14 10 12 -5 44 -75 166 -48 83 -85 152 -83 154 2 1
32 22 66 44 71 48 79 58 63 77 -14 17 -30 12 -102 -37 l-57 -38 -42 72 c-23
40 -63 109 -88 153 -46 79 -68 98 -88 73z m186 -348 l151 -265 -154 -3 c-85
-1 -227 -1 -315 0 l-161 3 156 273 c86 151 160 270 164 265 4 -4 76 -127 159
-273z"/>
</g>
</svg>
