<?xml version="1.0" standalone="no"?>
<!DOCTYPE svg PUBLIC "-//W3C//DTD SVG 20010904//EN"
 "http://www.w3.org/TR/2001/REC-SVG-20010904/DTD/svg10.dtd">
<svg version="1.0" xmlns="http://www.w3.org/2000/svg"
 width="500.000000pt" height="500.000000pt" viewBox="0 0 500.000000 500.000000"
 preserveAspectRatio="xMidYMid meet">
<metadata>
Created by potrace 1.16, written by Peter Selinger 2001-2019
</metadata>
<g transform="translate(0.000000,500.000000) scale(0.100000,-0.100000)"
fill="#000000" stroke="none">
<path d="M2462 4368 c-9 -9 -12 -144 -12 -544 l0 -533 -342 -249 -341 -249
-510 170 c-379 126 -514 167 -526 160 -26 -16 -26 -60 1 -76 13 -8 241 -87
508 -176 l485 -162 129 -397 c71 -218 131 -402 133 -408 2 -6 -130 -191 -293
-410 -362 -487 -349 -467 -335 -492 12 -23 35 -34 55 -26 8 3 157 198 332 435
l319 429 435 0 435 0 319 -429 c175 -237 324 -432 332 -435 20 -8 43 3 55 26
14 25 27 5 -335 492 -163 219 -295 404 -293 410 2 6 62 189 133 406 l128 396
504 169 c356 120 506 175 513 188 12 21 -12 67 -35 67 -7 0 -240 -76 -517
-169 l-504 -169 -345 252 -345 252 -3 529 c-1 370 -6 532 -13 542 -14 16 -51
17 -67 1z m364 -1391 c175 -128 325 -244 333 -257 13 -24 5 -53 -110 -408
l-123 -382 -426 0 -426 0 -123 382 c-113 351 -122 384 -110 407 12 21 643 491
660 491 3 0 149 -105 325 -233z"/>
<path d="M1262 4144 c-13 -9 -22 -24 -20 -35 2 -10 119 -170 262 -355 l258
-336 5 -81 c5 -74 3 -85 -17 -110 -12 -15 -40 -37 -63 -48 -52 -27 -125 -21
-171 14 -32 25 -66 100 -66 147 0 34 -26 70 -50 70 -11 0 -27 -11 -36 -26 -15
-22 -15 -32 -4 -82 34 -155 120 -230 263 -232 62 0 98 14 159 62 62 48 81 90
80 170 l-2 70 33 -9 c105 -27 242 4 305 70 94 97 80 283 -30 382 -75 67 -129
72 -136 12 -3 -21 4 -31 35 -50 57 -36 80 -67 94 -120 21 -87 -3 -152 -69
-186 -70 -35 -146 -35 -235 1 -20 8 -105 111 -275 332 -136 176 -255 329 -264
338 -22 22 -28 22 -56 2z"/>
<path d="M3674 4133 c-13 -16 -133 -170 -267 -343 l-242 -315 -65 -17 c-102
-27 -207 -3 -245 56 -43 65 -25 175 36 231 21 19 43 35 49 35 16 0 41 46 34
64 -8 22 -50 31 -80 17 -50 -22 -113 -92 -134 -147 -71 -191 42 -356 245 -358
39 -1 85 3 102 7 l33 9 -2 -71 c-1 -61 3 -76 26 -111 14 -22 52 -57 83 -77 54
-36 60 -38 137 -38 63 0 90 5 121 22 71 37 112 100 135 205 11 50 11 60 -4 82
-33 52 -74 26 -87 -53 -9 -62 -37 -119 -69 -143 -14 -10 -49 -21 -77 -25 -45
-5 -58 -2 -97 21 -70 41 -80 62 -73 156 l5 79 259 335 c142 185 259 345 261
355 3 18 -31 51 -51 51 -5 0 -20 -12 -33 -27z"/>
<path d="M1132 2638 c-57 -28 -74 -61 -44 -90 l21 -21 52 23 c41 17 66 21 116
18 73 -5 106 -24 141 -84 21 -35 23 -49 19 -126 -4 -88 -12 -109 -55 -154 -14
-15 -148 -64 -416 -154 -217 -72 -400 -137 -406 -145 -15 -18 -9 -55 11 -68
12 -7 120 25 420 125 l404 135 58 -12 c45 -9 66 -20 97 -50 81 -79 100 -164
55 -241 -25 -43 -32 -46 -114 -57 -23 -3 -40 -39 -30 -64 7 -19 16 -23 51 -23
75 0 116 17 149 63 66 91 78 182 34 274 -32 70 -106 147 -161 170 -31 12 -43
23 -40 33 3 8 12 35 21 59 9 25 17 80 18 125 1 70 -2 89 -26 138 -33 67 -91
123 -144 137 -65 19 -182 13 -231 -11z"/>
<path d="M3637 2650 c-72 -22 -147 -112 -166 -201 -13 -62 1 -184 28 -237 l20
-39 -41 -12 c-97 -30 -198 -173 -198 -283 0 -99 68 -207 140 -222 65 -12 109
-7 120 15 16 29 -11 69 -48 69 -15 0 -37 3 -50 6 -31 9 -72 82 -72 128 0 104
103 210 210 217 23 2 178 -45 438 -132 l404 -134 18 23 c19 23 17 50 -4 64 -6
4 -187 66 -402 138 -348 116 -394 134 -423 164 -37 38 -50 84 -51 171 0 68 26
124 73 159 42 31 139 34 205 6 51 -22 53 -22 72 -5 38 34 19 70 -53 100 -40
16 -171 19 -220 5z"/>
<path d="M2174 1575 c-18 -8 -59 -40 -92 -72 -70 -67 -92 -123 -92 -230 0 -97
32 -143 79 -114 11 7 15 33 16 103 1 111 13 140 86 198 39 31 59 40 89 40 76
0 137 -41 171 -115 17 -37 19 -73 19 -480 0 -464 0 -465 45 -465 45 0 45 2 45
440 0 344 3 425 15 468 39 129 169 191 262 123 82 -59 109 -122 100 -228 -5
-48 -3 -66 9 -78 44 -44 84 7 84 108 0 108 -22 163 -95 234 -75 71 -114 87
-199 81 -75 -6 -130 -33 -179 -87 l-37 -41 -37 42 c-71 78 -201 111 -289 73z"/>
</g>
</svg>
