<?xml version="1.0" standalone="no"?>
<!DOCTYPE svg PUBLIC "-//W3C//DTD SVG 20010904//EN"
 "http://www.w3.org/TR/2001/REC-SVG-20010904/DTD/svg10.dtd">
<svg version="1.0" xmlns="http://www.w3.org/2000/svg"
 width="500.000000pt" height="500.000000pt" viewBox="0 0 500.000000 500.000000"
 preserveAspectRatio="xMidYMid meet">
<metadata>
Created by potrace 1.16, written by Peter Selinger 2001-2019
</metadata>
<g transform="translate(0.000000,500.000000) scale(0.100000,-0.100000)"
fill="#000000" stroke="none">
<path d="M908 3819 c-20 -11 -23 -45 -8 -69 8 -12 49 -16 232 -20 l224 -5 -48
-740 c-25 -407 -61 -964 -78 -1238 -26 -397 -30 -500 -20 -512 15 -19 54 -19
69 -2 9 11 50 547 51 655 l0 22 475 0 c459 0 475 1 485 19 5 11 10 28 10 38 0
10 43 174 96 366 l97 347 259 0 258 0 0 -344 c0 -302 2 -347 16 -361 14 -14
57 -15 368 -13 l352 3 17 -355 c15 -342 17 -356 38 -372 26 -21 30 -22 53 -5
18 13 17 42 -18 766 -19 414 -38 756 -41 762 -4 5 -463 9 -1206 9 l-1199 0 0
23 c0 12 14 240 31 507 l31 484 -27 23 c-26 23 -30 23 -263 23 -142 0 -244 -5
-254 -11z m1482 -1152 c0 -7 -40 -158 -90 -335 -49 -177 -90 -324 -90 -327 0
-3 -196 -5 -435 -5 l-435 0 0 23 c0 12 9 157 20 322 11 165 20 308 20 318 0
16 31 17 505 17 412 0 505 -2 505 -13z m1324 -69 c6 -85 26 -484 26 -525 l0
-23 -320 0 -320 0 0 315 0 315 304 0 304 0 6 -82z"/>
<path d="M936 1114 c-9 -8 -16 -22 -16 -29 0 -7 7 -21 16 -29 13 -13 42 -16
163 -16 154 0 171 4 171 45 0 41 -17 45 -171 45 -121 0 -150 -3 -163 -16z"/>
<path d="M3516 1114 c-9 -8 -16 -22 -16 -29 0 -7 7 -21 16 -29 13 -13 43 -16
173 -16 109 0 161 4 169 12 18 18 14 56 -7 68 -11 5 -85 10 -170 10 -123 0
-152 -3 -165 -16z"/>
</g>
</svg>
