<?xml version="1.0" standalone="no"?>
<!DOCTYPE svg PUBLIC "-//W3C//DTD SVG 20010904//EN"
 "http://www.w3.org/TR/2001/REC-SVG-20010904/DTD/svg10.dtd">
<svg version="1.0" xmlns="http://www.w3.org/2000/svg"
 width="150.000000pt" height="150.000000pt" viewBox="0 0 150.000000 150.000000"
 preserveAspectRatio="xMidYMid meet">
<metadata>
Created by potrace 1.16, written by Peter Selinger 2001-2019
</metadata>
<g transform="translate(0.000000,150.000000) scale(0.100000,-0.100000)"
fill="#000000" stroke="none">
<path d="M726 1274 c-3 -9 -6 -56 -6 -105 l0 -89 -138 0 c-94 0 -142 -4 -150
-12 -8 -8 -12 -56 -12 -150 l0 -138 -94 0 c-71 0 -97 -4 -106 -15 -10 -12 -10
-18 0 -30 9 -11 35 -15 106 -15 l94 0 0 -138 c0 -94 4 -142 12 -150 8 -8 56
-12 150 -12 l138 0 0 -92 c0 -103 9 -129 37 -112 15 9 18 28 21 108 l3 96 137
0 c94 0 142 4 150 12 8 8 12 56 12 150 l0 138 94 0 c71 0 97 4 106 15 10 12
10 18 0 30 -9 11 -35 15 -106 15 l-94 0 0 138 c0 94 -4 142 -12 150 -8 8 -56
12 -150 12 l-138 0 0 89 c0 102 -5 121 -30 121 -10 0 -21 -7 -24 -16z m-26
-257 c0 -1 -49 -52 -110 -112 l-110 -110 0 113 0 112 110 0 c61 0 110 -1 110
-3z m320 -107 c0 -60 -1 -110 -3 -110 -1 0 -52 50 -112 110 l-110 110 113 0
112 0 0 -110z m-145 -40 l120 -120 -123 -123 -122 -122 -122 122 -123 123 120
120 c66 66 122 120 125 120 3 0 59 -54 125 -120z m-280 -280 l110 -110 -113 0
-112 0 0 110 c0 61 1 110 3 110 1 0 52 -49 112 -110z m425 0 l0 -110 -112 0
-113 0 110 110 c60 61 111 110 112 110 2 0 3 -49 3 -110z"/>
</g>
</svg>
