<?xml version="1.0" standalone="no"?>
<!DOCTYPE svg PUBLIC "-//W3C//DTD SVG 20010904//EN"
 "http://www.w3.org/TR/2001/REC-SVG-20010904/DTD/svg10.dtd">
<svg version="1.0" xmlns="http://www.w3.org/2000/svg"
 width="500.000000pt" height="500.000000pt" viewBox="0 0 500.000000 500.000000"
 preserveAspectRatio="xMidYMid meet">
<metadata>
Created by potrace 1.16, written by Peter Selinger 2001-2019
</metadata>
<g transform="translate(0.000000,500.000000) scale(0.100000,-0.100000)"
fill="#000000" stroke="none">
<path d="M1217 3815 c-70 -74 -127 -141 -127 -149 0 -20 28 -46 50 -46 10 0
65 49 123 110 l106 111 148 -135 c81 -74 167 -157 191 -185 l42 -50 -33 -53
c-90 -140 -152 -316 -163 -461 l-7 -87 -147 0 -148 0 -12 53 c-15 62 -25 77
-54 77 -26 0 -46 -17 -46 -40 0 -8 14 -82 32 -163 27 -127 35 -150 53 -159 16
-7 29 -6 45 2 20 11 22 17 16 61 -4 27 -9 56 -12 64 -5 13 14 15 134 15 l139
0 7 -82 c4 -46 11 -100 15 -121 l9 -38 -59 -40 c-60 -41 -74 -70 -47 -97 22
-22 52 -12 131 44 87 61 82 49 58 154 -6 25 -10 75 -11 113 l0 67 280 0 c222
0 280 -3 280 -13 0 -50 -460 -678 -591 -808 -60 -60 -140 -99 -201 -99 -36 0
-160 88 -203 144 -31 41 -50 50 -76 36 -25 -14 -24 -54 2 -91 22 -31 133 -123
190 -158 68 -42 195 -18 302 56 55 38 143 142 311 368 166 223 226 307 283
395 l42 65 11 -29 c54 -144 104 -320 134 -476 8 -41 23 -100 33 -130 17 -53
19 -55 53 -55 34 0 36 2 53 55 10 30 25 89 33 130 30 156 80 332 134 476 l11
29 42 -65 c87 -135 366 -514 465 -633 115 -136 231 -206 343 -207 50 0 64 5
120 42 98 65 179 150 179 187 0 26 -21 51 -44 51 -3 0 -34 -28 -68 -63 -35
-35 -85 -78 -112 -96 -41 -28 -54 -33 -91 -29 -123 14 -215 102 -471 453 -211
290 -304 428 -304 452 0 10 58 13 280 13 l280 0 0 -67 c-1 -38 -5 -88 -11
-113 -24 -104 -29 -92 60 -154 81 -57 107 -66 129 -44 27 27 13 56 -47 99 -58
41 -58 42 -50 78 4 20 11 73 15 119 l7 82 139 0 c120 0 139 -2 134 -15 -3 -8
-8 -37 -12 -65 -6 -46 -5 -50 18 -61 51 -22 62 -4 97 158 17 81 31 155 31 163
0 23 -20 40 -46 40 -29 0 -39 -15 -54 -77 l-12 -53 -148 0 -147 0 -7 87 c-11
145 -73 321 -163 461 l-33 53 42 50 c24 28 110 111 191 184 l149 134 107 -111
c96 -100 110 -111 133 -105 29 8 44 38 31 60 -4 8 -63 72 -129 142 -131 137
-141 142 -189 98 -11 -11 -74 -67 -140 -127 -66 -59 -150 -139 -186 -178 l-65
-70 -43 50 c-48 58 -132 114 -258 172 -311 144 -625 117 -935 -82 -42 -27 -93
-69 -113 -94 l-37 -45 -82 84 c-44 46 -123 122 -175 168 -52 46 -104 93 -115
105 -24 24 -59 44 -78 44 -7 0 -70 -61 -141 -135z m1475 -70 c155 -40 329
-133 393 -211 l37 -45 -98 -102 c-198 -204 -273 -313 -309 -449 l-18 -68 -197
0 -197 0 -18 68 c-36 136 -111 245 -309 449 l-98 101 32 41 c40 49 126 107
235 157 188 87 362 105 547 59z m-642 -573 c73 -82 111 -147 139 -239 l19 -63
-285 0 -286 0 6 63 c14 140 88 349 160 451 l20 29 81 -84 c45 -46 111 -117
146 -157z m1206 107 c46 -93 91 -246 101 -346 l6 -63 -286 0 -285 0 19 63 c11
34 29 82 41 106 23 48 122 166 247 294 l76 78 19 -23 c10 -13 38 -62 62 -109z
m-651 -686 c-35 -104 -71 -225 -81 -270 -11 -46 -21 -83 -24 -83 -3 0 -13 37
-24 83 -10 45 -46 166 -81 270 l-63 187 168 0 168 0 -63 -187z"/>
<path d="M1909 1566 c-29 -64 100 -241 214 -294 154 -72 315 -100 467 -83 103
11 254 60 322 103 108 68 205 217 179 274 -9 20 -17 25 -39 22 -22 -2 -32 -14
-58 -69 -44 -90 -108 -146 -216 -187 -45 -18 -105 -37 -133 -43 -73 -15 -240
-12 -310 6 -182 47 -274 110 -329 224 -26 55 -36 67 -58 69 -22 3 -30 -2 -39
-22z"/>
<path d="M1707 1302 c-20 -22 -22 -46 -4 -61 8 -6 57 -13 111 -15 105 -5 130
5 124 47 -5 33 -45 47 -134 47 -66 0 -84 -3 -97 -18z"/>
<path d="M3090 1307 c-30 -15 -37 -48 -16 -70 13 -12 35 -14 112 -11 54 2 103
9 111 15 18 15 17 44 -3 63 -19 20 -166 22 -204 3z"/>
<path d="M1710 1097 c-28 -14 -38 -50 -20 -72 9 -10 36 -12 128 -8 64 3 123
10 130 16 19 15 14 55 -7 67 -28 14 -201 12 -231 -3z"/>
<path d="M3058 1099 c-21 -12 -24 -52 -5 -66 6 -6 65 -13 129 -16 92 -4 119
-2 128 8 18 22 8 58 -20 72 -30 15 -207 17 -232 2z"/>
</g>
</svg>
