<?xml version="1.0" standalone="no"?>
<!DOCTYPE svg PUBLIC "-//W3C//DTD SVG 20010904//EN"
 "http://www.w3.org/TR/2001/REC-SVG-20010904/DTD/svg10.dtd">
<svg version="1.0" xmlns="http://www.w3.org/2000/svg"
 width="500.000000pt" height="500.000000pt" viewBox="0 0 500.000000 500.000000"
 preserveAspectRatio="xMidYMid meet">
<metadata>
Created by potrace 1.16, written by Peter Selinger 2001-2019
</metadata>
<g transform="translate(0.000000,500.000000) scale(0.100000,-0.100000)"
fill="#000000" stroke="none">
<path d="M1828 4069 c-10 -5 -18 -18 -18 -28 0 -10 39 -110 86 -222 47 -112
94 -225 105 -251 l18 -47 -73 -40 c-144 -79 -288 -212 -381 -352 -91 -136
-165 -328 -181 -468 -3 -34 -11 -61 -16 -61 -6 0 -98 28 -205 62 -150 48 -198
60 -211 52 -18 -12 -25 -36 -159 -523 l-78 -283 23 -18 c28 -23 57 -15 71 18
6 15 51 178 102 362 50 184 93 337 95 339 5 5 124 -30 129 -39 2 -3 -41 -167
-96 -365 -54 -198 -99 -367 -99 -375 0 -35 56 -55 78 -27 5 6 54 172 107 367
54 195 101 358 104 363 4 4 37 -2 73 -13 l65 -20 12 -110 c58 -541 470 -953
1011 -1011 327 -36 666 86 906 325 185 186 297 421 325 686 l12 109 64 22 c36
12 68 17 73 13 4 -5 51 -169 105 -364 53 -195 102 -361 107 -367 22 -28 78 -8
78 27 0 8 -45 177 -99 375 -55 198 -98 362 -96 365 5 9 124 44 129 39 2 -2 44
-155 95 -339 51 -184 97 -347 102 -362 14 -33 43 -41 71 -18 l23 18 -63 228
c-145 528 -157 567 -174 578 -13 8 -61 -4 -212 -52 -107 -34 -199 -62 -204
-62 -5 0 -13 27 -16 61 -19 167 -118 395 -234 540 -85 105 -210 214 -318 274
l-83 47 19 46 c10 26 57 139 105 252 57 137 84 212 80 227 -7 28 -51 42 -70
22 -7 -8 -59 -124 -115 -259 -56 -135 -103 -246 -105 -248 -1 -1 -41 9 -89 22
-193 56 -419 56 -612 0 -48 -13 -88 -23 -89 -22 -2 2 -49 113 -105 248 -57
135 -107 251 -112 258 -12 14 -37 15 -60 1z m892 -559 c47 -10 97 -23 112 -29
l28 -10 -34 -78 c-18 -43 -97 -232 -176 -420 -79 -189 -146 -343 -150 -343 -4
0 -21 33 -37 73 -17 39 -94 224 -172 410 -78 186 -142 344 -144 350 -3 17 147
57 248 66 115 9 218 4 325 -19z m-653 -103 c25 -54 363 -866 363 -871 0 -3
-31 -6 -68 -6 -72 0 -92 -10 -92 -45 0 -42 14 -45 230 -45 216 0 230 3 230 45
0 35 -20 45 -93 45 -61 0 -68 2 -63 18 10 30 364 873 369 878 3 3 25 -5 49
-17 252 -128 455 -398 519 -693 38 -170 23 -406 -35 -560 -59 -157 -136 -278
-245 -387 -407 -403 -1063 -403 -1462 0 -414 419 -401 1097 29 1492 58 54 227
169 248 169 6 0 15 -10 21 -23z"/>
</g>
</svg>
