<?xml version="1.0" standalone="no"?>
<!DOCTYPE svg PUBLIC "-//W3C//DTD SVG 20010904//EN"
 "http://www.w3.org/TR/2001/REC-SVG-20010904/DTD/svg10.dtd">
<svg version="1.0" xmlns="http://www.w3.org/2000/svg"
 width="500.000000pt" height="500.000000pt" viewBox="0 0 500.000000 500.000000"
 preserveAspectRatio="xMidYMid meet">
<metadata>
Created by potrace 1.16, written by Peter Selinger 2001-2019
</metadata>
<g transform="translate(0.000000,500.000000) scale(0.100000,-0.100000)"
fill="#000000" stroke="none">
<path d="M1843 4753 c-20 -7 -16 -37 16 -121 16 -42 35 -95 41 -117 7 -22 24
-66 38 -99 l26 -58 -30 -21 c-153 -110 -293 -317 -346 -512 -31 -116 -31 -355
0 -470 90 -325 342 -577 667 -667 66 -18 106 -22 235 -22 129 0 169 4 235 22
265 73 479 250 601 497 71 144 88 222 88 405 0 183 -17 261 -88 405 -65 132
-178 270 -274 337 l-23 16 24 48 c14 27 34 78 45 114 11 36 32 95 46 133 30
79 32 102 10 111 -19 7 -54 -19 -54 -40 0 -7 -14 -50 -31 -96 -17 -46 -40
-108 -52 -140 -35 -95 -32 -94 -128 -48 -141 67 -220 84 -399 84 -176 0 -257
-17 -388 -79 -41 -19 -78 -32 -83 -29 -11 7 -35 61 -59 134 -53 160 -81 222
-99 219 -3 0 -12 -3 -18 -6z m772 -307 c197 -30 342 -103 485 -246 194 -194
283 -446 250 -708 -26 -208 -103 -365 -250 -512 -194 -194 -446 -283 -708
-250 -208 26 -365 103 -512 250 -147 147 -224 304 -250 512 -33 262 56 514
250 708 140 140 287 216 475 245 107 17 153 17 260 1z"/>
<path d="M2465 3638 c-3 -7 -4 -103 -3 -213 l3 -200 25 0 25 0 0 210 0 210
-23 3 c-12 2 -24 -3 -27 -10z"/>
<path d="M215 3627 c-20 -11 -19 -43 1 -51 9 -3 96 -6 194 -6 199 0 201 -1
220 -68 5 -20 16 -58 24 -84 8 -27 12 -48 8 -48 -4 0 -57 9 -117 19 -92 16
-222 26 -272 22 -19 -1 -16 -48 3 -55 9 -3 37 -6 64 -6 43 0 338 -44 345 -52
2 -2 13 -41 25 -88 11 -47 23 -93 26 -103 5 -16 -6 -17 -168 -12 -95 3 -192 8
-215 10 -50 5 -79 -15 -63 -44 8 -16 30 -19 162 -25 84 -3 188 -9 230 -12 l77
-7 7 -46 c3 -25 19 -107 34 -181 16 -74 30 -148 32 -165 4 -44 43 -60 94 -39
52 22 248 30 350 15 43 -6 115 -22 159 -35 120 -36 388 -157 478 -217 l79 -52
-52 -31 c-147 -86 -231 -149 -320 -241 l-95 -98 -115 -8 c-159 -10 -250 -34
-368 -94 -43 -21 -53 -31 -50 -48 4 -31 41 -33 86 -6 61 36 170 69 268 80 137
16 137 16 68 -71 -100 -125 -184 -246 -184 -262 0 -9 7 -21 16 -28 19 -16 23
-13 101 95 92 127 177 234 182 229 2 -2 7 -95 10 -206 6 -190 7 -203 25 -206
43 -9 46 17 40 272 l-7 241 99 95 c74 71 131 114 222 168 119 71 123 72 145
56 91 -70 286 -346 360 -509 47 -105 66 -127 93 -110 9 6 36 55 61 110 74 163
269 439 360 509 22 16 26 15 145 -56 91 -54 148 -97 222 -168 l99 -95 -7 -241
c-6 -255 -3 -281 40 -272 18 3 19 16 25 206 3 111 8 204 10 206 5 5 90 -102
182 -229 78 -108 82 -111 101 -95 9 7 16 19 16 28 0 16 -84 137 -184 262 -69
87 -69 87 68 71 98 -11 207 -44 268 -80 45 -27 82 -25 86 6 3 17 -7 27 -50 48
-118 60 -209 84 -368 94 l-115 8 -95 98 c-89 92 -173 155 -320 241 l-52 31 79
52 c90 60 358 181 478 217 44 13 116 29 159 35 102 15 298 7 350 -15 51 -21
90 -5 94 39 2 17 16 91 32 165 15 74 31 156 34 181 l7 46 77 7 c42 3 146 9
230 12 132 6 154 9 162 25 16 29 -13 49 -63 44 -23 -2 -120 -7 -215 -10 -162
-5 -173 -4 -168 12 3 10 15 56 26 103 12 47 23 86 25 88 7 8 302 52 345 52 27
0 55 3 64 6 19 7 22 54 4 55 -51 4 -181 -6 -273 -22 -60 -10 -113 -19 -117
-19 -4 0 0 21 8 48 8 26 19 64 24 84 19 67 21 68 220 68 98 0 185 3 194 6 19
7 21 40 4 51 -18 11 -386 4 -423 -8 -35 -10 -27 11 -102 -269 -59 -217 -80
-306 -124 -533 l-34 -168 -25 7 c-120 31 -364 19 -515 -25 -197 -57 -502 -204
-592 -284 -22 -20 -22 -20 -84 3 -102 37 -284 70 -389 70 -105 0 -287 -33
-389 -70 -62 -23 -62 -23 -84 -3 -90 80 -395 227 -592 284 -151 44 -395 56
-515 25 l-25 -7 -34 168 c-44 227 -65 316 -124 533 -75 280 -67 259 -102 269
-39 12 -400 19 -420 8z m2430 -1283 c94 -18 180 -39 219 -54 28 -10 28 -10 8
-28 -89 -78 -285 -354 -337 -475 -16 -37 -32 -67 -35 -67 -3 0 -19 30 -35 67
-52 121 -248 397 -337 475 -20 18 -20 18 8 28 15 6 53 17 84 25 185 47 291 54
425 29z"/>
<path d="M2477 1234 c-4 -4 -7 -71 -7 -148 l0 -141 -146 -105 c-186 -133 -196
-142 -375 -312 -111 -105 -149 -147 -147 -162 7 -46 45 -22 206 130 88 84 176
163 194 176 149 110 259 188 263 188 3 0 6 -159 7 -352 l3 -353 25 0 25 0 3
353 c1 193 4 352 7 352 4 0 114 -78 263 -188 18 -13 106 -92 194 -176 161
-152 199 -176 206 -130 2 16 -39 60 -169 183 -94 89 -192 176 -218 194 -25 17
-98 69 -161 115 l-115 84 -5 146 c-5 138 -6 147 -25 150 -12 2 -24 0 -28 -4z"/>
</g>
</svg>
