<?xml version="1.0" standalone="no"?>
<!DOCTYPE svg PUBLIC "-//W3C//DTD SVG 20010904//EN"
 "http://www.w3.org/TR/2001/REC-SVG-20010904/DTD/svg10.dtd">
<svg version="1.0" xmlns="http://www.w3.org/2000/svg"
 width="500.000000pt" height="500.000000pt" viewBox="0 0 500.000000 500.000000"
 preserveAspectRatio="xMidYMid meet">
<metadata>
Created by potrace 1.16, written by Peter Selinger 2001-2019
</metadata>
<g transform="translate(0.000000,500.000000) scale(0.100000,-0.100000)"
fill="#000000" stroke="none">
<path d="M2102 4568 c-9 -9 -12 -75 -12 -235 l0 -223 -109 0 c-116 0 -136 -8
-129 -50 5 -32 626 -760 648 -760 22 0 643 728 648 760 7 42 -13 50 -129 50
l-109 0 0 223 c0 234 -2 247 -45 247 -43 0 -45 -13 -45 -247 l0 -223 -320 0
-320 0 0 223 c0 234 -2 247 -45 247 -12 0 -26 -5 -33 -12z m892 -560 c-19 -32
-486 -578 -494 -578 -8 0 -475 546 -494 578 -6 9 96 12 494 12 398 0 500 -3
494 -12z"/>
<path d="M1522 3228 c-7 -7 -12 -23 -12 -37 1 -17 168 -274 479 -736 474 -705
478 -710 511 -710 33 0 37 5 511 710 311 462 478 719 479 735 0 15 -5 31 -12
38 -17 17 -1939 17 -1956 0z m713 -355 c-103 -153 -193 -284 -199 -291 -9 -10
-53 48 -204 272 -106 157 -192 287 -192 290 0 3 176 6 391 6 l390 0 -186 -277z
m1125 271 c0 -3 -86 -133 -192 -290 -151 -224 -195 -282 -204 -272 -6 7 -96
138 -199 291 l-186 277 390 0 c215 0 391 -3 391 -6z m-662 -337 l193 -282
-195 -3 c-108 -1 -284 -1 -392 0 l-195 3 193 282 c106 156 195 283 198 283 3
0 92 -127 198 -283z m173 -394 c-31 -57 -363 -538 -371 -538 -8 0 -340 481
-371 538 -9 16 11 17 371 17 360 0 380 -1 371 -17z"/>
<path d="M1172 2758 c-24 -24 -10 -55 64 -140 76 -89 104 -104 132 -76 24 24
11 51 -64 139 -77 89 -104 105 -132 77z"/>
<path d="M3696 2681 c-75 -88 -88 -115 -64 -139 28 -28 56 -13 132 76 74 85
88 116 64 140 -28 28 -55 12 -132 -77z"/>
<path d="M992 2568 c-28 -28 -12 -55 92 -151 101 -94 129 -110 154 -85 29 29
12 56 -92 152 -100 93 -129 109 -154 84z"/>
<path d="M3852 2482 c-103 -98 -119 -125 -88 -152 27 -21 54 -6 155 88 101 94
118 121 89 150 -25 25 -55 9 -156 -86z"/>
<path d="M1315 2395 c-79 -110 -125 -183 -123 -195 2 -11 59 -87 127 -170 133
-162 149 -173 194 -127 36 36 217 305 217 322 0 8 -54 90 -121 180 -96 132
-125 165 -144 165 -19 0 -48 -34 -150 -175z m236 -66 c41 -56 73 -106 71 -111
-4 -15 -147 -218 -153 -218 -13 0 -164 193 -163 208 0 22 153 234 163 227 5
-2 41 -50 82 -106z"/>
<path d="M3391 2405 c-67 -90 -121 -172 -121 -180 0 -17 181 -286 217 -322 45
-46 61 -35 194 127 68 83 125 159 127 170 2 12 -44 85 -123 195 -102 141 -131
175 -150 175 -19 0 -48 -33 -144 -165z m225 -72 c43 -60 78 -115 78 -125 1
-15 -150 -208 -163 -208 -6 0 -149 203 -153 219 -3 8 148 221 157 221 2 0 39
-48 81 -107z"/>
<path d="M1806 1790 c-69 -99 -126 -187 -126 -196 0 -9 54 -92 121 -185 120
-170 120 -170 156 -167 34 3 42 11 154 173 65 94 118 178 119 188 0 10 -57 96
-126 192 -102 142 -130 175 -149 175 -20 0 -47 -33 -149 -180z m215 -37 c35
-49 73 -102 86 -119 l23 -31 -86 -124 c-47 -68 -87 -125 -88 -126 -3 -3 -166
226 -169 237 -2 7 161 250 169 250 1 0 31 -39 65 -87z"/>
<path d="M2896 1795 c-69 -96 -126 -182 -126 -192 1 -10 54 -94 119 -188 112
-162 120 -170 154 -173 36 -3 36 -3 156 167 67 93 121 176 121 185 0 9 -57 97
-126 196 -102 147 -129 180 -149 180 -19 0 -47 -33 -149 -175z m253 -101 l70
-101 -85 -118 c-46 -65 -85 -120 -87 -121 -3 -3 -165 230 -169 244 -2 5 35 62
81 127 l84 118 18 -24 c10 -13 50 -69 88 -125z"/>
<path d="M1528 1377 c-65 -62 -118 -120 -118 -129 0 -23 29 -50 50 -46 10 2
70 52 134 111 116 109 133 136 104 165 -26 26 -55 9 -170 -101z"/>
<path d="M3302 1478 c-29 -29 -12 -55 109 -168 112 -105 123 -113 147 -104 18
6 28 18 31 34 3 21 -17 44 -115 137 -117 110 -146 127 -172 101z"/>
<path d="M2266 1164 c-131 -174 -206 -282 -204 -294 2 -11 94 -134 206 -275
181 -227 206 -255 232 -255 26 0 51 28 232 255 112 141 204 264 206 275 2 12
-73 120 -204 294 -183 244 -210 276 -234 276 -24 0 -51 -32 -234 -276z m405
-67 l166 -223 -163 -205 c-90 -112 -168 -204 -174 -204 -6 0 -84 92 -174 204
l-163 205 166 223 c91 122 168 222 171 222 3 0 80 -100 171 -222z"/>
<path d="M1686 1186 c-85 -102 -98 -130 -74 -154 30 -30 56 -13 142 91 84 100
98 131 74 155 -29 29 -55 13 -142 -92z"/>
<path d="M3172 1278 c-24 -24 -10 -55 74 -155 86 -104 112 -121 142 -91 24 24
11 52 -74 154 -87 105 -113 121 -142 92z"/>
</g>
</svg>
