<?xml version="1.0" standalone="no"?>
<!DOCTYPE svg PUBLIC "-//W3C//DTD SVG 20010904//EN"
 "http://www.w3.org/TR/2001/REC-SVG-20010904/DTD/svg10.dtd">
<svg version="1.0" xmlns="http://www.w3.org/2000/svg"
 width="430.000000pt" height="430.000000pt" viewBox="0 0 430.000000 430.000000"
 preserveAspectRatio="xMidYMid meet">
<metadata>
Created by potrace 1.16, written by Peter Selinger 2001-2019
</metadata>
<g transform="translate(0.000000,430.000000) scale(0.100000,-0.100000)"
fill="#000000" stroke="none">
<path d="M2005 4204 c-492 -40 -952 -253 -1298 -600 -307 -308 -500 -691 -573
-1134 -24 -145 -24 -465 0 -610 111 -675 512 -1224 1115 -1525 290 -144 571
-209 911 -209 217 0 339 15 529 65 714 190 1276 757 1456 1469 46 181 59 292
59 505 0 213 -13 324 -59 505 -197 781 -849 1377 -1650 1510 -117 20 -383 32
-490 24z m482 -104 c63 -10 117 -20 119 -22 2 -2 -98 -105 -221 -228 l-225
-225 -225 225 c-123 123 -223 226 -221 227 7 7 185 35 271 43 127 12 366 2
502 -20z m-620 -302 l253 -253 0 -217 0 -217 -47 -6 c-198 -28 -381 -105 -504
-213 l-46 -41 -161 162 -162 162 0 353 0 352 93 46 c82 42 286 122 312 123 5
1 124 -113 262 -251z m961 213 c60 -21 160 -65 221 -96 l111 -57 0 -336 0
-337 -163 -163 c-89 -89 -166 -162 -170 -162 -5 0 -30 18 -56 40 -117 99 -306
178 -481 202 l-90 12 0 215 0 215 252 253 c139 139 256 253 260 253 4 0 56
-18 116 -39z m-1711 -808 c-2 -2 -144 -2 -316 -1 l-312 3 56 80 c125 179 298
353 481 483 l89 64 3 -313 c1 -171 1 -314 -1 -316z m2232 525 c160 -119 404
-383 470 -505 l12 -23 -296 0 -295 0 0 300 c0 165 3 300 7 300 3 0 49 -32 102
-72z m-2066 -750 c202 -203 187 -174 130 -249 -97 -128 -154 -266 -181 -436
l-16 -103 -241 0 -240 0 -239 239 -240 240 38 115 c31 95 108 274 139 324 6 9
89 12 358 12 l351 0 141 -142z m2646 47 c47 -95 131 -326 131 -360 0 -13 -86
-106 -239 -259 l-239 -239 -148 7 c-82 3 -183 9 -224 12 l-75 6 -17 101 c-28
174 -95 330 -189 446 l-47 56 162 163 161 162 340 -2 339 -3 45 -90z m-1534
-25 c463 -121 746 -602 626 -1065 -28 -104 -98 -243 -164 -325 -115 -141 -291
-256 -462 -302 -116 -31 -328 -30 -440 0 -307 85 -542 320 -627 627 -31 113
-31 324 0 440 86 319 345 565 670 636 112 24 280 20 397 -11z m-1940 -1070
c-173 -173 -211 -207 -217 -191 -3 10 -14 70 -24 132 -24 157 -24 435 1 588
l18 113 216 -216 216 -216 -210 -210z m3638 598 c35 -148 41 -471 13 -658 -10
-63 -21 -121 -25 -127 -4 -8 -78 59 -208 190 l-202 202 202 208 c111 114 205
207 208 207 4 0 9 -10 12 -22z m-2861 -517 c29 -169 86 -304 181 -430 l49 -64
-169 -169 -168 -168 -336 0 -336 0 -52 107 c-46 94 -105 239 -126 312 -6 21
21 52 236 267 l244 244 230 0 230 0 17 -99z m2169 83 l197 -6 227 -228 c260
-260 239 -217 180 -377 -19 -51 -59 -141 -88 -200 l-54 -108 -329 -3 -328 -2
-163 162 c-90 90 -163 166 -163 170 0 4 21 34 48 67 96 119 161 273 189 443
l17 99 35 -5 c20 -3 124 -8 232 -12z m-1719 -756 c120 -71 247 -114 396 -133
l52 -7 0 -236 0 -237 -227 -230 c-169 -171 -233 -229 -248 -227 -54 8 -271 90
-367 138 l-108 54 0 327 0 328 172 172 171 172 46 -41 c25 -22 76 -58 113 -80z
m1458 -545 l0 -333 -108 -54 c-60 -30 -164 -73 -231 -96 l-124 -42 -228 228
-229 229 0 236 0 236 83 12 c171 26 357 106 467 201 l45 38 163 -161 162 -162
0 -332z m-2040 11 l0 -295 -32 22 c-215 150 -424 358 -542 542 l-18 27 296 0
296 0 0 -296z m2700 279 c0 -3 -32 -49 -71 -101 -119 -158 -294 -323 -476
-451 l-33 -22 0 290 0 291 290 0 c160 0 290 -3 290 -7z m-1230 -834 c0 -4 -51
-15 -112 -25 -184 -29 -517 -22 -667 13 -21 5 -2 27 180 209 l204 204 197
-197 c109 -109 198 -201 198 -204z"/>
<path d="M2112 2396 c-99 -32 -172 -113 -192 -212 -37 -179 116 -349 297 -331
233 24 334 304 171 474 -62 65 -190 97 -276 69z"/>
</g>
</svg>
