<?xml version="1.0" standalone="no"?>
<!DOCTYPE svg PUBLIC "-//W3C//DTD SVG 20010904//EN"
 "http://www.w3.org/TR/2001/REC-SVG-20010904/DTD/svg10.dtd">
<svg version="1.0" xmlns="http://www.w3.org/2000/svg"
 width="500.000000pt" height="500.000000pt" viewBox="0 0 500.000000 500.000000"
 preserveAspectRatio="xMidYMid meet">
<metadata>
Created by potrace 1.16, written by Peter Selinger 2001-2019
</metadata>
<g transform="translate(0.000000,500.000000) scale(0.100000,-0.100000)"
fill="#000000" stroke="none">
<path d="M852 3984 c-33 -23 -28 -59 24 -165 41 -84 57 -105 151 -195 86 -83
123 -111 202 -151 169 -88 276 -118 458 -130 l93 -6 -7 -471 c-6 -430 -5 -472
10 -485 24 -20 61 -6 104 38 74 74 146 121 316 206 124 62 205 94 292 119 145
40 198 51 194 38 -2 -5 -254 -278 -559 -606 -305 -329 -556 -606 -558 -617 -5
-27 15 -49 43 -49 16 0 169 158 591 613 313 337 586 632 606 655 l38 42 77 0
c381 -2 617 -73 841 -253 77 -62 78 -63 148 -171 45 -68 45 -69 27 -91 -10
-13 -152 -183 -315 -378 -164 -195 -298 -363 -298 -374 0 -10 5 -24 12 -31 34
-34 51 -19 354 345 163 196 312 369 330 385 18 16 36 38 39 48 7 21 -16 67
-70 145 -19 28 -45 66 -58 86 -29 42 -169 161 -244 206 -194 118 -432 173
-752 173 -183 0 -410 -46 -611 -123 -116 -45 -350 -168 -407 -214 -30 -24 -56
-43 -59 -41 -2 2 0 184 4 404 l7 399 99 8 c145 11 270 40 383 90 126 55 169
85 286 199 83 81 101 105 141 187 53 108 57 143 22 166 -30 20 -66 6 -66 -26
0 -11 -17 -55 -37 -97 -30 -62 -55 -95 -132 -170 -187 -184 -404 -262 -732
-263 -324 -1 -538 70 -724 239 -52 48 -101 96 -109 108 -29 41 -86 163 -86
183 0 11 -9 25 -19 31 -25 13 -22 13 -49 -6z"/>
<path d="M1069 3090 c-540 -276 -534 -273 -537 -301 -2 -14 3 -30 10 -36 19
-15 780 -313 799 -313 41 0 42 14 35 388 -5 227 -11 361 -18 369 -6 7 -20 13
-33 13 -12 0 -127 -54 -256 -120z m214 -262 c4 -144 5 -264 2 -266 -6 -6 -585
221 -585 229 0 6 557 297 571 298 3 1 9 -117 12 -261z"/>
<path d="M1338 1339 c-25 -14 -24 -65 1 -79 11 -5 85 -10 168 -10 158 0 193 9
193 50 0 41 -35 50 -195 50 -83 0 -158 -5 -167 -11z"/>
<path d="M3202 1334 c-12 -8 -22 -24 -22 -34 0 -41 35 -50 197 -50 140 0 155
2 173 20 11 11 20 25 20 30 0 6 -9 19 -20 30 -18 18 -33 20 -173 20 -122 0
-157 -3 -175 -16z"/>
<path d="M1332 1103 c-22 -9 -34 -41 -22 -63 10 -19 21 -20 188 -20 183 0 202
4 202 40 0 9 -8 24 -18 33 -16 14 -43 17 -178 16 -87 0 -165 -3 -172 -6z"/>
<path d="M3195 1090 c-15 -17 -16 -24 -7 -45 l12 -25 179 0 c168 0 181 1 191
19 12 24 4 48 -21 61 -10 6 -89 10 -177 10 -146 0 -160 -2 -177 -20z"/>
</g>
</svg>
