<?xml version="1.0" standalone="no"?>
<!DOCTYPE svg PUBLIC "-//W3C//DTD SVG 20010904//EN"
 "http://www.w3.org/TR/2001/REC-SVG-20010904/DTD/svg10.dtd">
<svg version="1.0" xmlns="http://www.w3.org/2000/svg"
 width="150.000000pt" height="150.000000pt" viewBox="0 0 150.000000 150.000000"
 preserveAspectRatio="xMidYMid meet">
<metadata>
Created by potrace 1.16, written by Peter Selinger 2001-2019
</metadata>
<g transform="translate(0.000000,150.000000) scale(0.100000,-0.100000)"
fill="#000000" stroke="none">
<path d="M198 1177 c-23 -19 -98 -134 -98 -151 0 -15 139 -116 159 -116 6 0
18 11 27 25 9 14 20 25 25 25 5 0 59 -32 119 -71 102 -66 109 -72 98 -92 -6
-12 -44 -80 -85 -150 -61 -104 -72 -131 -63 -143 10 -11 46 -14 181 -14 l169
0 0 -134 0 -135 -37 -3 -38 -3 0 -100 0 -100 100 0 100 0 0 100 0 100 -31 3
-31 3 -6 121 c-3 67 -3 127 0 134 4 11 42 14 178 14 137 0 175 3 184 14 10 12
-5 44 -75 166 -48 83 -85 152 -83 154 2 1 56 35 119 74 l115 72 20 -25 c12
-14 25 -25 30 -25 14 0 154 94 159 106 7 17 -91 164 -109 164 -17 0 -149 -82
-160 -99 -3 -6 3 -26 14 -44 l20 -33 -112 -67 c-62 -37 -117 -67 -123 -67 -5
0 -48 66 -94 148 -65 112 -90 147 -105 147 -15 0 -41 -36 -107 -150 -52 -90
-92 -149 -100 -147 -17 4 -208 123 -214 134 -3 4 2 19 11 32 9 14 14 30 10 36
-3 6 -39 33 -79 60 -60 40 -76 47 -88 37z m643 -204 c81 -141 80 -122 4 -176
-57 -40 -13 -71 46 -32 21 14 42 25 47 25 7 0 30 -37 112 -182 l32 -58 -150 0
-151 0 -3 43 c-2 34 -7 42 -23 42 -16 0 -21 -8 -23 -42 l-3 -43 -141 0 -140 0
32 58 c18 31 49 85 68 119 l36 63 34 -21 c19 -11 41 -18 48 -15 24 9 15 41
-16 59 -16 10 -30 23 -30 29 0 11 139 258 145 258 2 0 36 -57 76 -127z"/>
</g>
</svg>
