<?xml version="1.0" standalone="no"?>
<!DOCTYPE svg PUBLIC "-//W3C//DTD SVG 20010904//EN"
 "http://www.w3.org/TR/2001/REC-SVG-20010904/DTD/svg10.dtd">
<svg version="1.0" xmlns="http://www.w3.org/2000/svg"
 width="500.000000pt" height="500.000000pt" viewBox="0 0 500.000000 500.000000"
 preserveAspectRatio="xMidYMid meet">
<metadata>
Created by potrace 1.16, written by Peter Selinger 2001-2019
</metadata>
<g transform="translate(0.000000,500.000000) scale(0.100000,-0.100000)"
fill="#000000" stroke="none">
<path d="M2877 3785 c-17 -16 -19 -31 -42 -225 -9 -74 -18 -145 -20 -157 -4
-16 -84 -70 -303 -204 -163 -100 -300 -184 -304 -186 -8 -4 -230 269 -231 283
0 5 38 32 84 60 60 36 85 57 87 73 4 27 -14 51 -39 51 -10 0 -219 -118 -466
-263 -360 -211 -449 -267 -451 -285 -4 -28 14 -52 39 -52 11 0 161 83 335 185
173 102 318 185 322 184 4 0 57 -64 119 -142 84 -107 108 -145 100 -153 -7 -7
-200 -127 -431 -268 l-418 -256 -307 40 c-168 23 -316 38 -328 35 -24 -6 -37
-33 -27 -58 9 -24 47 -31 334 -67 140 -17 265 -35 276 -40 12 -5 45 -49 75
-102 29 -51 104 -180 166 -287 l113 -194 8 -141 c5 -78 6 -144 3 -148 -3 -4
-69 -23 -146 -43 -77 -21 -146 -42 -152 -47 -18 -14 -16 -53 2 -68 22 -18 -45
-34 760 179 361 96 388 107 364 152 -6 11 -16 22 -24 25 -7 3 -168 -35 -356
-85 -189 -50 -345 -88 -347 -86 -8 7 -20 270 -13 276 10 10 1500 371 1516 367
8 -2 140 -126 294 -275 154 -150 287 -273 295 -273 20 0 46 28 46 50 0 11
-116 132 -284 297 l-285 278 126 257 125 256 87 6 c47 3 131 8 187 12 l101 6
7 -178 c4 -99 12 -185 18 -191 6 -7 21 -13 33 -13 45 0 49 18 42 208 l-7 178
236 12 c144 7 242 16 250 23 18 15 18 53 -1 69 -12 10 -110 7 -487 -13 l-473
-25 -80 77 c-44 42 -174 167 -290 279 l-209 202 22 182 c26 217 26 203 6 222
-19 20 -38 20 -57 1z m315 -810 l217 -210 -130 -266 -131 -265 -770 -188
c-423 -103 -771 -186 -772 -184 -27 30 -283 495 -277 501 4 4 349 217 766 472
l758 465 61 -57 c34 -32 159 -152 278 -268z"/>
</g>
</svg>
