<?xml version="1.0" standalone="no"?>
<!DOCTYPE svg PUBLIC "-//W3C//DTD SVG 20010904//EN"
 "http://www.w3.org/TR/2001/REC-SVG-20010904/DTD/svg10.dtd">
<svg version="1.0" xmlns="http://www.w3.org/2000/svg"
 width="150.000000pt" height="150.000000pt" viewBox="0 0 150.000000 150.000000"
 preserveAspectRatio="xMidYMid meet">
<metadata>
Created by potrace 1.16, written by Peter Selinger 2001-2019
</metadata>
<g transform="translate(0.000000,150.000000) scale(0.100000,-0.100000)"
fill="#000000" stroke="none">
<path d="M797 1300 c-43 -8 -104 -54 -129 -96 -27 -47 -51 -153 -46 -209 3
-39 26 -95 92 -231 112 -228 119 -248 106 -332 -19 -119 -72 -182 -151 -182
-21 0 -42 -7 -50 -16 -21 -25 14 -45 65 -38 118 18 190 125 191 284 0 74 -1
76 -89 255 -112 229 -119 249 -106 333 19 117 73 182 152 182 47 0 71 26 43
46 -20 15 -22 15 -78 4z"/>
<path d="M1030 1023 c-19 -10 -45 -34 -58 -53 -21 -30 -23 -43 -17 -91 6 -58
96 -394 109 -406 21 -21 43 25 88 181 59 209 67 269 39 313 -40 63 -104 85
-161 56z m98 -59 c18 -12 22 -25 22 -66 0 -54 -57 -288 -70 -288 -13 0 -70
234 -70 288 0 57 22 82 70 82 14 0 36 -7 48 -16z"/>
<path d="M403 1018 c-16 -20 -102 -337 -108 -398 -5 -45 -2 -61 14 -87 57 -90
165 -90 222 0 16 26 19 42 14 89 -5 45 -60 259 -101 391 -6 20 -27 22 -41 5z
m56 -246 c38 -145 41 -214 9 -236 -12 -9 -34 -16 -48 -16 -48 0 -70 25 -70 82
0 54 57 288 70 288 4 0 22 -53 39 -118z"/>
</g>
</svg>
