<?xml version="1.0" standalone="no"?>
<!DOCTYPE svg PUBLIC "-//W3C//DTD SVG 20010904//EN"
 "http://www.w3.org/TR/2001/REC-SVG-20010904/DTD/svg10.dtd">
<svg version="1.0" xmlns="http://www.w3.org/2000/svg"
 width="150.000000pt" height="150.000000pt" viewBox="0 0 150.000000 150.000000"
 preserveAspectRatio="xMidYMid meet">
<metadata>
Created by potrace 1.16, written by Peter Selinger 2001-2019
</metadata>
<g transform="translate(0.000000,150.000000) scale(0.100000,-0.100000)"
fill="#000000" stroke="none">
<path d="M825 1370 c-11 -4 -37 -26 -57 -48 -40 -45 -58 -106 -58 -202 0 -48
-4 -61 -19 -70 -27 -14 -34 -44 -21 -82 11 -31 8 -40 -53 -153 -55 -101 -69
-120 -91 -123 -32 -4 -66 -46 -66 -81 0 -57 -95 -111 -192 -111 -80 0 -127 37
-128 98 0 60 32 92 71 72 25 -14 24 -28 -3 -32 -15 -2 -23 -10 -23 -23 0 -15
8 -21 31 -23 63 -6 87 66 39 113 -37 38 -88 34 -131 -9 -31 -31 -34 -39 -34
-95 0 -53 4 -65 30 -95 32 -35 101 -66 151 -66 44 0 147 36 183 64 29 22 38
24 63 15 36 -12 77 1 93 31 10 19 20 20 145 20 79 0 136 -4 140 -10 3 -6 20
-17 38 -26 29 -15 33 -15 64 1 29 16 39 17 74 6 108 -33 183 -168 132 -241
-22 -33 -33 -40 -64 -40 -29 0 -49 17 -49 41 0 25 16 32 39 17 28 -17 51 4 35
30 -18 28 -61 39 -91 22 -38 -22 -48 -61 -27 -106 36 -76 135 -80 191 -8 35
47 44 134 18 185 -28 56 -104 126 -160 149 -41 16 -54 28 -63 54 -8 20 -24 38
-43 47 -24 11 -45 39 -92 124 -54 98 -60 115 -58 162 2 49 0 53 -40 85 l-41
33 7 70 c8 83 25 119 68 145 39 24 68 25 107 5 32 -16 38 -33 18 -53 -18 -18
-26 -15 -30 11 -5 34 -42 30 -46 -6 -7 -62 66 -90 113 -42 45 44 27 114 -37
139 -41 17 -100 20 -133 6z m-37 -374 c7 -34 -35 -47 -63 -20 -12 13 -13 19
-4 31 17 20 63 13 67 -11z m63 -202 l57 -107 -21 -34 -22 -33 -121 0 c-120 0
-121 0 -133 26 -10 23 -5 37 51 144 52 99 67 120 88 122 14 2 29 0 34 -4 5 -4
35 -56 67 -114z m-285 -180 c8 -30 -6 -47 -32 -42 -35 6 -30 68 5 68 14 0 23
-9 27 -26z m419 -4 c0 -31 -33 -40 -52 -14 -16 22 1 46 31 42 15 -2 21 -10 21
-28z"/>
</g>
</svg>
