<?xml version="1.0" standalone="no"?>
<!DOCTYPE svg PUBLIC "-//W3C//DTD SVG 20010904//EN"
 "http://www.w3.org/TR/2001/REC-SVG-20010904/DTD/svg10.dtd">
<svg version="1.0" xmlns="http://www.w3.org/2000/svg"
 width="150.000000pt" height="150.000000pt" viewBox="0 0 150.000000 150.000000"
 preserveAspectRatio="xMidYMid meet">
<metadata>
Created by potrace 1.16, written by Peter Selinger 2001-2019
</metadata>
<g transform="translate(0.000000,150.000000) scale(0.100000,-0.100000)"
fill="#000000" stroke="none">
<path d="M667 1284 c-56 -17 -122 -78 -152 -139 -15 -30 -20 -59 -19 -115 1
-129 29 -163 263 -319 146 -96 176 -125 191 -181 31 -117 -33 -233 -147 -266
-103 -30 -190 4 -232 90 -22 45 -23 53 -12 95 19 73 40 95 93 99 40 3 49 -1
67 -24 28 -35 27 -47 -9 -87 -34 -39 -39 -67 -12 -67 48 0 98 77 88 134 -8 42
-54 85 -102 96 -74 17 -120 -10 -160 -95 -32 -68 -30 -111 9 -186 26 -51 41
-67 78 -86 192 -99 415 46 396 258 -10 114 -42 148 -293 318 -151 102 -168
124 -168 220 0 74 15 110 66 157 50 47 77 58 148 58 99 0 156 -39 182 -125 13
-46 1 -100 -33 -143 -16 -21 -29 -26 -63 -26 -76 0 -104 65 -52 119 14 15 26
35 26 44 0 28 -34 20 -68 -16 -42 -43 -50 -91 -23 -134 29 -46 62 -64 120 -65
60 -2 89 20 127 94 38 74 28 152 -28 231 -45 64 -182 93 -281 61z"/>
<path d="M190 992 c0 -26 125 -146 144 -139 28 11 18 31 -47 95 -63 62 -97 78
-97 44z"/>
<path d="M1212 947 c-64 -65 -73 -83 -46 -94 19 -7 144 113 144 139 0 34 -36
18 -98 -45z"/>
<path d="M102 771 c-8 -5 -12 -17 -10 -27 3 -17 16 -19 158 -22 85 -1 165 0
178 3 26 6 30 40 6 49 -24 9 -317 7 -332 -3z"/>
<path d="M1063 773 c-22 -8 -15 -42 10 -48 12 -3 92 -4 177 -3 142 3 155 5
158 22 2 10 -2 22 -10 27 -14 9 -314 11 -335 2z"/>
<path d="M248 583 c-63 -66 -75 -93 -39 -93 25 0 145 125 138 144 -11 28 -31
18 -99 -51z"/>
<path d="M1153 634 c-7 -19 113 -144 138 -144 37 0 25 30 -40 94 -68 68 -87
78 -98 50z"/>
</g>
</svg>
