<?xml version="1.0" standalone="no"?>
<!DOCTYPE svg PUBLIC "-//W3C//DTD SVG 20010904//EN"
 "http://www.w3.org/TR/2001/REC-SVG-20010904/DTD/svg10.dtd">
<svg version="1.0" xmlns="http://www.w3.org/2000/svg"
 width="150.000000pt" height="150.000000pt" viewBox="0 0 150.000000 150.000000"
 preserveAspectRatio="xMidYMid meet">
<metadata>
Created by potrace 1.16, written by Peter Selinger 2001-2019
</metadata>
<g transform="translate(0.000000,150.000000) scale(0.100000,-0.100000)"
fill="#000000" stroke="none">
<path d="M664 1291 c-53 -24 -118 -83 -134 -120 -7 -18 -34 -43 -70 -65 -72
-45 -167 -147 -208 -223 -98 -187 -80 -347 57 -483 54 -55 183 -130 221 -130
10 0 29 -10 44 -21 40 -32 120 -59 171 -59 82 0 166 49 215 127 17 26 52 59
86 82 84 53 168 151 217 250 41 82 42 87 42 185 0 92 -3 106 -29 155 -41 79
-127 160 -215 204 -40 20 -81 37 -91 37 -10 0 -29 10 -44 21 -72 56 -187 74
-262 40z m193 -60 c67 -33 98 -139 65 -218 -17 -39 -78 -83 -115 -83 -36 0
-90 23 -116 49 -54 54 -5 161 73 161 39 0 76 -28 76 -58 0 -39 -58 -86 -61
-49 -1 6 -2 19 -3 27 0 8 -11 16 -23 18 -17 3 -24 -3 -29 -23 -14 -57 60 -105
115 -75 33 17 54 68 48 112 -14 108 -145 138 -228 52 -28 -29 -33 -42 -37 -94
-4 -53 -1 -64 22 -94 33 -44 100 -76 158 -76 36 0 57 8 96 34 46 31 53 33 71
19 57 -39 69 -155 26 -229 -14 -24 -33 -47 -41 -52 -12 -7 -56 21 -183 117
-91 69 -174 135 -183 146 -43 51 -44 186 -2 250 16 24 80 74 114 88 27 12 117
-1 157 -22z m191 -88 c69 -34 151 -114 183 -179 32 -68 33 -175 1 -260 -29
-76 -112 -187 -177 -236 l-50 -38 -3 28 c-3 24 9 41 71 103 61 62 76 84 92
134 23 74 23 175 1 243 -19 57 -84 123 -141 143 -27 10 -35 20 -43 51 -12 46
-8 47 66 11z m-605 -187 c-116 -107 -152 -234 -111 -386 14 -54 86 -131 140
-150 30 -11 38 -20 43 -48 3 -19 4 -36 2 -39 -3 -2 -33 10 -68 27 -73 38 -148
110 -180 177 -33 69 -33 175 1 261 32 80 110 185 175 234 l50 38 3 -30 c3 -25
-6 -38 -55 -84z m599 55 c59 -38 80 -78 86 -167 6 -98 -15 -165 -73 -231 -48
-55 -69 -64 -79 -37 -4 10 8 32 34 61 41 47 70 121 70 177 0 43 -41 127 -76
156 -19 17 -28 32 -26 48 4 28 9 28 64 -7z m-518 -87 c4 -10 -8 -32 -34 -61
-41 -47 -70 -121 -70 -177 0 -43 41 -127 77 -157 24 -20 28 -29 22 -48 l-9
-22 -40 22 c-22 13 -48 31 -56 40 -43 47 -57 173 -29 265 15 51 95 154 120
154 7 0 16 -7 19 -16z m205 -189 c197 -146 216 -172 215 -275 -2 -81 -27 -136
-81 -173 -54 -37 -98 -50 -145 -43 -98 16 -149 70 -152 165 -1 62 18 104 63
135 115 80 268 -58 172 -155 -69 -68 -188 2 -124 73 23 26 41 22 45 -9 4 -40
45 -45 54 -8 14 57 -60 105 -115 75 -33 -17 -54 -68 -48 -112 14 -108 145
-138 228 -52 28 29 33 42 37 94 4 53 1 64 -22 94 -32 43 -100 76 -155 76 -43
0 -107 -27 -130 -54 -17 -21 -45 -6 -71 37 -23 36 -27 134 -9 170 16 30 59 87
66 87 3 0 81 -56 172 -125z"/>
</g>
</svg>
