<svg xmlns="http://www.w3.org/2000/svg" viewBox="0 0 300 300">
  <g fill="none" stroke="#2b2117" stroke-linecap="round" stroke-linejoin="round">
    <circle cx="150" cy="150" r="128" stroke-width="7"/>
    <circle cx="150" cy="150" r="96" stroke="#93e0c2" stroke-width="3"/>
    <path d="M118 86c-8 42-11 75-9 99 2 22 20 34 48 27M182 86c8 42 11 75 9 99-2 22-20 34-48 27" stroke-width="7"/>
    <path d="M86 128c18 0 30-8 38-24M214 128c-18 0-30-8-38-24M77 160c20 0 32-7 39-20M223 160c-20 0-32-7-39-20" stroke="#93e0c2" stroke-width="7"/>
    <path d="m132 77 18-22 18 22M132 223l18 22 18-22" stroke-width="5"/>
  </g>
</svg>
