<?xml version="1.0" standalone="no"?>
<!DOCTYPE svg PUBLIC "-//W3C//DTD SVG 20010904//EN"
 "http://www.w3.org/TR/2001/REC-SVG-20010904/DTD/svg10.dtd">
<svg version="1.0" xmlns="http://www.w3.org/2000/svg"
 width="70.000000pt" height="70.000000pt" viewBox="0 0 70.000000 70.000000"
 preserveAspectRatio="xMidYMid meet">
<metadata>
Created by potrace 1.16, written by Peter Selinger 2001-2019
</metadata>
<g transform="translate(0.000000,70.000000) scale(0.100000,-0.100000)"
fill="#000000" stroke="none">
<path d="M330 380 c0 -144 2 -170 15 -170 13 0 15 26 15 170 0 144 -2 170 -15
170 -13 0 -15 -26 -15 -170z"/>
<path d="M200 378 c0 -33 53 -168 66 -168 18 0 18 0 -13 97 -15 47 -33 83 -40
83 -7 0 -13 -6 -13 -12z"/>
<path d="M463 358 c-16 -21 -64 -140 -59 -146 3 -2 11 -2 18 1 19 7 71 138 60
149 -5 5 -13 4 -19 -4z"/>
</g>
</svg>
