<?xml version="1.0" standalone="no"?>
<!DOCTYPE svg PUBLIC "-//W3C//DTD SVG 20010904//EN"
 "http://www.w3.org/TR/2001/REC-SVG-20010904/DTD/svg10.dtd">
<svg version="1.0" xmlns="http://www.w3.org/2000/svg"
 width="70.000000pt" height="70.000000pt" viewBox="0 0 70.000000 70.000000"
 preserveAspectRatio="xMidYMid meet">
<metadata>
Created by potrace 1.16, written by Peter Selinger 2001-2019
</metadata>
<g transform="translate(0.000000,70.000000) scale(0.100000,-0.100000)"
fill="#000000" stroke="none">
<path d="M312 615 c-42 -18 -65 -69 -52 -115 5 -17 21 -52 36 -78 l27 -46 -54
31 c-30 16 -65 33 -78 36 -37 9 -89 -17 -107 -56 -14 -30 -14 -37 0 -70 10
-26 26 -42 49 -52 39 -16 67 -11 135 24 23 12 42 18 42 14 0 -5 -11 -26 -23
-49 -13 -22 -26 -51 -30 -64 -9 -36 17 -88 56 -106 30 -14 37 -14 70 0 26 10
42 26 52 49 16 39 11 67 -24 135 l-22 43 43 -22 c23 -12 55 -25 71 -30 42 -12
93 12 113 54 14 30 14 37 0 70 -11 27 -26 42 -52 53 -34 14 -38 14 -101 -15
-36 -17 -67 -31 -69 -31 -3 0 5 19 17 42 35 68 40 96 24 134 -7 18 -27 40 -44
48 -36 19 -37 19 -79 1z m82 -41 c9 -8 16 -27 16 -41 0 -28 -48 -143 -60 -143
-12 0 -60 115 -60 143 0 34 25 57 60 57 16 0 36 -7 44 -16z m-143 -190 c33
-15 59 -29 59 -33 0 -3 -24 -18 -53 -33 -86 -46 -147 -32 -147 32 0 64 49 75
141 34z m323 10 c20 -20 20 -68 0 -88 -23 -23 -61 -20 -128 12 l-60 28 55 31
c60 35 109 41 133 17z m-164 -221 c0 -39 -22 -63 -60 -63 -67 0 -77 67 -25
157 l28 46 28 -54 c15 -30 28 -68 29 -86z"/>
</g>
</svg>
