<?xml version="1.0" standalone="no"?>
<!DOCTYPE svg PUBLIC "-//W3C//DTD SVG 20010904//EN"
 "http://www.w3.org/TR/2001/REC-SVG-20010904/DTD/svg10.dtd">
<svg version="1.0" xmlns="http://www.w3.org/2000/svg"
 width="70.000000pt" height="70.000000pt" viewBox="0 0 70.000000 70.000000"
 preserveAspectRatio="xMidYMid meet">
<metadata>
Created by potrace 1.16, written by Peter Selinger 2001-2019
</metadata>
<g transform="translate(0.000000,70.000000) scale(0.100000,-0.100000)"
fill="#000000" stroke="none">
<path d="M305 655 c-30 -29 -31 -58 -6 -108 19 -37 19 -38 -2 -76 -21 -38 -21
-40 -4 -95 16 -51 17 -58 3 -78 -20 -28 -21 -94 -2 -130 13 -24 12 -26 -10
-31 -23 -4 -24 -2 -24 59 0 50 -3 64 -15 64 -12 0 -15 -14 -15 -65 0 -67 -5
-74 -44 -59 -12 5 -16 21 -16 65 0 45 -3 59 -15 59 -10 0 -15 -15 -17 -56 l-3
-56 -23 19 c-13 10 -27 34 -31 52 -10 51 -31 52 -31 1 0 -34 6 -47 31 -71 17
-16 37 -29 45 -29 10 0 14 -13 14 -45 0 -33 4 -45 15 -45 10 0 15 11 15 35 0
32 2 35 30 35 28 0 30 -3 30 -35 0 -24 5 -35 15 -35 10 0 15 11 15 35 0 21 5
35 13 35 6 0 22 3 35 6 20 6 22 3 22 -35 0 -30 4 -41 15 -41 11 0 15 11 15 40
0 39 1 40 28 34 49 -10 52 -13 52 -44 0 -20 5 -30 15 -30 10 0 15 10 15 29 0
26 14 41 41 41 5 0 9 -16 9 -35 0 -24 5 -35 15 -35 11 0 15 11 15 38 0 29 5
39 22 47 28 13 55 60 60 104 4 42 -19 54 -27 14 -11 -49 -26 -81 -41 -87 -11
-4 -14 7 -14 54 0 47 -3 60 -15 60 -12 0 -15 -14 -15 -64 0 -60 -1 -64 -25
-68 -25 -5 -25 -4 -25 63 0 55 -3 69 -15 69 -12 0 -15 -14 -15 -65 0 -67 -5
-74 -44 -59 -14 5 -14 8 -1 27 8 12 15 42 15 67 0 37 -5 51 -26 69 l-26 23 26
27 c32 34 35 91 6 139 l-20 33 20 29 c26 36 26 84 0 110 -27 27 -56 25 -85 -5z
m75 -41 c0 -21 -28 -74 -39 -74 -5 0 -15 16 -21 36 -10 30 -9 38 5 54 14 15
22 17 36 9 11 -5 19 -17 19 -25z m0 -199 c0 -19 -8 -39 -20 -50 -19 -17 -20
-17 -36 20 -15 36 -15 42 1 74 l17 36 19 -24 c10 -13 19 -38 19 -56z m-12
-137 c15 -15 16 -84 2 -93 -6 -4 -10 10 -10 34 0 30 -4 41 -15 41 -11 0 -15
-11 -15 -42 0 -32 -3 -39 -10 -28 -11 17 -13 61 -4 84 7 19 35 21 52 4z"/>
</g>
</svg>
