<?xml version="1.0" standalone="no"?>
<!DOCTYPE svg PUBLIC "-//W3C//DTD SVG 20010904//EN"
 "http://www.w3.org/TR/2001/REC-SVG-20010904/DTD/svg10.dtd">
<svg version="1.0" xmlns="http://www.w3.org/2000/svg"
 width="70.000000pt" height="70.000000pt" viewBox="0 0 70.000000 70.000000"
 preserveAspectRatio="xMidYMid meet">
<metadata>
Created by potrace 1.16, written by Peter Selinger 2001-2019
</metadata>
<g transform="translate(0.000000,70.000000) scale(0.100000,-0.100000)"
fill="#000000" stroke="none">
<path d="M205 509 c-4 -5 17 -38 46 -72 29 -34 58 -69 65 -77 11 -13 3 -28
-52 -93 -36 -42 -62 -82 -59 -88 10 -16 18 -9 83 69 l61 72 57 -67 c31 -38 63
-69 70 -71 28 -7 12 25 -46 92 -51 60 -58 72 -47 85 7 9 37 44 66 78 29 34 50
67 46 73 -9 14 -282 14 -290 -1z m214 -56 c-13 -16 -34 -40 -47 -55 l-24 -26
-31 36 c-67 80 -71 72 33 72 l93 0 -24 -27z"/>
</g>
</svg>
