<?xml version="1.0" standalone="no"?>
<!DOCTYPE svg PUBLIC "-//W3C//DTD SVG 20010904//EN"
 "http://www.w3.org/TR/2001/REC-SVG-20010904/DTD/svg10.dtd">
<svg version="1.0" xmlns="http://www.w3.org/2000/svg"
 width="70.000000pt" height="70.000000pt" viewBox="0 0 70.000000 70.000000"
 preserveAspectRatio="xMidYMid meet">
<metadata>
Created by potrace 1.16, written by Peter Selinger 2001-2019
</metadata>
<g transform="translate(0.000000,70.000000) scale(0.100000,-0.100000)"
fill="#000000" stroke="none">
<path d="M330 350 c0 -180 2 -210 15 -210 13 0 15 30 15 210 0 180 -2 210 -15
210 -13 0 -15 -30 -15 -210z"/>
<path d="M211 480 c-16 -9 -6 -30 15 -30 15 0 20 25 6 34 -4 2 -14 1 -21 -4z"/>
<path d="M459 474 c-10 -13 -10 -17 1 -24 17 -10 30 -4 30 15 0 22 -16 26 -31
9z"/>
<path d="M210 244 c-9 -10 -10 -18 -2 -26 12 -12 32 -2 32 17 0 21 -16 26 -30
9z"/>
<path d="M455 240 c-10 -16 16 -43 28 -31 11 11 2 41 -12 41 -5 0 -13 -5 -16
-10z"/>
</g>
</svg>
