<?xml version="1.0" standalone="no"?>
<!DOCTYPE svg PUBLIC "-//W3C//DTD SVG 20010904//EN"
 "http://www.w3.org/TR/2001/REC-SVG-20010904/DTD/svg10.dtd">
<svg version="1.0" xmlns="http://www.w3.org/2000/svg"
 width="70.000000pt" height="70.000000pt" viewBox="0 0 70.000000 70.000000"
 preserveAspectRatio="xMidYMid meet">
<metadata>
Created by potrace 1.16, written by Peter Selinger 2001-2019
</metadata>
<g transform="translate(0.000000,70.000000) scale(0.100000,-0.100000)"
fill="#000000" stroke="none">
<path d="M334 587 c-10 -28 1 -190 14 -195 9 -3 12 22 12 102 0 66 -4 106 -10
106 -6 0 -13 -6 -16 -13z"/>
<path d="M165 360 c-14 -23 12 -31 79 -24 42 4 65 11 63 18 -5 15 -133 20
-142 6z"/>
<path d="M432 363 c-72 -7 -46 -28 34 -28 55 0 69 3 69 15 0 16 -29 20 -103
13z"/>
<path d="M340 205 c0 -81 3 -106 13 -102 8 2 12 32 12 102 0 70 -4 100 -12
103 -10 3 -13 -22 -13 -103z"/>
</g>
</svg>
