<?xml version="1.0" standalone="no"?>
<!DOCTYPE svg PUBLIC "-//W3C//DTD SVG 20010904//EN"
 "http://www.w3.org/TR/2001/REC-SVG-20010904/DTD/svg10.dtd">
<svg version="1.0" xmlns="http://www.w3.org/2000/svg"
 width="70.000000pt" height="70.000000pt" viewBox="0 0 70.000000 70.000000"
 preserveAspectRatio="xMidYMid meet">
<metadata>
Created by potrace 1.16, written by Peter Selinger 2001-2019
</metadata>
<g transform="translate(0.000000,70.000000) scale(0.100000,-0.100000)"
fill="#000000" stroke="none">
<path d="M227 663 c-11 -10 -8 -23 6 -23 6 0 30 -5 51 -11 33 -9 37 -13 23
-21 -9 -5 -17 -15 -17 -23 0 -7 -20 -24 -44 -38 l-44 -25 -28 29 c-15 16 -34
29 -41 29 -22 0 -15 -25 16 -54 l29 -28 -25 -44 c-14 -24 -31 -44 -38 -44 -8
0 -18 -8 -23 -17 -8 -14 -12 -10 -21 23 -6 21 -11 45 -11 52 0 6 -5 12 -10 12
-20 0 -22 -31 -6 -80 15 -46 15 -54 0 -100 -16 -49 -14 -80 6 -80 5 0 10 8 10
19 0 10 5 33 11 51 10 27 13 30 21 16 5 -9 15 -16 23 -16 7 0 24 -20 38 -43
l24 -44 -29 -32 c-48 -54 -25 -75 26 -22 l28 29 44 -25 c24 -14 44 -31 44 -38
0 -8 8 -18 17 -23 14 -8 10 -12 -23 -21 -21 -6 -45 -11 -51 -11 -7 0 -13 -5
-13 -10 0 -20 31 -22 80 -6 46 15 54 15 100 0 49 -16 80 -14 80 6 0 5 -8 10
-19 10 -10 0 -33 5 -51 11 -27 10 -30 13 -16 21 9 5 16 15 16 23 0 7 20 24 44
38 l44 25 28 -29 c15 -16 34 -29 41 -29 22 0 15 25 -16 54 l-29 28 25 44 c14
24 31 44 38 44 8 0 18 7 23 16 8 14 11 11 21 -16 6 -18 11 -41 11 -51 0 -11 5
-19 10 -19 20 0 22 31 6 80 -15 46 -15 54 0 100 16 49 14 80 -6 80 -5 0 -10
-6 -10 -12 0 -7 -5 -31 -11 -52 -9 -33 -13 -37 -21 -23 -5 9 -15 17 -23 17 -7
0 -24 20 -38 44 l-25 44 29 28 c31 29 38 54 16 54 -7 0 -26 -13 -41 -29 l-28
-29 -44 25 c-24 14 -44 31 -44 38 0 8 -8 18 -17 23 -14 8 -10 12 23 21 21 6
45 11 52 11 6 0 12 5 12 10 0 20 -31 22 -80 6 -46 -15 -55 -15 -96 -1 -49 16
-67 18 -77 8z m143 -77 c6 -8 10 -25 8 -38 -2 -17 -10 -23 -28 -23 -18 0 -26
6 -28 23 -3 22 13 52 28 52 4 0 13 -7 20 -14z m-63 -76 c14 -11 33 -20 43 -20
10 0 29 9 43 20 14 11 29 20 33 20 16 0 75 -53 89 -81 15 -28 14 -31 -5 -56
-26 -33 -25 -54 2 -88 20 -26 20 -29 5 -54 -8 -14 -32 -39 -52 -56 -30 -24
-39 -27 -53 -17 -54 38 -70 38 -124 0 -14 -10 -23 -7 -53 17 -20 17 -44 42
-52 56 -15 25 -15 28 5 54 27 34 28 55 2 88 -19 24 -20 28 -6 56 15 28 73 81
89 81 5 0 20 -9 34 -20z m-132 -160 c0 -19 -6 -26 -26 -28 -34 -4 -57 22 -39
44 8 8 25 14 39 12 20 -2 26 -9 26 -28z m415 15 c17 -20 -3 -45 -37 -45 -13 0
-26 7 -29 15 -10 25 4 45 29 45 14 0 30 -7 37 -15z m-212 -216 c4 -34 -22 -57
-43 -39 -16 13 -20 51 -8 64 16 16 48 1 51 -25z"/>
</g>
</svg>
