<?xml version="1.0" standalone="no"?>
<!DOCTYPE svg PUBLIC "-//W3C//DTD SVG 20010904//EN"
 "http://www.w3.org/TR/2001/REC-SVG-20010904/DTD/svg10.dtd">
<svg version="1.0" xmlns="http://www.w3.org/2000/svg"
 width="70.000000pt" height="70.000000pt" viewBox="0 0 70.000000 70.000000"
 preserveAspectRatio="xMidYMid meet">
<metadata>
Created by potrace 1.16, written by Peter Selinger 2001-2019
</metadata>
<g transform="translate(0.000000,70.000000) scale(0.100000,-0.100000)"
fill="#000000" stroke="none">
<path d="M43 644 c-2 -5 -2 -62 -1 -125 2 -93 6 -114 18 -114 12 0 16 20 18
107 l3 107 107 3 c87 2 107 6 107 18 0 13 -20 15 -124 15 -78 0 -125 -4 -128
-11z"/>
<path d="M405 650 c-14 -23 11 -30 110 -30 l104 0 3 -107 c2 -88 6 -108 18
-108 13 0 15 20 13 125 l-2 125 -120 3 c-74 2 -122 -1 -126 -8z"/>
<path d="M104 587 c-10 -27 1 -180 13 -184 9 -3 13 19 15 79 l3 83 83 3 c60 2
82 6 79 15 -6 18 -186 22 -193 4z"/>
<path d="M407 594 c-18 -18 -1 -23 76 -26 l82 -3 3 -83 c2 -60 6 -82 15 -79 8
2 12 33 12 98 l0 94 -90 3 c-50 1 -94 0 -98 -4z"/>
<path d="M164 527 c-10 -26 0 -120 14 -125 8 -3 12 12 12 52 l0 56 56 0 c40 0
55 3 52 13 -7 18 -127 22 -134 4z"/>
<path d="M407 534 c-17 -17 -3 -24 48 -24 l55 0 0 -56 c0 -40 3 -55 13 -51 8
2 12 25 12 68 l0 64 -60 3 c-34 2 -64 0 -68 -4z"/>
<path d="M46 291 c-4 -6 -5 -63 -2 -128 l4 -117 124 3 c68 1 125 4 127 6 1 2
0 8 -4 14 -4 7 -47 11 -110 11 l-104 0 -3 107 c-2 69 -7 108 -15 110 -6 2 -14
-1 -17 -6z"/>
<path d="M104 287 c-3 -8 -4 -52 -2 -98 l3 -84 94 0 c65 0 96 4 98 12 3 9 -19
13 -79 15 l-83 3 -3 83 c-3 74 -14 104 -28 69z"/>
<path d="M164 286 c-3 -7 -4 -38 -2 -67 l3 -54 64 0 c43 0 66 4 69 13 3 9 -12
12 -52 12 l-56 0 0 55 c0 51 -14 73 -26 41z"/>
<path d="M510 246 l0 -56 -56 0 c-40 0 -55 -3 -51 -12 2 -9 25 -13 68 -13 l64
0 0 64 c0 43 -4 66 -12 69 -10 3 -13 -12 -13 -52z"/>
<path d="M568 218 l-3 -83 -83 -3 c-60 -2 -82 -6 -79 -15 2 -8 33 -12 98 -12
l94 0 0 94 c0 65 -4 96 -12 98 -9 3 -13 -19 -15 -79z"/>
<path d="M627 294 c-4 -4 -7 -54 -7 -110 l0 -103 -107 -3 c-88 -2 -108 -6
-108 -18 0 -13 20 -15 125 -14 l125 0 0 124 c0 115 -7 145 -28 124z"/>
</g>
</svg>
