<?xml version="1.0" standalone="no"?>
<!DOCTYPE svg PUBLIC "-//W3C//DTD SVG 20010904//EN"
 "http://www.w3.org/TR/2001/REC-SVG-20010904/DTD/svg10.dtd">
<svg version="1.0" xmlns="http://www.w3.org/2000/svg"
 width="70.000000pt" height="70.000000pt" viewBox="0 0 70.000000 70.000000"
 preserveAspectRatio="xMidYMid meet">
<metadata>
Created by potrace 1.16, written by Peter Selinger 2001-2019
</metadata>
<g transform="translate(0.000000,70.000000) scale(0.100000,-0.100000)"
fill="#000000" stroke="none">
<path d="M210 515 l0 -75 60 0 60 0 0 -150 0 -150 -45 0 -44 0 -3 63 c-4 88
-22 77 -26 -15 l-3 -78 141 0 140 0 0 75 c0 60 -3 75 -15 75 -12 0 -15 -13
-15 -60 l0 -60 -50 0 -50 0 0 150 0 150 65 0 65 0 0 75 c0 60 -3 75 -15 75
-12 0 -15 -13 -15 -60 l0 -60 -110 0 -110 0 0 60 c0 47 -3 60 -15 60 -12 0
-15 -15 -15 -75z"/>
</g>
</svg>
