<?xml version="1.0" standalone="no"?>
<!DOCTYPE svg PUBLIC "-//W3C//DTD SVG 20010904//EN"
 "http://www.w3.org/TR/2001/REC-SVG-20010904/DTD/svg10.dtd">
<svg version="1.0" xmlns="http://www.w3.org/2000/svg"
 width="70.000000pt" height="70.000000pt" viewBox="0 0 70.000000 70.000000"
 preserveAspectRatio="xMidYMid meet">
<metadata>
Created by potrace 1.16, written by Peter Selinger 2001-2019
</metadata>
<g transform="translate(0.000000,70.000000) scale(0.100000,-0.100000)"
fill="#000000" stroke="none">
<path d="M260 460 c-59 -20 -125 -82 -137 -128 -5 -21 1 -31 33 -59 54 -45 95
-57 194 -57 99 0 140 12 194 57 33 28 38 37 32 60 -11 47 -85 113 -145 131
-70 20 -103 20 -171 -4z m188 -36 c38 -16 92 -71 92 -96 0 -9 -17 -30 -37 -45
-35 -27 -41 -28 -153 -28 -112 0 -118 1 -153 28 -42 32 -45 52 -14 87 34 40
54 52 105 66 51 14 107 10 160 -12z"/>
<path d="M316 384 c-19 -18 -21 -55 -4 -72 28 -28 88 -2 88 38 0 24 -26 50
-50 50 -10 0 -26 -7 -34 -16z"/>
</g>
</svg>
