<?xml version="1.0" standalone="no"?>
<!DOCTYPE svg PUBLIC "-//W3C//DTD SVG 20010904//EN"
 "http://www.w3.org/TR/2001/REC-SVG-20010904/DTD/svg10.dtd">
<svg version="1.0" xmlns="http://www.w3.org/2000/svg"
 width="701.000000pt" height="338.000000pt" viewBox="0 0 701.000000 338.000000"
 preserveAspectRatio="xMidYMid meet">
<metadata>
Created by potrace 1.16, written by Peter Selinger 2001-2019
</metadata>
<g transform="translate(0.000000,338.000000) scale(0.100000,-0.100000)"
fill="#000000" stroke="none">
<path d="M320 3051 c0 -74 -4 -102 -15 -111 -20 -17 -48 -9 -60 18 -12 27 -35
29 -35 2 0 -29 36 -60 70 -60 57 0 70 27 70 145 0 87 -3 105 -15 105 -12 0
-15 -18 -15 -99z"/>
<path d="M1790 3025 c0 -104 2 -125 15 -125 12 0 15 13 15 55 0 54 0 55 30 55
24 0 36 -9 61 -42 17 -24 34 -49 38 -57 5 -7 16 -11 26 -10 15 4 12 11 -18 56
l-34 51 28 21 c35 26 39 71 9 101 -16 16 -33 20 -95 20 l-75 0 0 -125z m148
83 c18 -18 14 -46 -7 -58 -11 -5 -40 -10 -65 -10 l-46 0 0 40 0 40 53 0 c29 0
58 -5 65 -12z"/>
<path d="M2210 3025 c0 -104 2 -125 15 -125 13 0 15 21 15 125 0 104 -2 125
-15 125 -13 0 -15 -21 -15 -125z"/>
<path d="M4220 3025 l0 -125 90 0 c73 0 90 3 90 15 0 12 -15 15 -75 15 l-75 0
0 40 0 40 65 0 c51 0 65 3 65 15 0 12 -14 15 -65 15 l-65 0 0 40 0 40 70 0
c56 0 70 3 70 15 0 12 -16 15 -85 15 l-85 0 0 -125z"/>
<path d="M4820 3025 c0 -104 2 -125 15 -125 13 0 15 21 15 125 0 104 -2 125
-15 125 -13 0 -15 -21 -15 -125z"/>
<path d="M4890 3135 c0 -8 7 -15 15 -15 8 0 15 7 15 15 0 8 -7 15 -15 15 -8 0
-15 -7 -15 -15z"/>
<path d="M5140 3025 c0 -104 2 -125 15 -125 12 0 15 14 15 65 0 61 2 66 26 77
43 20 59 1 62 -76 2 -51 6 -66 18 -66 12 0 14 14 12 77 -3 72 -5 78 -30 92
-22 13 -33 13 -58 4 l-30 -11 0 44 c0 32 -4 44 -15 44 -13 0 -15 -21 -15 -125z"/>
<path d="M5440 3025 c0 -104 2 -125 15 -125 12 0 15 13 15 55 0 54 0 55 30 55
24 0 36 -9 61 -42 17 -24 34 -49 38 -57 5 -7 16 -11 26 -10 15 4 12 11 -18 56
l-34 51 28 21 c35 26 39 71 9 101 -16 16 -33 20 -95 20 l-75 0 0 -125z m148
83 c18 -18 14 -46 -7 -58 -11 -5 -40 -10 -65 -10 l-46 0 0 40 0 40 53 0 c29 0
58 -5 65 -12z"/>
<path d="M5860 3025 c0 -104 2 -125 15 -125 13 0 15 21 15 125 0 104 -2 125
-15 125 -13 0 -15 -21 -15 -125z"/>
<path d="M425 3068 c-34 -19 -47 -48 -21 -48 7 0 19 7 26 15 17 20 69 19 77
-1 7 -19 -13 -34 -48 -34 -42 0 -73 -31 -65 -63 8 -32 46 -45 88 -29 16 6 30
6 34 1 3 -5 11 -9 17 -9 9 0 11 22 9 75 -3 63 -7 77 -25 90 -25 18 -64 19 -92
3z m85 -103 c0 -19 -35 -37 -63 -33 -33 4 -27 32 8 39 48 11 55 10 55 -6z"/>
<path d="M580 2955 c0 -104 2 -125 15 -125 11 0 15 12 15 45 0 44 1 44 24 34
54 -25 106 20 106 91 0 60 -76 103 -114 64 -15 -14 -16 -14 -16 0 0 9 -7 16
-15 16 -13 0 -15 -21 -15 -125z m114 79 c34 -33 10 -104 -34 -104 -45 0 -66
65 -33 102 20 22 46 23 67 2z"/>
<path d="M795 3068 c-34 -19 -47 -48 -21 -48 7 0 19 7 26 15 17 20 69 19 77
-1 7 -19 -13 -34 -48 -34 -42 0 -73 -31 -65 -63 8 -32 46 -45 88 -29 16 6 30
6 34 1 3 -5 11 -9 17 -9 9 0 11 22 9 75 -3 63 -7 77 -25 90 -25 18 -64 19 -92
3z m85 -103 c0 -19 -35 -37 -63 -33 -33 4 -27 32 8 39 48 11 55 10 55 -6z"/>
<path d="M950 2990 c0 -73 3 -90 15 -90 12 0 15 13 15 59 0 63 15 91 49 91 30
0 41 -22 41 -87 0 -49 3 -63 15 -63 24 0 21 141 -3 163 -21 19 -54 22 -83 7
-13 -7 -19 -7 -19 0 0 5 -7 10 -15 10 -12 0 -15 -17 -15 -90z"/>
<path d="M1160 3062 c-15 -12 -24 -33 -27 -64 -5 -40 -2 -50 20 -72 35 -35 79
-34 115 1 29 29 14 47 -17 19 -22 -20 -55 -20 -75 0 -28 27 -18 34 50 34 l67
0 -7 33 c-12 61 -79 87 -126 49z m88 -24 c22 -22 13 -28 -38 -28 -27 0 -50 4
-50 8 0 16 25 32 50 32 14 0 31 -5 38 -12z"/>
<path d="M1332 3064 c-25 -17 -29 -46 -7 -64 8 -6 36 -17 62 -24 58 -15 65
-40 12 -44 -23 -2 -40 2 -49 12 -14 17 -40 22 -40 7 0 -19 54 -51 86 -51 41 0
77 32 72 63 -2 17 -16 26 -66 42 -34 10 -61 24 -59 30 5 15 57 18 84 4 32 -17
43 -1 14 22 -28 23 -78 25 -109 3z"/>
<path d="M1520 3062 c-15 -12 -24 -33 -27 -64 -5 -40 -2 -50 20 -72 35 -35 79
-34 115 1 29 29 14 47 -17 19 -22 -20 -55 -20 -75 0 -28 27 -18 34 50 34 l67
0 -7 33 c-12 61 -79 87 -126 49z m88 -24 c22 -22 13 -28 -38 -28 -27 0 -50 4
-50 8 0 16 25 32 50 32 14 0 31 -5 38 -12z"/>
<path d="M2050 3062 c-15 -12 -24 -33 -27 -64 -5 -40 -2 -50 20 -72 35 -35 79
-34 115 1 29 29 14 47 -17 19 -22 -20 -55 -20 -75 0 -28 27 -18 34 50 34 l67
0 -7 33 c-12 61 -79 87 -126 49z m88 -24 c22 -22 13 -28 -38 -28 -27 0 -50 4
-50 8 0 16 25 32 50 32 14 0 31 -5 38 -12z"/>
<path d="M2300 3062 c-15 -12 -24 -33 -27 -64 -5 -40 -2 -50 20 -72 35 -35 79
-34 115 1 29 29 14 47 -17 19 -22 -20 -55 -20 -75 0 -28 27 -18 34 50 34 l67
0 -7 33 c-12 61 -79 87 -126 49z m88 -24 c22 -22 13 -28 -38 -28 -27 0 -50 4
-50 8 0 16 25 32 50 32 14 0 31 -5 38 -12z"/>
<path d="M2485 3068 c-34 -19 -47 -48 -21 -48 7 0 19 7 26 15 17 20 69 19 77
-1 7 -19 -13 -34 -48 -34 -42 0 -73 -31 -65 -63 8 -32 46 -45 88 -29 16 6 30
6 34 1 3 -5 11 -9 17 -9 9 0 11 22 9 75 -3 63 -7 77 -25 90 -25 18 -64 19 -92
3z m85 -103 c0 -19 -35 -37 -63 -33 -33 4 -27 32 8 39 48 11 55 10 55 -6z"/>
<path d="M2652 3064 c-25 -17 -29 -46 -7 -64 8 -6 36 -17 62 -24 58 -15 65
-40 12 -44 -23 -2 -40 2 -49 12 -14 17 -40 22 -40 7 0 -19 54 -51 86 -51 41 0
77 32 72 63 -2 17 -16 26 -66 42 -34 10 -61 24 -59 30 5 15 57 18 84 4 32 -17
43 -1 14 22 -28 23 -78 25 -109 3z"/>
<path d="M2840 3062 c-15 -12 -24 -33 -27 -64 -5 -40 -2 -50 20 -72 35 -35 79
-34 115 1 29 29 14 47 -17 19 -22 -20 -55 -20 -75 0 -28 27 -18 34 50 34 l67
0 -7 33 c-12 61 -79 87 -126 49z m88 -24 c22 -22 13 -28 -38 -28 -27 0 -50 4
-50 8 0 16 25 32 50 32 14 0 31 -5 38 -12z"/>
<path d="M4440 2990 c0 -73 3 -90 15 -90 12 0 15 13 15 59 0 63 15 91 49 91
30 0 41 -22 41 -87 0 -49 3 -63 15 -63 24 0 21 141 -3 163 -21 19 -54 22 -83
7 -13 -7 -19 -7 -19 0 0 5 -7 10 -15 10 -12 0 -15 -17 -15 -90z"/>
<path d="M4649 3061 c-20 -16 -24 -29 -24 -71 0 -42 4 -55 24 -71 26 -21 71
-25 89 -7 9 9 12 8 12 -8 0 -11 -5 -25 -12 -32 -17 -17 -64 -15 -82 3 -19 19
-36 19 -36 1 0 -22 40 -46 78 -46 22 0 41 8 57 25 23 22 25 31 25 125 0 82 -3
100 -15 100 -8 0 -15 -5 -15 -10 0 -7 -6 -7 -19 0 -29 15 -56 12 -82 -9z m85
-27 c34 -33 10 -104 -34 -104 -27 0 -50 27 -50 60 0 33 23 60 50 60 10 0 26
-7 34 -16z"/>
<path d="M4890 2990 c0 -73 3 -90 15 -90 12 0 15 17 15 90 0 73 -3 90 -15 90
-12 0 -15 -17 -15 -90z"/>
<path d="M4972 3064 c-25 -17 -29 -46 -7 -64 8 -6 36 -17 62 -24 58 -15 65
-40 12 -44 -23 -2 -40 2 -49 12 -14 17 -40 22 -40 7 0 -19 54 -51 86 -51 41 0
77 32 72 63 -2 17 -16 26 -66 42 -34 10 -61 24 -59 30 5 15 57 18 84 4 32 -17
43 -1 14 22 -28 23 -78 25 -109 3z"/>
<path d="M5700 3062 c-15 -12 -24 -33 -27 -64 -5 -40 -2 -50 20 -72 35 -35 79
-34 115 1 29 29 14 47 -17 19 -22 -20 -55 -20 -75 0 -28 27 -18 34 50 34 l67
0 -7 33 c-12 61 -79 87 -126 49z m88 -24 c22 -22 13 -28 -38 -28 -27 0 -50 4
-50 8 0 16 25 32 50 32 14 0 31 -5 38 -12z"/>
<path d="M5950 3062 c-15 -12 -24 -33 -27 -64 -5 -40 -2 -50 20 -72 35 -35 79
-34 115 1 29 29 14 47 -17 19 -22 -20 -55 -20 -75 0 -28 27 -18 34 50 34 l67
0 -7 33 c-12 61 -79 87 -126 49z m88 -24 c22 -22 13 -28 -38 -28 -27 0 -50 4
-50 8 0 16 25 32 50 32 14 0 31 -5 38 -12z"/>
<path d="M6135 3068 c-34 -19 -47 -48 -21 -48 7 0 19 7 26 15 17 20 69 19 77
-1 7 -19 -13 -34 -48 -34 -42 0 -73 -31 -65 -63 8 -32 46 -45 88 -29 16 6 30
6 34 1 3 -5 11 -9 17 -9 9 0 11 22 9 75 -3 63 -7 77 -25 90 -25 18 -64 19 -92
3z m85 -103 c0 -19 -35 -37 -63 -33 -33 4 -27 32 8 39 48 11 55 10 55 -6z"/>
<path d="M6302 3064 c-25 -17 -29 -46 -7 -64 8 -6 36 -17 62 -24 58 -15 65
-40 12 -44 -23 -2 -40 2 -49 12 -14 17 -40 22 -40 7 0 -19 54 -51 86 -51 41 0
77 32 72 63 -2 17 -16 26 -66 42 -34 10 -61 24 -59 30 5 15 57 18 84 4 32 -17
43 -1 14 22 -28 23 -78 25 -109 3z"/>
<path d="M6490 3062 c-15 -12 -24 -33 -27 -64 -5 -40 -2 -50 20 -72 35 -35 79
-34 115 1 29 29 14 47 -17 19 -22 -20 -55 -20 -75 0 -28 27 -18 34 50 34 l67
0 -7 33 c-12 61 -79 87 -126 49z m88 -24 c22 -22 13 -28 -38 -28 -27 0 -50 4
-50 8 0 16 25 32 50 32 14 0 31 -5 38 -12z"/>
<path d="M3940 2473 l0 -227 20 22 c20 21 40 29 40 16 0 -3 -12 -21 -26 -40
-39 -50 -12 -42 33 11 38 45 55 56 50 33 -2 -7 3 2 11 20 15 33 26 40 37 21 4
-5 -1 -20 -12 -31 -18 -21 -18 -21 4 -10 16 9 22 9 26 -1 4 -12 9 -3 39 71 16
40 48 40 62 -1 8 -23 6 -31 -12 -49 -18 -18 -22 -19 -22 -6 0 11 -6 15 -20 11
-16 -4 -18 -8 -9 -19 6 -8 7 -14 2 -14 -5 0 -10 -7 -10 -15 0 -19 6 -19 31 2
12 10 15 11 9 3 -7 -8 -13 -21 -13 -29 1 -13 3 -13 15 3 7 10 18 15 23 12 14
-8 43 4 36 15 -3 5 -1 17 5 26 9 16 11 15 20 -9 7 -18 18 -28 31 -28 16 0 20
7 20 32 l0 31 22 -19 c12 -10 18 -13 13 -5 -4 7 -3 16 2 20 6 3 14 21 18 39 5
24 3 32 -7 32 -10 0 -13 9 -10 30 5 32 19 40 28 15 4 -8 12 -15 20 -15 18 0
45 -53 41 -81 -2 -23 3 -24 57 -20 8 1 13 9 12 19 -1 11 5 16 17 14 12 -2 17
4 17 23 0 18 4 24 13 19 9 -5 9 -4 0 6 -6 7 -9 19 -6 26 8 22 -11 16 -37 -11
-32 -34 -44 -18 -29 36 6 24 14 38 16 32 11 -31 53 4 70 57 9 30 11 32 18 16
5 -12 2 -30 -10 -51 -9 -19 -14 -39 -10 -45 5 -8 10 -8 14 -2 9 14 71 26 71
13 0 -6 -5 -11 -12 -11 -6 0 -8 -3 -5 -6 4 -4 19 2 34 12 15 10 36 19 46 19
30 3 41 29 14 35 -12 3 -17 8 -12 11 20 11 40 3 42 -16 7 -51 16 -85 24 -85 5
0 8 10 7 23 0 12 0 27 2 32 4 16 -11 55 -21 55 -5 0 -9 7 -9 15 0 8 5 15 10
15 6 0 10 5 10 11 0 6 -7 9 -15 5 -8 -3 -15 -1 -15 4 0 6 10 10 23 11 21 0 21
1 2 8 -11 5 -23 7 -27 4 -5 -2 -8 5 -8 17 0 11 7 23 15 26 20 8 19 44 -1 44
-9 0 -25 -10 -35 -22 l-20 -23 6 22 6 22 -226 1 c-211 0 -225 -1 -225 -18 0
-22 -18 -42 -38 -42 -10 0 -13 9 -10 30 l5 30 -149 0 -148 0 0 -227z m802 143
c3 -15 1 -23 -6 -20 -13 5 -19 44 -7 44 5 0 11 -11 13 -24z m-292 -55 c6 -28
9 -55 5 -61 -10 -16 -28 -12 -21 6 4 11 -1 18 -15 21 -18 5 -20 11 -14 42 13
68 27 65 45 -8z m224 -28 c19 -23 19 -23 -2 -23 -17 0 -22 6 -22 27 0 14 1 24
3 22 1 -2 11 -14 21 -26z m-43 -36 c-1 -12 -15 -9 -19 4 -3 6 1 10 8 8 6 -3
11 -8 11 -12z m-558 -127 c-5 -19 -23 -39 -23 -25 0 9 20 45 24 45 2 0 2 -9
-1 -20z m417 10 c0 -5 -2 -10 -4 -10 -3 0 -8 5 -11 10 -3 6 -1 10 4 10 6 0 11
-4 11 -10z m-528 -72 c-7 -7 -12 -8 -12 -2 0 14 12 26 19 19 2 -3 -1 -11 -7
-17z"/>
<path d="M4800 2689 c0 -7 10 -9 24 -7 15 3 27 0 30 -8 3 -8 -1 -14 -9 -14 -8
0 -15 -4 -15 -10 0 -12 29 -2 53 18 26 23 22 27 -33 30 -33 2 -50 -1 -50 -9z"/>
<path d="M4920 2691 c0 -5 9 -11 20 -14 24 -6 27 8 4 17 -21 8 -24 8 -24 -3z"/>
<path d="M5580 2676 c0 -13 -8 -27 -17 -30 -15 -6 -15 -8 -3 -16 28 -18 80 12
80 45 0 24 34 14 38 -11 2 -11 -4 -33 -12 -50 -15 -27 -15 -30 7 -46 12 -10
28 -18 35 -18 6 0 12 -6 12 -12 0 -9 3 -8 9 2 6 8 7 18 5 22 -8 13 6 9 22 -6
7 -8 19 -16 26 -19 9 -3 4 -13 -14 -30 -32 -30 -29 -64 3 -47 10 6 16 16 14
23 -3 6 4 26 15 42 12 18 20 24 20 14 0 -8 -5 -20 -12 -27 -9 -9 -9 -12 1 -12
8 0 11 -6 7 -15 -4 -10 1 -15 14 -15 11 0 20 -4 20 -10 0 -5 -15 -10 -32 -10
-24 0 -29 -3 -19 -9 12 -8 12 -13 -3 -35 -9 -14 -12 -26 -6 -26 5 0 10 5 10
10 0 6 5 10 10 10 14 0 12 -28 -2 -33 -7 -2 -10 -8 -6 -12 4 -4 14 -2 23 5 10
8 15 9 15 1 0 -18 18 -13 25 8 3 10 13 18 23 17 12 -1 16 5 14 21 -2 12 2 24
8 28 6 3 10 -3 10 -15 0 -12 4 -19 9 -15 5 3 12 1 15 -4 4 -5 2 -12 -3 -15
-13 -8 -3 -40 22 -67 19 -20 19 -23 4 -34 -10 -7 -15 -19 -11 -28 8 -21 34
-30 34 -12 0 8 -8 15 -17 15 -14 0 -13 3 5 23 27 29 28 47 3 47 -27 0 -17 32
15 47 27 12 34 -3 12 -25 -10 -10 -7 -17 15 -36 l27 -24 -24 -6 c-22 -5 -23
-8 -13 -31 15 -31 25 -32 37 -2 l10 22 -3 -22 c-1 -12 2 -22 7 -22 5 1 13 -5
17 -13 5 -7 19 -13 31 -13 27 0 37 -37 18 -61 -10 -11 -9 -14 6 -14 14 0 15
-3 6 -12 -7 -7 -12 -15 -12 -18 0 -10 44 -6 53 5 5 6 5 -1 2 -14 -5 -16 -4
-21 4 -17 6 4 11 0 11 -9 0 -8 -6 -18 -14 -21 -7 -3 -12 -15 -11 -27 1 -12 3
-29 4 -37 1 -12 4 -11 19 3 15 16 15 19 2 27 -9 6 -10 10 -3 10 6 0 18 3 27 6
22 9 20 -12 -4 -36 -29 -29 -25 -46 5 -26 26 17 34 9 13 -12 -7 -7 -8 -12 -4
-12 5 0 1 -12 -9 -26 -11 -17 -15 -37 -12 -54 3 -15 1 -32 -5 -38 -22 -22 -1
-21 22 1 14 12 29 22 35 22 5 0 10 10 10 22 1 29 10 37 23 20 9 -10 5 -19 -13
-40 -25 -26 -34 -54 -15 -42 6 3 10 2 10 -3 0 -15 -33 -24 -40 -12 -5 8 -9 6
-14 -5 -9 -24 -8 -25 14 -25 20 0 20 0 0 -20 -11 -11 -17 -26 -14 -35 4 -8 1
-15 -6 -15 -7 0 -10 -6 -7 -14 3 -8 -1 -20 -9 -26 -8 -7 -14 -23 -14 -35 0
-13 -7 -25 -15 -29 -18 -6 -18 -5 -5 28 6 16 6 27 0 31 -6 4 -10 15 -10 26 0
11 -4 17 -10 14 -5 -3 -10 -14 -10 -23 0 -9 -7 -29 -14 -44 -12 -23 -12 -28
-2 -28 20 0 44 -32 28 -37 -6 -3 -9 -9 -6 -15 4 -5 -2 -8 -13 -6 -11 1 -35
-10 -54 -26 -19 -16 -26 -27 -17 -23 18 6 68 -13 68 -27 0 -4 -11 -5 -24 -2
-14 3 -37 1 -52 -6 -36 -17 -87 -65 -80 -77 4 -5 2 -11 -4 -13 -6 -2 -6 -8 1
-18 8 -13 11 -12 24 4 18 24 26 18 18 -12 -3 -13 -13 -22 -25 -22 -10 0 -16
-4 -13 -10 3 -5 -5 -12 -18 -15 -13 -4 -24 -13 -24 -20 0 -17 5 -14 79 42 32
25 59 39 63 33 3 -5 15 -10 26 -10 11 0 22 -7 26 -15 7 -21 -4 -32 -19 -17 -7
7 -17 12 -22 12 -6 0 -3 -7 7 -15 17 -12 21 -50 5 -43 -11 5 -48 -49 -48 -71
0 -12 -4 -21 -10 -21 -5 0 -10 -7 -10 -15 0 -12 -33 -14 -210 -14 -199 -1
-428 -15 -440 -28 -3 -3 1 -8 8 -10 6 -3 12 -11 12 -19 0 -8 5 -14 11 -14 6 0
9 6 6 14 -9 23 65 25 398 16 318 -10 563 -29 648 -50 56 -15 65 -36 10 -26
-94 18 -126 19 -121 6 2 -8 22 -15 43 -17 51 -4 105 -22 105 -34 0 -6 -8 -8
-17 -5 -32 10 -148 24 -160 19 -30 -11 -8 -20 60 -26 82 -6 107 -14 107 -32 0
-9 -11 -10 -42 -4 -58 11 -98 11 -98 0 0 -5 19 -12 43 -16 82 -12 98 -17 94
-28 -2 -8 -22 -11 -55 -9 -33 3 -52 0 -52 -7 0 -6 12 -11 28 -11 43 0 72 -11
72 -27 0 -12 -10 -13 -56 -7 -46 5 -56 4 -52 -7 2 -8 18 -15 34 -17 70 -6 72
-8 69 -59 -1 -27 -3 -68 -4 -92 -1 -41 -2 -43 -26 -37 -30 8 -34 -10 -5 -19
24 -8 24 -4 4 -101 -23 -114 -18 -111 -176 -91 -154 20 -363 37 -456 37 -53 0
-63 3 -58 15 3 9 0 15 -8 15 -8 0 -16 -5 -18 -10 -2 -7 -116 -12 -318 -16
-271 -4 -565 -24 -590 -39 -11 -7 -17 38 -19 126 -1 42 -8 97 -16 124 -20 65
-19 88 5 110 24 22 16 39 -16 31 -34 -9 -31 11 8 51 24 25 29 36 20 45 -8 8
-15 8 -27 -2 -13 -11 -15 -10 -10 2 3 8 19 22 35 32 17 9 28 22 25 27 -11 16
-43 10 -72 -15 -24 -22 -26 -27 -16 -45 7 -11 9 -22 4 -25 -10 -6 -31 37 -31
63 0 11 7 21 15 25 18 7 20 36 2 36 -7 0 -23 -9 -34 -19 -18 -17 -19 -25 -10
-70 11 -57 5 -81 -19 -81 -16 0 -16 1 0 19 20 22 13 41 -30 80 -21 20 -25 31
-21 58 6 35 -8 44 -32 21 -10 -11 -12 -6 -10 22 2 23 -1 34 -9 33 -7 -2 -10 6
-8 20 3 12 5 25 5 29 1 4 7 5 15 2 7 -3 23 7 35 22 22 27 28 50 12 39 -5 -3
-12 3 -14 12 -4 14 -5 15 -6 2 0 -9 -13 -21 -27 -28 -23 -10 -26 -10 -20 4 3
9 6 26 7 38 1 20 2 20 9 -3 7 -22 8 -22 10 -5 1 11 2 23 1 27 0 4 4 19 9 33
15 38 -11 31 -37 -11 -13 -20 -23 -39 -23 -44 0 -5 -10 -16 -22 -25 -18 -12
-21 -19 -12 -33 12 -21 7 -52 -9 -52 -23 0 -14 76 13 107 14 15 18 22 10 16
-20 -18 -40 -16 -40 5 -1 14 -3 14 -13 -4 -7 -12 -17 -19 -23 -17 -6 2 -14 -4
-18 -13 -5 -13 -2 -15 16 -11 21 5 21 5 6 -7 -10 -7 -18 -20 -18 -29 0 -10 -6
-14 -15 -11 -10 4 -13 14 -9 30 3 13 2 24 -4 24 -14 0 -33 -26 -25 -33 3 -4 1
-7 -5 -7 -23 0 -27 3 -25 24 1 15 0 16 -3 3 -3 -9 -10 -17 -15 -17 -6 0 -7 9
-3 22 6 21 5 22 -11 8 -10 -8 -21 -15 -24 -15 -3 0 -5 -6 -5 -12 1 -7 -2 -13
-7 -13 -5 0 -8 24 -7 53 3 52 0 55 -34 42 -11 -4 -18 0 -22 12 -3 10 -3 0 -1
-21 4 -38 4 -39 -11 -18 -8 12 -12 27 -9 32 3 6 -3 10 -14 10 -14 0 -19 5 -15
15 4 8 1 15 -5 15 -6 0 -11 -6 -11 -12 0 -8 -7 -5 -15 6 -8 11 -15 15 -15 10
0 -6 5 -15 12 -22 20 -20 -6 -39 -28 -21 -16 13 -17 12 -11 -12 5 -19 3 -26
-8 -26 -8 0 -15 8 -15 18 0 9 -3 25 -6 34 -4 9 -3 15 2 13 11 -4 14 5 14 35
-1 33 -40 -49 -40 -83 0 -31 -40 -73 -66 -68 -16 3 -17 4 -1 20 24 24 21 35
-3 13 -19 -17 -20 -31 -20 -361 0 -264 3 -343 13 -347 10 -4 10 -6 0 -6 -20
-1 -17 -77 3 -85 9 -4 14 -9 11 -13 -8 -7 36 -43 53 -43 7 0 5 -6 -5 -16 -12
-12 -13 -19 -4 -30 16 -20 2 -34 -37 -34 -27 0 -34 -4 -34 -19 0 -15 10 -20
45 -25 25 -4 82 -19 127 -34 75 -25 83 -30 86 -55 l3 -27 1375 0 1374 0 0 280
-1 280 -23 6 c-30 7 -87 0 -66 -8 8 -4 29 -10 45 -14 29 -7 29 -8 -15 -15 -25
-4 -70 -8 -100 -9 -30 -1 -64 -5 -75 -10 -13 -6 12 -8 73 -7 89 2 116 -4 70
-17 -13 -3 -78 -6 -145 -6 -105 0 -123 -2 -123 -16 0 -13 15 -14 113 -10 86 4
106 2 87 -6 -14 -6 -87 -13 -164 -16 -131 -4 -138 -3 -133 14 3 11 11 60 18
111 l12 91 44 13 c46 12 329 8 366 -6 16 -7 17 44 17 984 l0 991 -560 0 -560
0 -12 -25 c-6 -14 -17 -25 -24 -25 -13 0 -74 -65 -74 -80 0 -5 -7 -7 -15 -4
-8 4 -15 14 -15 24 0 31 22 80 36 80 8 0 14 6 14 13 0 11 -20 14 -80 15 -78 2
-80 1 -80 -22z m329 -38 c12 -19 10 -29 -20 -89 -19 -38 -39 -69 -45 -69 -13
0 -25 36 -15 45 3 4 6 10 6 13 1 4 11 29 23 56 12 27 22 52 22 57 0 16 15 9
29 -13z m-11 -194 c-16 -17 -38 -12 -38 8 0 6 9 8 20 5 11 -3 20 0 20 6 0 6 3
7 7 3 4 -3 0 -14 -9 -22z m61 -1 c0 -11 -3 -13 -6 -5 -2 6 -10 9 -15 6 -7 -4
-8 -2 -4 4 11 18 26 14 25 -5z m89 -58 c-3 -3 -9 2 -12 12 -6 14 -5 15 5 6 7
-7 10 -15 7 -18z m-188 11 c0 -3 -4 -8 -10 -11 -5 -3 -10 -1 -10 4 0 6 5 11
10 11 6 0 10 -2 10 -4z m320 -156 c0 -5 -2 -10 -4 -10 -3 0 -8 5 -11 10 -3 6
-1 10 4 10 6 0 11 -4 11 -10z m16 -52 c-3 -7 -7 -25 -10 -40 -4 -16 -12 -28
-18 -28 -9 0 -9 3 -1 11 6 6 9 18 6 25 -3 8 0 21 7 29 15 18 21 19 16 3z m319
-57 c3 -5 1 -12 -5 -16 -5 -3 -10 1 -10 9 0 18 6 21 15 7z m-250 -49 c-7 -2
-11 -11 -8 -23 4 -13 0 -19 -11 -19 -20 0 -21 36 -2 43 9 4 13 15 10 29 -5 22
-5 22 10 -2 12 -20 12 -26 1 -28z m80 0 c-8 -8 -25 10 -19 20 4 6 9 5 15 -3 4
-7 6 -15 4 -17z m17 -66 c4 3 8 2 11 -3 3 -4 -1 -13 -7 -19 -10 -9 -15 -4 -24
20 -10 26 -9 28 2 14 7 -10 15 -15 18 -12z m-32 -32 c0 -8 -4 -14 -10 -14 -5
0 -10 9 -10 21 0 11 5 17 10 14 6 -3 10 -13 10 -21z m-24 -49 c10 -26 -1 -35
-13 -10 -6 14 -7 25 -2 25 5 0 12 -7 15 -15z m-64 -67 c-7 -7 -12 -8 -12 -2 0
14 12 26 19 19 2 -3 -1 -11 -7 -17z m134 -5 c16 -22 17 -33 3 -33 -16 0 -36
24 -31 38 5 16 12 15 28 -5z m-52 -106 c-23 -28 -50 -26 -32 3 6 10 18 16 25
13 7 -3 13 1 13 8 0 7 3 10 6 6 4 -3 -2 -17 -12 -30z m122 -13 c-4 -9 -9 -15
-11 -12 -3 3 -3 13 1 22 4 9 9 15 11 12 3 -3 3 -13 -1 -22z m-196 -64 c0 -5
-5 -10 -11 -10 -5 0 -7 5 -4 10 3 6 8 10 11 10 2 0 4 -4 4 -10z m180 -84 c0
-2 -7 -7 -16 -10 -8 -3 -12 -2 -9 4 6 10 25 14 25 6z m-200 -33 c0 -12 -8 -18
-24 -18 -23 0 -23 1 -9 18 9 9 20 17 25 17 4 0 8 -8 8 -17z m60 -9 c0 -8 -4
-12 -10 -9 -5 3 -10 10 -10 16 0 5 5 9 10 9 6 0 10 -7 10 -16z m-80 -35 c0 -6
9 -8 21 -4 19 6 20 5 9 -15 -6 -12 -17 -19 -25 -17 -7 3 -22 -3 -33 -14 -12
-10 -24 -19 -27 -19 -13 0 -3 36 17 57 23 25 38 30 38 12z m56 -51 c4 -7 3 -8
-4 -4 -7 4 -12 2 -12 -4 0 -6 -4 -8 -10 -5 -5 3 -10 10 -10 16 0 13 27 11 36
-3z m-171 -38 c-3 -5 -10 -10 -16 -10 -5 0 -9 5 -9 10 0 6 7 10 16 10 8 0 12
-4 9 -10z m47 -2 c-17 -17 -15 -29 3 -22 8 4 22 1 30 -6 16 -14 35 -5 35 16 0
8 5 14 10 14 15 0 12 -16 -5 -30 -22 -18 -19 -26 18 -38 l32 -10 -42 -1 c-23
-1 -45 -5 -48 -11 -9 -15 -41 -12 -56 6 -10 12 -24 15 -53 11 l-39 -6 26 25
c14 13 31 24 37 24 5 0 19 9 30 20 11 11 23 20 27 20 4 0 2 -5 -5 -12z m48 2
c0 -5 -4 -10 -10 -10 -5 0 -10 5 -10 10 0 6 5 10 10 10 6 0 10 -4 10 -10z
m-165 -39 c-3 -6 -11 -11 -17 -11 -6 0 -6 6 2 15 14 17 26 13 15 -4z m-1978
-183 c-3 -8 -6 -5 -6 6 -1 11 2 17 5 13 3 -3 4 -12 1 -19z m-5 -60 c-7 -7 -12
-8 -12 -2 0 14 12 26 19 19 2 -3 -1 -11 -7 -17z m58 7 c0 -8 -9 -15 -20 -15
-13 0 -18 5 -14 15 4 8 12 15 20 15 8 0 14 -7 14 -15z m485 -35 c-3 -5 -11
-10 -16 -10 -6 0 -7 5 -4 10 3 6 11 10 16 10 6 0 7 -4 4 -10z m-49 -56 c-3 -9
-6 -20 -6 -25 0 -15 -27 -10 -33 5 -4 10 -1 13 9 9 8 -3 14 1 14 11 0 9 5 16
11 16 6 0 8 -7 5 -16z m164 -284 c0 -11 -2 -20 -4 -20 -2 0 -6 9 -9 20 -3 11
-1 20 4 20 5 0 9 -9 9 -20z m2056 -309 c-6 -8 -106 -25 -219 -36 -52 -5 -58
-3 -55 12 3 15 17 19 73 24 116 9 206 10 201 0z m-66 -62 c-14 -6 -54 -12 -90
-15 -36 -3 -80 -7 -97 -9 -23 -3 -33 0 -33 10 0 14 43 20 180 22 52 1 60 0 40
-8z m-31 -49 c-13 -8 -159 -30 -197 -30 -25 0 -6 25 24 31 47 11 191 10 173
-1z m-2049 -4 c0 -2 -8 -10 -17 -17 -16 -13 -17 -12 -4 4 13 16 21 21 21 13z
m2025 -46 c-11 -5 -67 -8 -125 -7 l-105 1 75 6 c118 10 178 10 155 0z m-49
-49 c-11 -11 -36 -11 -137 -2 -194 17 -195 19 -17 17 141 -1 165 -3 154 -15z
m-538 -8 c-10 -2 -26 -2 -35 0 -10 3 -2 5 17 5 19 0 27 -2 18 -5z"/>
<path d="M6115 1380 c3 -5 13 -10 21 -10 8 0 14 5 14 10 0 6 -9 10 -21 10 -11
0 -17 -4 -14 -10z"/>
<path d="M140 2666 c0 -14 9 -69 19 -123 14 -74 19 -146 20 -298 1 -179 -2
-214 -25 -335 -25 -127 -46 -399 -25 -325 16 55 52 219 64 293 7 41 17 69 21
65 5 -5 6 -2 1 6 -4 7 -3 16 1 20 5 3 15 17 22 31 11 23 11 22 6 -12 -4 -25
-2 -38 5 -38 6 0 11 7 11 15 0 23 46 69 60 60 8 -5 6 -13 -8 -29 -10 -11 -23
-28 -27 -36 -8 -13 -7 -13 10 0 11 8 30 28 44 43 17 20 26 25 31 16 5 -8 10
-4 15 12 12 38 25 50 39 36 10 -9 9 -15 -8 -29 -21 -18 -21 -18 9 -16 23 2 31
9 36 28 18 75 26 83 59 50 25 -25 25 -32 1 -54 -15 -13 -20 -14 -24 -4 -6 18
-23 0 -31 -34 -8 -34 4 -36 23 -6 12 19 15 20 25 7 13 -18 47 -21 45 -5 -5 41
15 50 25 12 8 -34 41 -28 41 8 -1 20 3 25 16 21 9 -3 20 0 25 7 14 19 17 68 5
68 -14 0 -14 37 -1 45 6 3 13 -1 16 -9 3 -9 12 -16 20 -16 17 0 34 -31 34 -63
0 -31 5 -35 35 -29 17 3 25 11 25 24 0 14 5 18 18 14 16 -5 19 0 20 36 l2 41
-23 -21 c-30 -29 -37 -28 -37 6 0 30 12 54 26 51 22 -5 44 16 50 47 3 19 10
34 15 34 14 0 11 -38 -6 -70 -8 -16 -11 -31 -6 -34 5 -4 11 -2 13 2 4 12 68
24 68 13 0 -5 -6 -12 -13 -15 -6 -3 -3 -4 9 -1 12 3 27 -1 34 -10 7 -8 18 -15
24 -15 6 1 1 9 -11 19 -23 19 -14 44 13 34 19 -7 31 27 13 38 -11 7 -9 9 7 9
18 0 21 6 20 39 0 22 -4 37 -8 35 -5 -3 -8 2 -8 10 0 8 7 19 15 23 9 5 16 26
18 51 1 23 5 42 10 42 4 0 7 5 7 11 0 7 -8 6 -22 -3 -13 -9 -23 -20 -23 -26 0
-6 -3 -14 -8 -18 -4 -4 -7 -16 -7 -26 0 -10 -4 -18 -10 -18 -5 0 -10 1 -10 3
0 12 35 104 43 115 6 8 6 12 -3 12 -7 0 -10 8 -7 20 7 26 -9 26 -23 -1 -7 -11
-25 -25 -41 -31 -20 -7 -28 -15 -25 -25 7 -19 -21 -28 -39 -13 -8 6 -20 8 -26
4 -8 -5 -9 -3 -4 5 10 18 13 101 2 101 -4 0 -5 5 -2 10 11 17 22 11 27 -14 3
-14 0 -30 -5 -35 -8 -8 -7 -15 1 -23 9 -9 12 -7 12 9 0 12 5 25 11 29 7 4 8
21 5 43 -4 20 -3 32 1 26 12 -15 90 -12 105 4 11 11 9 12 -11 6 -18 -5 -22 -4
-16 6 6 9 3 11 -11 6 -18 -7 -18 -7 0 8 13 10 22 11 26 5 4 -6 15 -8 24 -4 16
6 17 4 8 -12 -16 -30 -50 -57 -61 -49 -6 3 -11 2 -11 -4 0 -14 23 -26 27 -14
2 5 15 8 28 5 15 -2 25 0 25 7 0 6 -5 11 -11 11 -5 0 -7 5 -3 11 4 7 9 8 13 1
3 -5 20 -9 37 -8 27 1 34 7 50 43 11 24 25 45 33 48 10 4 11 2 3 -8 -6 -7 -9
-22 -6 -33 7 -27 -38 -76 -63 -68 -15 5 -16 4 -3 -5 20 -14 26 -14 45 6 13 13
21 14 35 5 22 -13 30 -6 30 25 0 14 4 21 10 18 10 -6 70 31 70 44 0 3 -9 7
-19 7 -11 0 -19 -4 -18 -9 1 -5 -4 -12 -11 -14 -9 -4 -10 1 -3 19 l9 25 -159
2 c-132 2 -159 0 -159 -12 0 -21 -39 -67 -57 -67 -15 0 -14 20 3 64 5 12 0 16
-21 16 -24 0 -26 -3 -20 -29 5 -22 0 -35 -19 -57 -31 -37 -40 -27 -26 27 14
52 14 53 1 57 -6 2 -11 -9 -11 -26 0 -31 -22 -58 -39 -48 -7 5 -7 15 -1 32 6
14 10 29 10 34 0 5 -133 9 -305 10 l-305 0 0 -24z m818 -36 c-7 -10 -14 -18
-15 -16 -6 6 9 36 18 36 5 0 4 -9 -3 -20z m147 -20 c-3 -5 -11 -10 -16 -10 -6
0 -7 5 -4 10 3 6 11 10 16 10 6 0 7 -4 4 -10z m-305 -100 c0 -19 -17 -36 -26
-27 -3 2 -2 16 2 31 7 28 24 26 24 -4z m160 -46 c0 -8 -5 -12 -10 -9 -6 4 -8
11 -5 16 9 14 15 11 15 -7z m-143 -10 c-3 -3 -12 -4 -19 -1 -8 3 -5 6 6 6 11
1 17 -2 13 -5z m-242 -44 c8 -26 -3 -60 -20 -60 -21 0 -26 15 -14 49 13 36 25
40 34 11z m395 -5 c-7 -9 -15 -13 -17 -11 -7 7 7 26 19 26 6 0 6 -6 -2 -15z
m40 -62 c0 -5 -5 -15 -10 -23 -8 -12 -10 -11 -10 8 0 12 5 22 10 22 6 0 10 -3
10 -7z m-272 -66 c11 -39 7 -67 -9 -67 -5 0 -9 6 -9 14 0 8 -7 16 -15 20 -15
5 -14 26 1 75 7 21 20 3 32 -42z m197 -17 c-3 -6 1 -13 9 -16 9 -3 16 -10 16
-15 0 -6 -9 -5 -20 1 -21 11 -28 40 -9 40 5 0 7 -5 4 -10z m-30 -50 c-3 -5
-10 -10 -16 -10 -5 0 -9 5 -9 10 0 6 7 10 16 10 8 0 12 -4 9 -10z m-524 -123
c-10 -9 -11 -8 -5 6 3 10 9 15 12 12 3 -3 0 -11 -7 -18z m-81 -37 c0 -5 -4
-10 -10 -10 -5 0 -10 5 -10 10 0 6 5 10 10 10 6 0 10 -4 10 -10z"/>
<path d="M1298 2683 c7 -3 16 -2 19 1 4 3 -2 6 -13 5 -11 0 -14 -3 -6 -6z"/>
<path d="M1830 2664 c-9 -22 -15 -25 -38 -20 -15 3 -21 3 -14 0 17 -8 15 -29
-4 -45 -8 -7 -13 -21 -11 -31 3 -10 1 -21 -4 -24 -13 -8 -11 -20 6 -38 14 -13
13 -16 -2 -24 -12 -7 -20 -6 -28 4 -6 9 -18 12 -28 8 -21 -7 -23 -34 -3 -34
23 0 74 -69 69 -91 -3 -10 -10 -19 -16 -19 -8 0 -8 -3 0 -11 16 -16 67 11 71
38 2 14 8 20 18 16 17 -6 18 -46 3 -72 -10 -15 -8 -22 10 -40 11 -11 21 -18
21 -15 0 4 7 1 15 -6 12 -10 15 -10 15 4 0 9 5 16 10 16 6 0 10 -4 10 -9 0 -5
9 -13 20 -16 11 -4 27 -22 35 -41 9 -23 19 -33 26 -28 9 5 10 2 6 -9 -3 -9 -1
-19 5 -23 7 -4 8 -3 4 4 -4 7 -4 12 1 13 4 0 19 2 32 5 19 3 22 2 12 -10 -18
-21 -50 -26 -66 -9 -13 13 -16 11 -25 -13 l-10 -27 -20 23 c-23 27 -32 24 -24
-7 4 -15 11 -20 22 -16 10 4 13 2 8 -5 -4 -7 -2 -12 3 -12 6 0 11 5 11 10 0 6
7 10 15 10 8 0 15 -4 15 -10 0 -5 -4 -10 -10 -10 -5 0 -10 -4 -10 -9 0 -14 48
-10 54 5 3 8 12 11 21 8 11 -5 15 1 15 20 0 14 4 26 10 26 5 0 6 -7 3 -17 -4
-10 -2 -14 5 -9 22 13 22 -13 0 -29 l-23 -17 23 7 c16 5 22 2 22 -9 0 -9 5
-16 10 -16 6 0 10 6 10 14 0 13 29 31 37 23 9 -9 -10 -35 -29 -40 -17 -5 -18
-8 -7 -20 15 -16 34 -12 24 4 -10 14 21 10 34 -5 9 -11 7 -15 -9 -19 -18 -5
-19 -8 -8 -32 10 -23 13 -25 24 -11 12 17 29 22 19 6 -4 -6 4 -19 17 -30 22
-17 22 -19 4 -26 -11 -4 -21 -2 -27 7 -6 9 -9 10 -9 2 0 -7 9 -17 20 -23 15
-8 21 -6 30 10 6 11 15 20 19 20 14 0 21 -43 9 -57 -8 -10 -5 -13 16 -13 22 0
26 4 22 18 -4 10 1 27 9 38 14 18 15 17 9 -11 -10 -50 -13 -55 -34 -55 -11 0
-20 -4 -20 -9 0 -5 -3 -18 -7 -28 -4 -12 0 -10 15 7 12 14 21 21 22 16 0 -5 7
-3 15 4 18 15 20 -1 3 -18 -9 -9 -9 -12 0 -12 17 0 15 -18 -3 -37 -9 -9 -13
-23 -10 -34 4 -12 1 -21 -9 -25 -9 -3 -16 -10 -16 -15 0 -6 8 -5 19 1 11 5 26
7 34 4 8 -3 18 -1 22 5 3 6 11 11 17 11 7 0 6 -5 -2 -15 -6 -8 -9 -18 -6 -23
3 -6 -1 -16 -10 -23 -8 -7 -14 -24 -12 -39 1 -15 -4 -35 -11 -44 -11 -14 -11
-16 3 -16 9 0 21 9 28 20 7 11 19 20 27 20 8 0 11 7 8 20 -3 13 0 20 8 20 25
0 25 -17 0 -40 -17 -16 -23 -30 -19 -42 4 -15 1 -18 -12 -16 -9 2 -19 -3 -21
-9 -3 -7 3 -13 13 -13 15 0 16 -2 2 -17 -9 -10 -13 -24 -11 -30 3 -7 0 -13 -6
-13 -6 0 -11 -9 -11 -19 0 -11 -4 -23 -10 -26 -5 -3 -10 -14 -10 -24 0 -10 -7
-24 -15 -31 -18 -15 -19 -9 -3 25 10 22 9 28 -3 36 -11 7 -10 13 11 29 20 16
22 22 11 29 -17 11 -43 3 -38 -13 2 -6 -4 -33 -15 -60 -17 -45 -18 -48 -1 -42
10 4 14 4 10 0 -4 -4 -2 -13 4 -21 8 -9 8 -13 1 -13 -6 0 -9 -6 -6 -14 4 -10
0 -13 -13 -10 -11 3 -30 -5 -48 -22 -17 -15 -22 -24 -13 -21 10 4 29 0 43 -7
l25 -13 -24 -17 c-29 -19 -36 -20 -36 -6 0 6 7 10 16 10 8 0 12 4 9 10 -3 5
-22 1 -44 -11 -57 -29 -76 -55 -72 -96 2 -20 19 -15 23 7 2 13 7 17 16 12 9
-6 3 -18 -23 -45 -20 -21 -41 -35 -46 -32 -5 4 -9 1 -9 -4 0 -20 20 -12 72 28
43 33 56 38 75 30 36 -13 47 -11 33 6 -7 8 -28 15 -46 15 l-34 0 20 20 c11 11
24 20 29 20 5 0 14 7 21 15 7 8 17 15 22 15 6 0 4 -8 -3 -17 -13 -15 -12 -16
8 -11 13 4 26 2 29 -3 9 -15 22 -10 29 11 4 11 11 18 16 14 6 -4 3 -14 -7 -25
-19 -21 -19 -20 16 -36 25 -12 25 -12 -8 -12 -46 -1 -91 -27 -98 -56 -3 -13
-19 -35 -35 -47 -16 -13 -29 -31 -29 -41 0 -10 -4 -27 -10 -37 -9 -17 -27 -18
-234 -19 -211 -1 -262 -4 -343 -17 -37 -6 -39 -9 -19 -30 19 -18 26 -18 26 1
0 14 34 15 278 10 152 -3 329 -10 392 -17 63 -6 129 -10 145 -10 42 2 178 -31
182 -44 2 -7 -17 -6 -59 2 -62 13 -94 12 -84 -4 2 -4 20 -9 38 -10 47 -3 91
-16 95 -28 2 -7 -22 -6 -68 2 -69 11 -104 10 -95 -5 2 -3 30 -7 62 -9 60 -3
94 -15 94 -33 0 -5 -10 -7 -22 -5 -78 16 -100 17 -96 4 3 -7 30 -17 61 -22 74
-11 80 -35 7 -28 -33 3 -50 1 -50 -7 0 -6 14 -11 31 -11 34 0 69 -15 69 -30 0
-6 -22 -8 -55 -4 -35 4 -55 3 -55 -3 0 -6 23 -13 50 -17 l50 -7 0 -53 c0 -29
-3 -68 -6 -85 -6 -27 -10 -30 -33 -25 l-26 6 24 -20 c21 -17 23 -25 18 -63
-11 -72 -27 -120 -44 -126 -9 -4 -73 1 -142 10 -69 9 -178 19 -241 23 -63 4
-122 8 -130 10 -8 1 -32 3 -53 3 -20 1 -36 4 -35 9 2 4 -1 7 -7 7 -5 0 -9 -3
-8 -6 1 -4 -152 -9 -340 -12 -220 -4 -371 -11 -423 -19 l-82 -14 -6 100 c-4
56 -15 125 -24 155 -16 53 -16 54 6 71 28 23 28 42 0 40 -41 -4 -42 0 -9 34
33 34 35 63 3 51 -13 -5 -12 -2 3 15 10 11 25 20 32 20 19 0 11 24 -9 28 -9 2
-29 -8 -44 -22 -25 -22 -27 -27 -17 -45 7 -11 9 -22 4 -25 -8 -5 -31 36 -31
56 0 6 8 20 17 30 24 26 4 43 -26 22 -20 -14 -22 -23 -18 -55 3 -22 2 -39 -1
-39 -4 0 -19 15 -35 33 -20 23 -27 39 -23 58 7 35 -1 41 -30 23 -23 -16 -23
-16 -14 18 13 42 13 41 -3 35 -10 -4 -13 1 -10 17 4 18 11 22 49 22 25 1 50 6
57 13 8 8 8 11 -1 11 -7 0 -12 8 -13 18 0 13 -2 12 -9 -6 -5 -12 -14 -22 -20
-22 -7 0 -8 6 0 19 13 25 13 34 0 26 -6 -3 -10 -1 -10 5 0 6 -12 2 -28 -9
l-28 -20 4 31 c3 18 7 25 12 18 6 -9 9 -9 15 0 4 6 5 14 2 17 -3 3 -2 15 3 28
7 17 5 25 -6 29 -9 3 -14 -1 -14 -13 0 -10 -7 -24 -15 -31 -8 -7 -15 -18 -15
-26 0 -7 -8 -17 -17 -23 -12 -7 -18 -22 -18 -47 0 -20 -4 -39 -10 -41 -17 -5
-8 77 10 97 16 18 16 18 -4 13 -14 -4 -21 -1 -21 9 0 10 10 13 30 12 20 -1 30
3 30 12 0 8 -7 14 -16 14 -10 0 -14 6 -11 14 12 30 -20 5 -36 -28 -10 -23 -29
-40 -56 -52 -23 -10 -41 -24 -41 -32 0 -7 -8 -12 -17 -10 -11 2 -18 12 -17 26
0 12 -4 22 -9 22 -5 0 -7 7 -3 15 3 8 0 15 -5 15 -6 0 -9 -9 -6 -20 3 -13 0
-20 -8 -20 -8 0 -16 -10 -18 -23 -3 -12 -4 1 -3 28 1 47 0 50 -24 49 -14 -1
-29 4 -33 10 -6 7 -7 4 -3 -6 3 -10 1 -20 -4 -23 -6 -4 -10 0 -10 7 0 8 -9 21
-20 31 -11 9 -20 14 -20 11 0 -4 -7 0 -17 7 -15 13 -15 12 -5 -8 17 -31 15
-36 -13 -29 -19 5 -25 2 -25 -10 0 -11 -5 -14 -16 -10 -9 3 -17 6 -19 6 -2 0
-1 10 2 23 3 12 2 19 -2 15 -5 -4 -15 -2 -24 5 -14 10 -14 10 -3 -5 8 -9 11
-21 8 -26 -3 -5 3 -18 13 -29 13 -13 16 -25 10 -34 -7 -11 -9 -11 -9 4 0 23
-15 22 -32 -4 -8 -13 -21 -20 -33 -18 -18 4 -18 5 5 27 13 12 19 22 13 22 -12
0 -43 -33 -43 -47 0 -5 -11 -22 -24 -36 -13 -14 -26 -32 -28 -39 -3 -7 -7 -1
-10 14 -3 15 -2 25 2 23 4 -3 13 2 20 10 16 19 9 19 -34 -1 -43 -21 -64 -57
-46 -79 10 -12 9 -16 -4 -21 -19 -7 -22 -34 -3 -34 8 0 7 -4 -3 -10 -13 -9
-13 -10 0 -10 13 0 13 -1 0 -10 -11 -8 -8 -9 13 -4 17 4 27 2 27 -5 0 -6 -4
-11 -9 -11 -9 0 -24 -30 -18 -36 1 -2 16 4 32 12 16 8 26 12 22 8 -4 -4 -3
-12 2 -18 6 -7 2 -20 -11 -36 -11 -14 -17 -20 -14 -13 9 16 -5 22 -31 12 -21
-8 -22 -13 -22 -159 0 -137 2 -151 17 -146 9 3 24 1 32 -4 12 -7 7 -11 -20
-16 -28 -6 -31 -9 -15 -15 11 -4 36 -5 55 -3 l35 4 -37 -17 c-42 -20 -51 -38
-14 -31 18 4 22 1 19 -13 -4 -15 1 -18 35 -17 32 0 46 -6 65 -26 13 -14 30
-26 37 -26 10 0 10 -3 0 -15 -9 -11 -10 -19 -1 -28 8 -10 7 -17 -1 -25 -9 -9
305 -12 1346 -12 l1357 0 -2 152 -2 152 29 8 c117 33 134 41 134 63 0 18 -6
22 -42 24 -24 1 -101 8 -173 15 -71 7 -132 12 -134 10 -12 -11 22 -18 155 -32
100 -10 140 -18 126 -23 -12 -5 -55 -4 -95 1 -90 12 -87 12 -87 1 0 -5 19 -13
43 -17 l42 -8 -45 -7 c-25 -4 -67 -8 -95 -8 -27 -1 -60 -4 -72 -7 -45 -12 -21
-19 59 -17 56 2 76 0 63 -7 -11 -5 -71 -9 -132 -9 -68 -1 -113 -5 -113 -11 0
-6 41 -10 103 -11 68 0 93 -3 75 -9 -32 -10 -245 -23 -256 -16 -14 9 21 205
38 212 67 27 434 6 523 -31 13 -5 17 -2 17 13 0 17 -9 21 -57 27 -91 10 -100
14 -99 38 2 45 67 117 105 117 5 0 14 -20 20 -44 16 -66 29 -64 28 4 0 45 -4
60 -16 63 -13 4 -13 5 2 6 9 0 17 8 17 16 0 20 -60 19 -115 0 -22 -8 -41 -15
-42 -15 -2 0 -1 89 2 198 3 108 7 540 10 960 l5 762 -306 0 -305 0 -30 -35
c-46 -52 -60 -45 -34 18 7 17 -4 18 -201 16 -140 -1 -211 -5 -216 -13 -5 -8
-8 -7 -8 2 0 8 -18 12 -55 12 -51 0 -56 -2 -65 -26z m-8 -65 c-36 -32 -47 -33
-36 -5 4 10 13 15 21 12 7 -3 16 1 19 9 4 8 11 15 18 15 6 0 -4 -14 -22 -31z
m38 -81 c0 -49 -47 -97 -78 -79 -9 6 -12 11 -6 11 13 0 44 64 44 90 0 18 3 19
20 8 11 -7 20 -21 20 -30z m-74 5 c-10 -10 -19 5 -10 18 6 11 8 11 12 0 2 -7
1 -15 -2 -18z m212 -97 c7 -33 -8 -61 -42 -85 -20 -13 -38 -32 -41 -42 -7 -20
-45 -27 -45 -8 0 33 24 87 36 82 8 -3 14 2 14 11 0 9 7 33 15 53 14 34 16 35
37 21 13 -9 25 -23 26 -32z m-121 -28 c-3 -8 -6 -5 -6 6 -1 11 2 17 5 13 3 -3
4 -12 1 -19z m179 -135 c-32 -65 -50 -78 -59 -43 -3 11 -1 20 4 20 5 0 8 3 7
8 -1 4 8 29 20 56 12 27 22 54 22 60 0 6 9 0 19 -13 18 -24 18 -25 -13 -88z
m-86 27 c0 -5 -2 -10 -4 -10 -3 0 -8 5 -11 10 -3 6 -1 10 4 10 6 0 11 -4 11
-10z m150 -126 c0 -8 -5 -12 -10 -9 -6 4 -8 11 -5 16 9 14 15 11 15 -7z m-90
-48 c0 -3 -4 -8 -10 -11 -5 -3 -10 -1 -10 4 0 6 5 11 10 11 6 0 10 -2 10 -4z
m370 -291 c-6 -7 -8 -20 -4 -29 5 -12 2 -15 -12 -9 -13 5 -16 3 -12 -8 3 -8
-4 -26 -15 -39 -15 -19 -19 -20 -13 -6 4 12 2 23 -6 29 -9 6 -8 7 4 3 13 -4
19 3 24 29 3 19 11 35 16 35 5 0 7 10 3 23 -6 21 -6 21 9 3 11 -13 13 -23 6
-31z m78 16 c11 -7 11 -9 -1 -14 -16 -6 -27 0 -27 15 0 10 11 10 28 -1z m22
-86 c0 -12 -19 -12 -23 0 -4 9 -1 12 9 8 7 -3 14 -7 14 -8z m-40 -21 c0 -8 -4
-14 -10 -14 -5 0 -10 9 -10 21 0 11 5 17 10 14 6 -3 10 -13 10 -21z m-20 -54
c0 -11 -2 -20 -4 -20 -2 0 -6 9 -9 20 -3 11 -1 20 4 20 5 0 9 -9 9 -20z m-57
-45 c-3 -9 -8 -14 -10 -11 -3 3 -2 9 2 15 9 16 15 13 8 -4z m127 -37 c0 -4 -5
-8 -11 -8 -5 0 -7 5 -4 10 3 6 1 10 -4 10 -6 0 -11 8 -11 18 1 15 2 15 15 -2
8 -11 15 -23 15 -28z m-60 -65 c-1 -18 -18 -35 -24 -24 -4 6 -4 16 -1 21 7 12
25 13 25 3z m-68 -85 c-7 -7 -12 -8 -12 -2 0 6 3 14 7 17 3 4 9 5 12 2 2 -3
-1 -11 -7 -17z m-2 -68 c0 -5 -2 -10 -4 -10 -3 0 -8 5 -11 10 -3 6 -1 10 4 10
6 0 11 -4 11 -10z m170 -4 c0 -2 -7 -7 -16 -10 -8 -3 -12 -2 -9 4 6 10 25 14
25 6z m-180 -30 c0 -8 -10 -13 -25 -13 -20 0 -23 2 -14 13 6 8 18 14 25 14 8
0 14 -6 14 -14z m51 -9 c-13 -13 -26 -3 -16 12 3 6 11 8 17 5 6 -4 6 -10 -1
-17z m-77 -28 c-4 -8 0 -9 15 -4 24 7 28 -7 6 -25 -8 -7 -15 -10 -15 -6 0 4
-11 -1 -24 -9 -35 -23 -43 -1 -10 30 29 27 39 32 28 14z m46 -43 c0 -3 -4 -8
-10 -11 -5 -3 -10 -1 -10 4 0 6 5 11 10 11 6 0 10 -2 10 -4z m-65 -36 c3 -5 1
-10 -4 -10 -6 0 -11 5 -11 10 0 6 2 10 4 10 3 0 8 -4 11 -10z m-146 -41 c-16
-10 -23 -4 -14 10 3 6 11 8 17 5 6 -4 5 -9 -3 -15z m-1769 -214 c0 -8 -7 -15
-15 -15 -16 0 -20 12 -8 23 11 12 23 8 23 -8z m296 -20 c-34 -29 -37 -30 -29
-9 3 9 15 20 27 24 33 14 33 12 2 -15z m146 -17 c-7 -7 -12 -8 -12 -2 0 14 12
26 19 19 2 -3 -1 -11 -7 -17z m-39 -58 c-6 -21 -28 -27 -38 -10 -3 6 1 10 9
10 9 0 16 7 16 16 0 8 4 13 9 10 5 -3 7 -15 4 -26z m-53 -4 c0 -3 -4 -8 -10
-11 -5 -3 -10 -1 -10 4 0 6 5 11 10 11 6 0 10 -2 10 -4z m-573 -22 c-3 -3 -12
-4 -19 -1 -8 3 -5 6 6 6 11 1 17 -2 13 -5z m23 -88 c0 -3 -4 -8 -10 -11 -5 -3
-10 -1 -10 4 0 6 5 11 10 11 6 0 10 -2 10 -4z m11 -109 c-13 -12 -20 -15 -16
-7 14 26 28 41 33 35 3 -3 -5 -16 -17 -28z m724 14 c-3 -6 -11 -11 -17 -11 -6
0 -6 6 2 15 14 17 26 13 15 -4z m-750 -51 c-3 -5 -12 -10 -18 -10 -7 0 -6 4 3
10 19 12 23 12 15 0z m2651 -279 c-8 -12 -59 -21 -151 -27 -44 -3 -86 -7 -93
-10 -8 -2 -12 3 -10 14 3 14 18 18 83 23 135 9 176 9 171 0z m-2549 -7 c-3 -3
-12 -4 -19 -1 -8 3 -5 6 6 6 11 1 17 -2 13 -5z m2503 -43 c0 -10 -37 -17 -147
-27 -47 -4 -73 -2 -73 4 0 6 28 13 63 16 34 3 76 8 92 9 58 7 65 7 65 -2z
m-75 -61 c-22 -4 -66 -10 -97 -13 -46 -4 -58 -3 -58 9 0 11 19 14 98 13 75 -1
88 -3 57 -9z m0 -40 c-11 -5 -51 -8 -90 -8 -64 1 -66 2 -25 8 68 11 140 11
115 0z m-40 -46 c-14 -11 -30 -13 -55 -8 -19 4 -62 10 -95 14 -52 6 -44 7 55
8 105 1 113 0 95 -14z m-478 0 c-3 -3 -12 -4 -19 -1 -8 3 -5 6 6 6 11 1 17 -2
13 -5z"/>
<path d="M5000 2669 c0 -5 5 -7 10 -4 6 3 10 8 10 11 0 2 -4 4 -10 4 -5 0 -10
-5 -10 -11z"/>
<path d="M5517 2674 c-13 -13 -7 -19 18 -20 16 -1 24 3 22 10 -4 13 -30 20
-40 10z"/>
<path d="M4798 2656 c-19 -14 -24 -36 -9 -36 12 0 33 28 29 39 -2 6 -10 4 -20
-3z"/>
<path d="M4898 2638 c9 -9 15 -9 24 0 9 9 7 12 -12 12 -19 0 -21 -3 -12 -12z"/>
<path d="M1280 2632 c0 -5 -15 -17 -32 -25 -27 -13 -30 -17 -15 -23 11 -4 25
0 36 10 10 9 23 16 30 16 7 0 11 5 9 12 -5 15 -28 23 -28 10z"/>
<path d="M5225 2632 c-12 -13 -3 -52 14 -62 46 -24 88 1 64 39 -10 16 -68 33
-78 23z m50 -42 c-3 -5 -10 -10 -16 -10 -5 0 -9 5 -9 10 0 6 7 10 16 10 8 0
12 -4 9 -10z"/>
<path d="M4840 2619 c0 -11 27 -12 34 -1 2 4 -4 9 -15 9 -10 1 -19 -2 -19 -8z"/>
<path d="M4905 2610 c3 -5 10 -10 16 -10 5 0 9 5 9 10 0 6 -7 10 -16 10 -8 0
-12 -4 -9 -10z"/>
<path d="M5597 2614 c-4 -4 -7 -14 -7 -23 0 -11 3 -12 11 -4 6 6 10 16 7 23
-2 6 -7 8 -11 4z"/>
<path d="M4944 2595 c-8 -21 1 -29 19 -18 13 7 13 10 1 21 -12 11 -15 10 -20
-3z"/>
<path d="M1260 2573 c-19 -14 -27 -23 -17 -19 10 3 23 6 27 6 5 0 14 9 20 20
13 25 13 25 -30 -7z"/>
<path d="M4910 2570 c0 -5 5 -10 10 -10 6 0 10 5 10 10 0 6 -4 10 -10 10 -5 0
-10 -4 -10 -10z"/>
<path d="M4870 2554 c0 -8 5 -12 10 -9 6 3 10 10 10 16 0 5 -4 9 -10 9 -5 0
-10 -7 -10 -16z"/>
<path d="M5610 2560 c0 -5 5 -10 10 -10 6 0 10 5 10 10 0 6 -4 10 -10 10 -5 0
-10 -4 -10 -10z"/>
<path d="M1040 2534 c0 -8 5 -12 10 -9 6 3 10 10 10 16 0 5 -4 9 -10 9 -5 0
-10 -7 -10 -16z"/>
<path d="M1115 2520 c4 -13 2 -20 -7 -20 -8 0 -14 -9 -15 -20 -2 -27 23 -25
31 3 9 34 7 57 -5 57 -6 0 -8 -9 -4 -20z"/>
<path d="M4820 2476 c0 -9 8 -14 20 -13 24 2 21 21 -3 25 -10 2 -17 -3 -17
-12z"/>
<path d="M1191 2428 c5 -17 6 -34 3 -37 -2 -3 -7 4 -10 15 -7 26 -45 29 -51 4
-4 -16 -9 -18 -24 -9 -10 5 -19 20 -19 32 -1 20 -2 20 -16 -6 -16 -30 -11 -49
13 -45 9 2 18 -3 21 -11 3 -10 -1 -12 -19 -8 -23 6 -49 -7 -49 -24 0 -5 7 -9
15 -9 8 0 15 5 15 10 0 6 11 10 25 10 18 0 31 9 43 30 18 32 32 39 32 16 0 -8
7 -17 15 -20 22 -8 35 31 21 61 -16 34 -26 28 -15 -9z"/>
<path d="M4700 2450 c0 -7 24 -20 36 -20 13 0 1 19 -16 23 -11 3 -20 2 -20 -3z"/>
<path d="M5302 2448 c6 -18 28 -21 28 -4 0 9 -7 16 -16 16 -9 0 -14 -5 -12
-12z"/>
<path d="M1540 2435 c7 -8 16 -12 21 -9 13 8 1 24 -18 24 -13 0 -13 -3 -3 -15z"/>
<path d="M5741 2433 c0 -5 4 -16 7 -26 7 -16 9 -16 27 -3 19 14 19 15 2 16
-10 0 -15 5 -12 10 3 6 -1 10 -9 10 -9 0 -16 -3 -15 -7z"/>
<path d="M1675 2420 c-3 -5 -1 -10 4 -10 6 0 11 5 11 10 0 6 -2 10 -4 10 -3 0
-8 -4 -11 -10z"/>
<path d="M1717 2423 c-4 -3 -7 -11 -7 -17 0 -6 5 -5 12 2 6 6 9 14 7 17 -3 3
-9 2 -12 -2z"/>
<path d="M1240 2369 c0 -5 5 -7 10 -4 6 3 10 8 10 11 0 2 -4 4 -10 4 -5 0 -10
-5 -10 -11z"/>
<path d="M1710 2370 c-8 -5 -12 -11 -9 -14 7 -8 49 5 49 15 0 12 -21 11 -40
-1z"/>
<path d="M1140 2350 c0 -6 7 -10 15 -10 8 0 15 2 15 4 0 2 -7 6 -15 10 -8 3
-15 1 -15 -4z"/>
<path d="M5750 2341 c0 -10 26 -9 36 2 4 4 -2 7 -14 7 -12 0 -22 -4 -22 -9z"/>
<path d="M1100 2324 c0 -8 5 -12 10 -9 6 4 8 11 5 16 -9 14 -15 11 -15 -7z"/>
<path d="M1443 2325 c-7 -19 24 -55 47 -55 10 0 23 7 30 15 10 13 10 19 -5 35
-21 24 -63 26 -72 5z m57 -19 c0 -11 -19 -15 -25 -6 -3 5 1 10 9 10 9 0 16 -2
16 -4z"/>
<path d="M1150 2320 c0 -5 7 -10 15 -10 8 0 15 5 15 10 0 6 -7 10 -15 10 -8 0
-15 -4 -15 -10z"/>
<path d="M1055 2310 c3 -5 1 -10 -5 -10 -6 0 -8 -5 -4 -11 4 -8 9 -7 15 2 12
19 11 29 -2 29 -5 0 -7 -4 -4 -10z"/>
<path d="M1185 2310 c-10 -16 7 -31 23 -21 10 6 10 10 -2 20 -10 9 -16 9 -21
1z"/>
<path d="M1780 2305 c0 -8 5 -15 10 -15 6 0 10 7 10 15 0 8 -4 15 -10 15 -5 0
-10 -7 -10 -15z"/>
<path d="M4460 2280 c0 -11 2 -20 4 -20 2 0 6 9 9 20 3 11 1 20 -4 20 -5 0 -9
-9 -9 -20z"/>
<path d="M1120 2269 c0 -5 5 -7 10 -4 6 3 10 8 10 11 0 2 -4 4 -10 4 -5 0 -10
-5 -10 -11z"/>
<path d="M1800 2269 c0 -5 5 -7 10 -4 6 3 10 8 10 11 0 2 -4 4 -10 4 -5 0 -10
-5 -10 -11z"/>
<path d="M4992 2264 c2 -15 15 -20 53 -24 l50 -5 2 -80 3 -80 -34 38 c-36 40
-66 49 -66 18 0 -16 87 -101 128 -125 15 -9 122 88 122 110 0 24 -30 23 -60
-2 l-30 -26 0 39 c0 21 -3 47 -5 58 -8 32 8 45 58 46 31 2 47 7 47 15 0 23
-32 30 -153 33 -111 3 -119 2 -115 -15z"/>
<path d="M4095 2250 c-8 -13 15 -24 27 -12 6 6 4 11 -6 15 -8 3 -18 2 -21 -3z"/>
<path d="M1036 2234 c-4 -9 -2 -22 4 -29 8 -9 7 -15 -2 -18 -10 -4 -10 -6 0
-6 6 -1 12 -8 12 -16 0 -8 4 -15 8 -15 7 0 8 29 4 83 -2 22 -18 22 -26 1z"/>
<path d="M1943 2228 c-33 -16 -30 -64 3 -51 19 7 18 21 -3 26 -16 4 -16 5 -2
6 9 0 19 8 23 16 3 8 4 15 3 14 -1 0 -12 -5 -24 -11z"/>
<path d="M4145 2210 c-3 -5 -2 -10 4 -10 5 0 13 5 16 10 3 6 2 10 -4 10 -5 0
-13 -4 -16 -10z"/>
<path d="M4593 2204 c-3 -8 -1 -20 5 -26 15 -15 43 8 35 28 -7 19 -32 18 -40
-2z"/>
<path d="M1080 2196 c0 -9 7 -16 16 -16 17 0 14 22 -4 28 -7 2 -12 -3 -12 -12z"/>
<path d="M6050 2193 c0 -18 6 -23 25 -23 14 0 25 5 25 11 0 6 -7 9 -15 5 -8
-3 -19 2 -24 12 -9 15 -10 14 -11 -5z"/>
<path d="M5654 2189 c-9 -15 9 -30 45 -38 l31 -6 -66 -70 c-36 -38 -63 -61
-60 -51 8 25 -2 56 -19 56 -15 0 -40 -92 -31 -117 5 -13 17 -15 76 -10 77 6
125 24 125 47 0 12 -11 14 -45 12 l-45 -3 35 37 c83 87 82 86 109 79 42 -11
66 -11 68 0 4 17 -71 53 -133 64 -72 14 -81 14 -90 0z"/>
<path d="M4438 2137 c-91 -49 -114 -70 -86 -79 6 -2 34 8 61 23 l50 27 57 -37
c32 -20 66 -41 76 -48 16 -10 12 -12 -28 -12 -36 -1 -48 -5 -48 -16 0 -24 23
-28 113 -20 107 8 112 11 88 59 -11 21 -17 44 -15 51 6 15 -31 39 -47 30 -5
-4 -7 -21 -3 -41 3 -19 2 -34 -3 -34 -12 0 -133 77 -133 85 0 2 14 11 30 20
36 18 40 45 8 44 -13 0 -67 -24 -120 -52z"/>
<path d="M1522 2171 c4 -13 18 -16 19 -4 0 4 -5 9 -11 12 -7 2 -11 -2 -8 -8z"/>
<path d="M6097 2162 c-20 -22 -22 -33 -4 -26 15 6 40 44 29 44 -5 0 -16 -8
-25 -18z"/>
<path d="M1930 2068 c0 -4 7 -8 15 -8 8 0 15 4 15 8 0 5 -7 9 -15 9 -8 0 -15
-4 -15 -9z"/>
<path d="M6140 2045 c-7 -9 -11 -18 -8 -20 3 -3 11 1 18 10 7 9 11 18 8 20 -3
3 -11 -1 -18 -10z"/>
<path d="M746 2021 c-4 -7 -5 -15 -2 -18 9 -9 19 4 14 18 -4 11 -6 11 -12 0z"/>
<path d="M2117 1991 c5 -21 33 -37 33 -20 0 10 -24 39 -33 39 -3 0 -3 -9 0
-19z"/>
<path d="M490 1984 c0 -8 5 -12 10 -9 6 3 10 10 10 16 0 5 -4 9 -10 9 -5 0
-10 -7 -10 -16z"/>
<path d="M415 1980 c3 -5 10 -10 16 -10 5 0 9 5 9 10 0 6 -7 10 -16 10 -8 0
-12 -4 -9 -10z"/>
<path d="M6090 1971 c-14 -27 -13 -51 4 -51 7 0 16 -13 20 -30 3 -16 10 -30
15 -30 9 0 -3 47 -22 85 -7 13 -6 20 2 23 13 4 15 22 1 22 -5 0 -14 -9 -20
-19z"/>
<path d="M1296 1971 c-3 -4 6 -19 19 -31 35 -33 31 -48 -15 -66 -25 -10 -40
-23 -40 -33 0 -27 133 -140 144 -123 8 13 -13 34 -61 65 -49 31 -55 54 -18 63
57 14 62 57 12 112 -22 24 -33 27 -41 13z"/>
<path d="M1390 1965 c0 -9 7 -30 16 -46 15 -30 15 -31 -23 -65 l-38 -34 30
-25 c103 -85 105 -86 105 -56 0 12 -17 29 -47 46 l-46 28 31 26 c38 31 38 34
12 95 -21 45 -40 61 -40 31z"/>
<path d="M6150 1965 c-7 -9 -11 -18 -8 -20 3 -3 11 1 18 10 7 9 11 18 8 20 -3
3 -11 -1 -18 -10z"/>
<path d="M460 1949 c0 -5 5 -7 10 -4 6 3 10 8 10 11 0 2 -4 4 -10 4 -5 0 -10
-5 -10 -11z"/>
<path d="M832 1938 c3 -7 20 -15 39 -19 57 -9 74 -30 47 -57 -8 -8 -18 -5 -39
13 -32 26 -133 45 -151 27 -12 -12 3 -17 74 -27 57 -7 64 -16 42 -50 -15 -23
-15 -27 0 -50 14 -22 24 -25 76 -25 32 0 62 5 65 10 4 6 -17 10 -54 10 -55 0
-61 2 -61 20 0 28 19 33 65 17 45 -16 104 -17 108 -2 1 6 -16 11 -38 13 -63 4
-71 9 -50 31 23 27 16 51 -24 78 -37 25 -106 32 -99 11z"/>
<path d="M6162 1916 c-10 -22 -9 -23 11 -18 20 5 21 4 8 -11 -12 -15 -12 -17
1 -12 19 7 22 65 4 65 -7 0 -18 -11 -24 -24z"/>
<path d="M2246 1899 c-11 -10 -17 -21 -14 -24 7 -7 38 23 38 36 0 12 -2 11
-24 -12z"/>
<path d="M1805 1886 c-47 -15 -85 -37 -85 -50 0 -5 10 -20 22 -33 21 -23 21
-23 2 -38 -10 -8 -31 -15 -46 -15 -30 0 -39 -24 -14 -33 22 -9 81 11 101 33
18 20 18 21 -5 45 -18 19 -20 27 -11 38 15 19 91 40 129 36 37 -4 44 13 10 23
-35 9 -59 8 -103 -6z"/>
<path d="M4093 1818 c-7 -56 -7 -87 0 -96 17 -21 32 -8 37 34 l5 39 65 -3
c103 -5 122 -10 110 -32 -29 -54 11 -54 69 0 24 22 41 47 39 56 -4 22 -93 68
-116 59 -15 -6 -15 -8 6 -25 12 -10 18 -21 13 -24 -5 -4 -48 -3 -95 0 l-85 7
-3 31 c-2 19 -9 32 -19 34 -13 2 -18 -13 -26 -80z"/>
<path d="M1833 1834 c-22 -9 -14 -44 12 -56 14 -6 25 -15 25 -19 0 -13 -59
-50 -96 -61 -24 -6 -33 -13 -26 -20 12 -12 75 4 120 32 37 23 42 52 11 74 -33
23 -14 38 38 30 36 -5 45 -4 41 7 -5 14 -99 24 -125 13z"/>
<path d="M5767 1806 c-69 -39 -79 -48 -72 -67 8 -21 106 -79 133 -79 32 0 27
15 -13 40 -19 12 -35 23 -35 24 0 3 117 -4 168 -10 40 -5 42 -7 42 -40 0 -36
10 -43 30 -19 13 15 14 31 11 128 -1 43 -5 57 -16 57 -15 0 -18 -9 -16 -47 3
-29 -37 -37 -135 -28 l-76 8 29 18 c28 19 37 40 18 44 -5 2 -36 -12 -68 -29z"/>
<path d="M6117 1823 c-13 -13 -7 -53 8 -53 10 0 15 10 15 30 0 29 -9 38 -23
23z"/>
<path d="M2281 1793 c-18 -20 -4 -31 15 -11 9 9 12 18 7 21 -4 3 -14 -2 -22
-10z"/>
<path d="M2245 1730 c-3 -5 1 -10 9 -10 9 0 16 5 16 10 0 6 -4 10 -9 10 -6 0
-13 -4 -16 -10z"/>
<path d="M6156 1718 c-17 -9 -16 -11 4 -25 22 -16 32 -12 36 12 3 18 -18 25
-40 13z"/>
<path d="M2230 1696 c0 -8 7 -16 15 -20 8 -3 15 -17 15 -31 0 -14 5 -25 11
-25 12 0 2 58 -13 78 -14 16 -28 15 -28 -2z"/>
<path d="M6110 1685 c-8 -9 -8 -15 -2 -15 12 0 26 19 19 26 -2 2 -10 -2 -17
-11z"/>
<path d="M2302 1670 c-16 -26 -1 -26 29 0 23 18 23 19 4 20 -11 0 -26 -9 -33
-20z"/>
<path d="M2320 1639 c0 -5 5 -7 10 -4 6 3 10 8 10 11 0 2 -4 4 -10 4 -5 0 -10
-5 -10 -11z"/>
<path d="M6070 1615 c-8 -9 -8 -15 -2 -15 12 0 26 19 19 26 -2 2 -10 -2 -17
-11z"/>
<path d="M1855 1611 c-37 -9 -75 -29 -75 -40 0 -17 13 -19 45 -5 54 22 85 19
85 -10 0 -39 19 -47 91 -35 68 11 90 22 73 39 -6 6 -22 6 -44 0 -57 -16 -90
-13 -90 9 0 17 -35 53 -50 50 -3 -1 -18 -4 -35 -8z"/>
<path d="M4566 1612 c-8 -13 20 -42 41 -42 30 0 -6 -27 -67 -50 -55 -20 -61
-21 -75 -6 -29 28 -56 39 -68 27 -8 -8 8 -31 58 -83 95 -98 100 -102 112 -72
3 9 -5 27 -22 44 -16 17 -27 31 -24 34 3 3 129 65 152 75 5 2 4 -7 -3 -19 -13
-25 -7 -50 14 -50 17 0 81 109 69 120 -4 5 -37 10 -73 13 -36 2 -75 7 -86 11
-12 5 -24 3 -28 -2z"/>
<path d="M5495 1572 c-19 -26 -35 -55 -35 -64 0 -28 39 -22 52 7 6 14 14 24
17 23 10 -5 131 -134 131 -140 0 -3 -20 -11 -45 -17 -36 -9 -45 -16 -45 -32 0
-19 4 -21 32 -15 17 3 54 17 82 30 28 13 70 30 94 37 50 15 73 36 48 45 -9 3
-29 3 -44 0 -75 -19 -76 -19 -116 23 l-39 40 43 -2 c53 -2 63 16 18 33 -18 7
-55 27 -82 44 -27 17 -56 31 -63 32 -8 1 -29 -19 -48 -44z"/>
<path d="M762 1574 c-50 -47 -70 -50 -130 -20 -51 26 -102 34 -102 17 0 -14
28 -33 40 -26 6 4 33 -5 60 -19 66 -34 90 -33 144 9 51 39 67 42 86 20 18 -22
108 -66 115 -56 4 8 -36 41 -50 41 -4 0 -21 11 -38 24 -18 14 -45 29 -60 35
-24 10 -31 7 -65 -25z"/>
<path d="M2284 1590 c-22 -9 -37 -34 -27 -44 12 -11 23 -6 23 10 0 9 8 23 18
30 20 15 16 16 -14 4z"/>
<path d="M5028 1512 c-31 -26 -57 -53 -57 -59 -1 -21 30 -15 65 12 18 14 37
25 43 25 7 0 11 -27 11 -70 l0 -70 -54 0 c-55 0 -80 -14 -55 -31 8 -5 84 -8
169 -7 130 3 155 5 155 18 0 12 -16 15 -82 15 l-82 0 -7 73 c-3 40 -5 75 -2
77 2 3 21 -7 41 -21 37 -25 71 -29 71 -9 0 15 -116 94 -139 94 -11 0 -46 -21
-77 -47z"/>
<path d="M6060 1542 c-13 -10 -21 -23 -19 -28 2 -5 17 3 33 19 32 30 21 37
-14 9z"/>
<path d="M1798 1529 c-30 -17 -20 -28 25 -26 37 2 42 -1 45 -21 6 -44 39 -48
152 -20 51 12 65 22 56 36 -4 7 -21 6 -48 -3 -88 -26 -118 -28 -125 -8 -17 48
-63 67 -105 42z"/>
<path d="M751 1485 c-21 -19 -41 -35 -44 -35 -4 0 -28 14 -54 30 -31 20 -60
30 -86 30 -51 0 -45 -23 9 -30 21 -3 57 -18 79 -33 52 -36 75 -34 121 8 21 19
40 35 42 35 2 0 23 -11 46 -25 24 -14 45 -22 49 -19 8 8 -3 34 -15 34 -5 0
-21 9 -35 20 -37 29 -68 25 -112 -15z"/>
<path d="M2257 1463 c-4 -3 -7 -11 -7 -17 0 -6 5 -5 12 2 6 6 9 14 7 17 -3 3
-9 2 -12 -2z"/>
<path d="M2220 1395 c-8 -9 -8 -15 -2 -15 12 0 26 19 19 26 -2 2 -10 -2 -17
-11z"/>
<path d="M5911 1374 c0 -11 3 -14 6 -6 3 7 2 16 -1 19 -3 4 -6 -2 -5 -13z"/>
<path d="M1688 1339 c-26 -63 -13 -79 75 -95 20 -3 39 -10 42 -14 2 -4 -5 -24
-16 -44 -16 -30 -17 -41 -8 -52 17 -21 23 -18 37 24 28 80 28 80 -19 102 -24
11 -54 20 -66 20 -27 0 -28 10 -8 51 9 16 13 34 10 39 -13 20 -31 8 -47 -31z"/>
<path d="M1760 1361 c-13 -25 -13 -58 0 -66 5 -3 35 -8 66 -10 31 -2 58 -6 60
-8 2 -2 -3 -27 -12 -56 -15 -51 -14 -81 3 -81 7 0 16 21 42 102 14 41 -17 68
-79 68 -50 0 -71 13 -51 33 6 6 11 17 11 24 0 20 -28 15 -40 -6z"/>
<path d="M1003 1339 c-57 -22 -58 -24 -42 -66 13 -34 -4 -49 -67 -59 -45 -6
-62 -18 -45 -29 12 -7 96 13 133 31 26 14 27 15 12 49 l-14 35 32 13 c18 8 45
17 61 21 15 3 27 11 27 16 0 16 -40 11 -97 -11z"/>
<path d="M1379 1339 c-37 -23 -68 -57 -69 -76 0 -7 18 -24 41 -38 22 -15 39
-31 36 -38 -2 -7 -28 -24 -58 -39 -41 -21 -49 -28 -36 -34 22 -8 99 20 122 46
21 23 8 51 -35 77 -17 9 -30 21 -30 26 0 5 19 26 42 46 47 42 39 60 -13 30z"/>
<path d="M2213 1333 c-13 -9 -23 -22 -23 -31 0 -10 8 -7 27 12 30 31 28 41 -4
19z"/>
<path d="M1442 1312 c-49 -31 -50 -48 -5 -77 47 -29 43 -57 -12 -95 -43 -29
-60 -61 -32 -59 16 1 97 60 110 80 16 26 -1 67 -34 84 -35 19 -29 34 22 55 30
13 35 33 8 37 -8 1 -33 -10 -57 -25z"/>
<path d="M5942 1321 c-11 -7 -11 -9 2 -14 10 -4 16 -1 16 8 0 17 -1 17 -18 6z"/>
<path d="M1062 1300 c-28 -12 -37 -33 -23 -58 14 -26 -10 -47 -71 -62 -51 -13
-86 -40 -52 -40 23 0 95 25 136 46 30 15 31 23 13 66 -5 12 2 19 29 29 19 7
33 16 30 21 -7 10 -33 9 -62 -2z"/>
<path d="M5862 1293 c-10 -4 -10 -8 0 -21 8 -9 8 -13 2 -9 -7 4 -15 0 -18 -9
-9 -23 -1 -28 22 -13 38 23 32 65 -6 52z"/>
<path d="M6019 1289 c-7 -36 -8 -52 -2 -43 5 6 14 13 22 15 10 4 10 7 -3 18
-9 7 -16 12 -17 10z"/>
<path d="M3974 1258 c-5 -8 -2 -9 10 -5 16 6 17 3 12 -20 -5 -23 -4 -25 5 -10
12 20 6 47 -10 47 -5 0 -13 -5 -17 -12z"/>
<path d="M4486 1254 c-27 -27 -11 -60 23 -49 25 7 29 35 5 35 -10 0 -14 6 -10
15 7 19 1 19 -18 -1z"/>
<path d="M5810 1259 c0 -5 5 -7 10 -4 6 3 10 8 10 11 0 2 -4 4 -10 4 -5 0 -10
-5 -10 -11z"/>
<path d="M5910 1217 c0 -16 6 -23 20 -24 11 -1 20 0 20 3 0 2 -9 13 -20 24
l-20 20 0 -23z"/>
<path d="M4620 1209 c0 -5 5 -7 10 -4 6 3 10 8 10 11 0 2 -4 4 -10 4 -5 0 -10
-5 -10 -11z"/>
<path d="M5847 1213 c-12 -11 -8 -23 8 -23 8 0 15 7 15 15 0 16 -12 20 -23 8z"/>
<path d="M4297 1193 c-4 -3 -7 -11 -7 -17 0 -6 5 -5 12 2 6 6 9 14 7 17 -3 3
-9 2 -12 -2z"/>
<path d="M4330 1191 c0 -5 5 -13 10 -16 6 -3 10 -2 10 4 0 5 -4 13 -10 16 -5
3 -10 2 -10 -4z"/>
<path d="M5767 1193 c-4 -3 -7 -11 -7 -17 0 -6 5 -5 12 2 6 6 9 14 7 17 -3 3
-9 2 -12 -2z"/>
<path d="M2260 1179 c0 -6 9 -9 20 -6 11 3 23 1 26 -4 7 -12 24 -11 24 2 0 5
-4 8 -9 4 -5 -3 -12 -1 -16 5 -8 14 -45 13 -45 -1z"/>
<path d="M5815 1170 c-3 -5 -2 -10 4 -10 5 0 13 5 16 10 3 6 2 10 -4 10 -5 0
-13 -4 -16 -10z"/>
<path d="M5910 1170 c0 -5 9 -14 20 -20 11 -6 20 -7 20 -3 0 5 -9 14 -20 21
-11 7 -20 8 -20 2z"/>
<path d="M5960 1169 c0 -5 5 -7 10 -4 6 3 10 8 10 11 0 2 -4 4 -10 4 -5 0 -10
-5 -10 -11z"/>
<path d="M4640 1127 c0 -8 -9 -17 -21 -20 -13 -3 -18 -10 -14 -17 5 -9 10 -9
18 -1 6 6 19 11 29 11 22 0 23 7 3 26 -13 13 -15 13 -15 1z"/>
<path d="M2090 1121 c0 -5 7 -11 15 -15 9 -3 15 0 15 9 0 8 -7 15 -15 15 -8 0
-15 -4 -15 -9z"/>
<path d="M2230 1106 c0 -9 5 -16 10 -16 6 0 10 4 10 9 0 6 -4 13 -10 16 -5 3
-10 -1 -10 -9z"/>
<path d="M365 1090 c-4 -7 0 -19 9 -28 13 -14 16 -14 16 -2 0 25 -16 44 -25
30z"/>
<path d="M2023 1085 c4 -8 2 -17 -3 -20 -16 -10 -11 -25 7 -25 9 0 14 3 10 6
-3 4 1 13 9 21 16 17 10 33 -13 33 -9 0 -13 -6 -10 -15z"/>
<path d="M2170 1085 c0 -8 7 -15 16 -15 14 0 14 3 4 15 -7 8 -14 15 -16 15 -2
0 -4 -7 -4 -15z"/>
<path d="M5178 1093 c-10 -2 -18 -11 -18 -19 0 -11 7 -13 26 -8 18 5 25 3 20
-4 -3 -6 -2 -13 4 -17 5 -3 10 3 10 14 0 12 7 21 15 21 8 0 15 5 15 10 0 10
-40 12 -72 3z"/>
<path d="M1980 1069 c0 -5 5 -7 10 -4 6 3 10 8 10 11 0 2 -4 4 -10 4 -5 0 -10
-5 -10 -11z"/>
<path d="M5042 1069 c-13 -5 -20 -13 -17 -19 4 -7 12 -7 25 0 10 5 28 10 39
10 12 0 21 5 21 10 0 12 -37 12 -68 -1z"/>
<path d="M5262 1068 c2 -6 10 -14 16 -16 7 -2 10 2 6 12 -7 18 -28 22 -22 4z"/>
<path d="M5302 1061 c4 -13 18 -16 19 -4 0 4 -5 9 -11 12 -7 2 -11 -2 -8 -8z"/>
<path d="M5545 1061 c-3 -5 -2 -12 2 -14 9 -5 53 10 53 18 0 9 -49 5 -55 -4z"/>
<path d="M5885 1063 c-52 -13 -21 -18 133 -21 106 -2 163 0 157 6 -11 11 -258
24 -290 15z"/>
<path d="M5610 1050 c0 -5 7 -10 15 -10 8 0 15 5 15 10 0 6 -7 10 -15 10 -8 0
-15 -4 -15 -10z"/>
<path d="M5755 1050 c-8 -13 15 -24 27 -12 6 6 4 11 -6 15 -8 3 -18 2 -21 -3z"/>
<path d="M4965 1040 c-3 -5 1 -10 9 -10 8 0 18 5 21 10 3 6 -1 10 -9 10 -8 0
-18 -4 -21 -10z"/>
<path d="M2070 1025 c0 -9 4 -14 9 -11 5 4 11 1 13 -6 3 -9 6 -9 11 -1 5 7 -1
17 -13 23 -16 9 -20 8 -20 -5z"/>
<path d="M4890 1026 c0 -9 7 -16 16 -16 17 0 14 22 -4 28 -7 2 -12 -3 -12 -12z"/>
<path d="M6280 1032 c0 -14 11 -21 26 -15 21 8 17 23 -6 23 -11 0 -20 -4 -20
-8z"/>
<path d="M2017 1023 c-10 -9 -9 -23 2 -23 5 0 11 7 15 15 5 15 -5 20 -17 8z"/>
<path d="M4775 1010 c-11 -18 13 -36 31 -25 9 6 16 15 17 20 3 14 -40 18 -48
5z"/>
<path d="M625 1000 c3 -5 8 -10 11 -10 2 0 4 5 4 10 0 6 -5 10 -11 10 -5 0 -7
-4 -4 -10z"/>
<path d="M1930 1000 c0 -5 5 -10 10 -10 6 0 10 5 10 10 0 6 -4 10 -10 10 -5 0
-10 -4 -10 -10z"/>
<path d="M1985 990 c-3 -5 -1 -10 4 -10 6 0 11 5 11 10 0 6 -2 10 -4 10 -3 0
-8 -4 -11 -10z"/>
<path d="M6177 993 c-15 -14 -6 -23 23 -23 32 0 40 14 14 24 -20 8 -29 8 -37
-1z"/>
<path d="M2083 973 c9 -9 20 -13 24 -9 4 4 1 11 -7 16 -25 16 -35 11 -17 -7z"/>
<path d="M4630 979 c0 -5 5 -7 10 -4 6 3 10 8 10 11 0 2 -4 4 -10 4 -5 0 -10
-5 -10 -11z"/>
<path d="M4647 939 c4 -13 8 -18 11 -10 2 7 -1 18 -6 23 -8 8 -9 4 -5 -13z"/>
<path d="M1387 913 c-25 -24 11 -30 58 -8 l30 13 -41 1 c-22 1 -44 -2 -47 -6z"/>
<path d="M1283 898 c-32 -15 -29 -30 5 -22 34 9 42 13 42 25 0 12 -19 11 -47
-3z"/>
<path d="M1481 894 c0 -11 3 -14 6 -6 3 7 2 16 -1 19 -3 4 -6 -2 -5 -13z"/>
<path d="M1420 880 c0 -5 5 -10 10 -10 6 0 10 5 10 10 0 6 -4 10 -10 10 -5 0
-10 -4 -10 -10z"/>
<path d="M1515 880 c3 -5 8 -10 11 -10 2 0 4 5 4 10 0 6 -5 10 -11 10 -5 0 -7
-4 -4 -10z"/>
<path d="M1730 880 c0 -5 9 -10 19 -10 11 0 23 5 26 10 4 6 -5 10 -19 10 -14
0 -26 -4 -26 -10z"/>
<path d="M1800 880 c0 -5 5 -10 10 -10 6 0 10 5 10 10 0 6 -4 10 -10 10 -5 0
-10 -4 -10 -10z"/>
<path d="M2076 881 c11 -11 233 -21 239 -11 6 10 -74 20 -168 20 -48 0 -77 -4
-71 -9z"/>
<path d="M1205 870 c-3 -5 1 -10 9 -10 9 0 16 5 16 10 0 6 -4 10 -9 10 -6 0
-13 -4 -16 -10z"/>
<path d="M1920 870 c0 -5 6 -10 14 -10 8 0 18 5 21 10 3 6 -3 10 -14 10 -12 0
-21 -4 -21 -10z"/>
<path d="M1136 863 c-11 -11 -6 -23 9 -23 8 0 15 4 15 9 0 13 -16 22 -24 14z"/>
<path d="M2049 860 c-3 -8 -4 -23 -1 -33 4 -15 11 -18 36 -13 17 4 35 11 41
17 7 7 -1 9 -27 4 -33 -6 -37 -5 -40 17 -2 16 -5 18 -9 8z"/>
<path d="M2412 858 c5 -15 28 -18 29 -3 0 6 -7 12 -17 13 -10 3 -15 -1 -12
-10z"/>
<path d="M1030 836 c0 -19 25 -27 39 -13 18 18 13 27 -14 27 -15 0 -25 -6 -25
-14z"/>
<path d="M2315 820 c-8 -13 20 -24 36 -15 8 6 7 10 -2 16 -18 11 -26 11 -34
-1z"/>
<path d="M6386 751 c-7 -10 52 -26 61 -17 8 8 3 12 -29 20 -15 3 -29 2 -32 -3z"/>
<path d="M6325 690 c-4 -6 12 -10 42 -9 39 1 43 3 23 9 -36 11 -58 11 -65 0z"/>
<path d="M6583 683 c-13 -2 -23 -9 -23 -14 0 -14 34 -11 56 6 20 15 13 17 -33
8z"/>
<path d="M6650 680 c0 -12 24 -12 60 0 21 7 19 8 -17 9 -24 1 -43 -3 -43 -9z"/>
<path d="M6760 680 c23 -13 190 -25 190 -13 0 9 -114 23 -179 23 -20 -1 -23
-3 -11 -10z"/>
<path d="M6340 641 c0 -9 71 -22 80 -14 2 2 -2 8 -10 13 -19 12 -70 13 -70 1z"/>
<path d="M6672 618 c5 -15 59 -22 95 -13 41 10 15 25 -43 25 -40 0 -55 -4 -52
-12z"/>
<path d="M2515 590 c28 -12 55 -12 55 0 0 6 -17 10 -37 9 -31 0 -34 -2 -18 -9z"/>
<path d="M6375 550 c-3 -5 1 -13 10 -16 22 -9 29 1 11 15 -10 8 -16 9 -21 1z"/>
<path d="M2450 540 c0 -5 16 -10 36 -10 21 0 33 4 29 10 -3 6 -19 10 -36 10
-16 0 -29 -4 -29 -10z"/>
<path d="M2768 543 c-30 -8 -20 -20 12 -15 17 2 30 8 30 13 0 9 -13 10 -42 2z"/>
<path d="M2677 533 c-15 -14 -6 -24 16 -18 35 11 44 25 16 25 -14 0 -29 -3
-32 -7z"/>
<path d="M2466 502 c-3 -6 11 -12 32 -14 57 -8 61 4 5 16 -17 4 -34 3 -37 -2z"/>
<path d="M6340 490 c0 -5 16 -10 36 -10 21 0 33 4 29 10 -3 6 -19 10 -36 10
-16 0 -29 -4 -29 -10z"/>
<path d="M2770 475 c0 -11 12 -15 49 -15 50 0 74 13 45 24 -9 3 -33 6 -55 6
-28 0 -39 -4 -39 -15z"/>
<path d="M5963 464 c-28 -12 -10 -24 36 -24 44 0 160 -12 234 -25 18 -3 27 0
27 8 0 12 -42 19 -250 42 -19 3 -41 2 -47 -1z"/>
<path d="M5805 450 c4 -6 11 -8 16 -5 14 9 11 15 -7 15 -8 0 -12 -5 -9 -10z"/>
<path d="M6295 430 c3 -5 15 -10 26 -10 10 0 19 5 19 10 0 6 -12 10 -26 10
-14 0 -23 -4 -19 -10z"/>
<path d="M2496 411 c-3 -5 1 -11 9 -15 15 -6 29 7 18 18 -9 9 -21 8 -27 -3z"/>
<path d="M2460 360 c0 -5 14 -10 30 -10 17 0 30 5 30 10 0 6 -13 10 -30 10
-16 0 -30 -4 -30 -10z"/>
<path d="M1970 330 c0 -5 5 -10 11 -10 5 0 7 5 4 10 -3 6 -8 10 -11 10 -2 0
-4 -4 -4 -10z"/>
<path d="M2107 332 c-4 -5 36 -14 101 -21 59 -7 124 -15 145 -18 21 -3 37 -1
37 4 0 17 -274 51 -283 35z"/>
<path d="M2420 311 c0 -11 26 -22 34 -14 3 3 3 10 0 14 -7 12 -34 11 -34 0z"/>
<path d="M3940 146 c0 -8 18 -25 41 -38 39 -22 40 -23 17 -29 -16 -5 -9 -7 25
-8 26 -1 47 3 47 8 0 9 -110 81 -124 81 -3 0 -6 -6 -6 -14z"/>
</g>
</svg>
