<?xml version="1.0" standalone="no"?>
<!DOCTYPE svg PUBLIC "-//W3C//DTD SVG 20010904//EN"
 "http://www.w3.org/TR/2001/REC-SVG-20010904/DTD/svg10.dtd">
<svg version="1.0" xmlns="http://www.w3.org/2000/svg"
 width="70.000000pt" height="70.000000pt" viewBox="0 0 70.000000 70.000000"
 preserveAspectRatio="xMidYMid meet">
<metadata>
Created by potrace 1.16, written by Peter Selinger 2001-2019
</metadata>
<g transform="translate(0.000000,70.000000) scale(0.100000,-0.100000)"
fill="#000000" stroke="none">
<path d="M270 513 c-21 -32 -30 -60 -30 -88 0 -35 6 -46 45 -84 54 -52 57 -80
16 -142 -28 -41 -31 -59 -10 -59 21 0 69 94 69 135 0 35 -6 46 -45 84 -54 52
-57 80 -16 142 28 41 31 59 10 59 -5 0 -23 -21 -39 -47z"/>
<path d="M370 513 c-21 -32 -30 -60 -30 -88 0 -35 6 -46 45 -84 54 -52 57 -80
16 -142 -28 -41 -31 -59 -10 -59 21 0 69 94 69 135 0 35 -6 46 -45 84 -54 52
-57 80 -16 142 28 41 31 59 10 59 -5 0 -23 -21 -39 -47z"/>
</g>
</svg>
