<?xml version="1.0" standalone="no"?>
<!DOCTYPE svg PUBLIC "-//W3C//DTD SVG 20010904//EN"
 "http://www.w3.org/TR/2001/REC-SVG-20010904/DTD/svg10.dtd">
<svg version="1.0" xmlns="http://www.w3.org/2000/svg"
 width="70.000000pt" height="70.000000pt" viewBox="0 0 70.000000 70.000000"
 preserveAspectRatio="xMidYMid meet">
<metadata>
Created by potrace 1.16, written by Peter Selinger 2001-2019
</metadata>
<g transform="translate(0.000000,70.000000) scale(0.100000,-0.100000)"
fill="#000000" stroke="none">
<path d="M265 460 c-54 -55 -67 -72 -57 -82 10 -10 24 -1 67 42 l55 54 0 -64
0 -65 -66 -78 c-36 -42 -62 -82 -59 -88 10 -16 18 -9 83 69 l61 72 57 -67 c55
-66 84 -87 84 -62 0 6 -25 41 -56 77 -67 79 -75 98 -67 158 l6 45 46 -45 c47
-46 71 -57 71 -33 0 18 -122 137 -141 137 -8 0 -46 -31 -84 -70z"/>
</g>
</svg>
