<?xml version="1.0" standalone="no"?>
<!DOCTYPE svg PUBLIC "-//W3C//DTD SVG 20010904//EN"
 "http://www.w3.org/TR/2001/REC-SVG-20010904/DTD/svg10.dtd">
<svg version="1.0" xmlns="http://www.w3.org/2000/svg"
 width="70.000000pt" height="70.000000pt" viewBox="0 0 70.000000 70.000000"
 preserveAspectRatio="xMidYMid meet">
<metadata>
Created by potrace 1.16, written by Peter Selinger 2001-2019
</metadata>
<g transform="translate(0.000000,70.000000) scale(0.100000,-0.100000)"
fill="#000000" stroke="none">
<path d="M245 620 c-8 -12 5 -109 17 -133 5 -10 23 -23 39 -29 l29 -10 0 -189
c0 -161 2 -189 15 -189 13 0 15 28 15 188 l0 188 33 12 c42 15 61 49 61 109 1
67 -21 68 -30 2 -7 -49 -31 -89 -54 -89 -5 0 -10 33 -12 73 -2 39 -7 72 -13
72 -5 0 -12 -33 -15 -73 l-5 -73 -22 16 c-15 10 -23 26 -23 44 0 67 -18 109
-35 81z"/>
</g>
</svg>
