<?xml version="1.0" standalone="no"?>
<!DOCTYPE svg PUBLIC "-//W3C//DTD SVG 20010904//EN"
 "http://www.w3.org/TR/2001/REC-SVG-20010904/DTD/svg10.dtd">
<svg version="1.0" xmlns="http://www.w3.org/2000/svg"
 width="70.000000pt" height="70.000000pt" viewBox="0 0 70.000000 70.000000"
 preserveAspectRatio="xMidYMid meet">
<metadata>
Created by potrace 1.16, written by Peter Selinger 2001-2019
</metadata>
<g transform="translate(0.000000,70.000000) scale(0.100000,-0.100000)"
fill="#000000" stroke="none">
<path d="M311 455 c-22 -30 -41 -59 -41 -65 0 -19 19 -10 44 22 14 18 27 30
29 28 2 -3 1 -44 -1 -92 l-4 -87 -32 -3 c-17 -2 -30 -7 -28 -13 3 -15 174 -13
180 3 2 8 -10 12 -42 12 l-46 0 0 90 c0 50 3 90 8 90 4 0 16 -14 27 -30 20
-31 52 -42 42 -15 -9 21 -80 115 -88 115 -4 0 -25 -25 -48 -55z"/>
</g>
</svg>
