<?xml version="1.0" standalone="no"?>
<!DOCTYPE svg PUBLIC "-//W3C//DTD SVG 20010904//EN"
 "http://www.w3.org/TR/2001/REC-SVG-20010904/DTD/svg10.dtd">
<svg version="1.0" xmlns="http://www.w3.org/2000/svg"
 width="70.000000pt" height="70.000000pt" viewBox="0 0 70.000000 70.000000"
 preserveAspectRatio="xMidYMid meet">
<metadata>
Created by potrace 1.16, written by Peter Selinger 2001-2019
</metadata>
<g transform="translate(0.000000,70.000000) scale(0.100000,-0.100000)"
fill="#000000" stroke="none">
<path d="M225 479 c-4 -6 18 -34 49 -62 l56 -51 -27 -28 -27 -28 -58 57 c-45
45 -60 55 -70 45 -10 -10 0 -25 46 -71 l58 -59 -23 -15 c-26 -19 -28 -18 -101
52 -36 33 -51 42 -59 34 -9 -9 6 -28 56 -75 37 -35 71 -64 76 -66 5 -2 41 26
81 62 l72 66 71 -70 c39 -38 74 -70 78 -70 14 0 137 114 137 128 0 24 -25 11
-77 -40 l-53 -52 -31 30 -30 31 60 49 c57 46 76 74 50 74 -6 0 -37 -22 -69
-50 -32 -27 -62 -50 -67 -50 -6 0 -18 10 -29 21 -19 21 -19 22 39 73 31 28 57
57 57 64 0 16 -256 17 -265 1z m175 -54 c-19 -19 -39 -35 -45 -35 -6 0 -26 16
-45 35 l-34 35 79 0 79 0 -34 -35z"/>
</g>
</svg>
