<?xml version="1.0" standalone="no"?>
<!DOCTYPE svg PUBLIC "-//W3C//DTD SVG 20010904//EN"
 "http://www.w3.org/TR/2001/REC-SVG-20010904/DTD/svg10.dtd">
<svg version="1.0" xmlns="http://www.w3.org/2000/svg"
 width="70.000000pt" height="70.000000pt" viewBox="0 0 70.000000 70.000000"
 preserveAspectRatio="xMidYMid meet">
<metadata>
Created by potrace 1.16, written by Peter Selinger 2001-2019
</metadata>
<g transform="translate(0.000000,70.000000) scale(0.100000,-0.100000)"
fill="#000000" stroke="none">
<path d="M337 604 c-4 -4 -7 -60 -7 -123 l0 -117 -39 4 c-21 2 -42 -1 -45 -7
-4 -6 13 -43 38 -81 26 -40 46 -82 46 -98 0 -25 -4 -23 -58 37 -42 46 -63 62
-77 59 -17 -3 -6 -18 64 -91 47 -48 89 -87 95 -86 14 1 146 153 146 168 0 25
-28 7 -75 -49 -44 -52 -51 -56 -57 -39 -6 15 5 39 42 94 54 79 53 91 -7 86
l-32 -2 -3 122 c-3 114 -10 143 -31 123z m-7 -299 c0 -14 -2 -25 -4 -25 -2 0
-11 11 -20 25 -16 24 -16 25 4 25 15 0 20 -7 20 -25z m64 0 c-9 -14 -18 -25
-20 -25 -2 0 -4 11 -4 25 0 18 5 25 20 25 20 0 20 -1 4 -25z"/>
</g>
</svg>
