<?xml version="1.0" standalone="no"?>
<!DOCTYPE svg PUBLIC "-//W3C//DTD SVG 20010904//EN"
 "http://www.w3.org/TR/2001/REC-SVG-20010904/DTD/svg10.dtd">
<svg version="1.0" xmlns="http://www.w3.org/2000/svg"
 width="70.000000pt" height="70.000000pt" viewBox="0 0 70.000000 70.000000"
 preserveAspectRatio="xMidYMid meet">
<metadata>
Created by potrace 1.16, written by Peter Selinger 2001-2019
</metadata>
<g transform="translate(0.000000,70.000000) scale(0.100000,-0.100000)"
fill="#000000" stroke="none">
<path d="M305 550 c-4 -6 6 -20 20 -32 67 -53 97 -197 55 -266 -19 -31 -24
-33 -67 -30 -30 2 -50 9 -57 21 -17 27 5 53 43 49 33 -2 39 6 19 26 -18 18
-56 14 -78 -8 -25 -25 -26 -71 -1 -101 28 -34 109 -34 145 0 36 34 60 101 52
148 -14 76 -39 135 -72 169 -36 36 -49 41 -59 24z"/>
</g>
</svg>
