<?xml version="1.0" standalone="no"?>
<!DOCTYPE svg PUBLIC "-//W3C//DTD SVG 20010904//EN"
 "http://www.w3.org/TR/2001/REC-SVG-20010904/DTD/svg10.dtd">
<svg version="1.0" xmlns="http://www.w3.org/2000/svg"
 width="70.000000pt" height="70.000000pt" viewBox="0 0 70.000000 70.000000"
 preserveAspectRatio="xMidYMid meet">
<metadata>
Created by potrace 1.16, written by Peter Selinger 2001-2019
</metadata>
<g transform="translate(0.000000,70.000000) scale(0.100000,-0.100000)"
fill="#000000" stroke="none">
<path d="M305 491 c-69 -17 -127 -64 -159 -128 -21 -41 -21 -93 -1 -93 9 0 15
9 15 25 0 28 23 79 49 109 62 71 198 74 275 7 25 -22 56 -85 56 -116 0 -16 6
-25 15 -25 21 0 19 53 -4 98 -47 90 -156 145 -246 123z"/>
<path d="M315 371 c-53 -23 -92 -111 -52 -119 13 -3 17 3 17 26 0 38 28 62 72
62 42 0 68 -25 68 -64 0 -21 4 -27 18 -24 26 5 17 57 -16 90 -30 30 -76 42
-107 29z"/>
</g>
</svg>
