<?xml version="1.0" standalone="no"?>
<!DOCTYPE svg PUBLIC "-//W3C//DTD SVG 20010904//EN"
 "http://www.w3.org/TR/2001/REC-SVG-20010904/DTD/svg10.dtd">
<svg version="1.0" xmlns="http://www.w3.org/2000/svg"
 width="70.000000pt" height="70.000000pt" viewBox="0 0 70.000000 70.000000"
 preserveAspectRatio="xMidYMid meet">
<metadata>
Created by potrace 1.16, written by Peter Selinger 2001-2019
</metadata>
<g transform="translate(0.000000,70.000000) scale(0.100000,-0.100000)"
fill="#000000" stroke="none">
<path d="M337 673 c-4 -3 -7 -37 -7 -75 0 -39 -4 -68 -10 -68 -5 0 -10 18 -10
41 0 52 -24 48 -28 -4 -2 -20 -5 -37 -8 -37 -12 0 -131 44 -141 52 -13 11 -9
-9 21 -91 23 -63 21 -69 -21 -73 -51 -4 -53 -31 -3 -32 19 -1 35 -5 35 -11 0
-6 -30 -10 -70 -10 -56 0 -70 -3 -70 -15 0 -12 18 -16 80 -20 75 -5 85 -20 13
-20 -43 0 -30 -24 15 -28 20 -2 37 -7 37 -11 0 -16 -40 -124 -51 -138 -20 -24
-4 -24 57 1 105 42 102 42 106 0 4 -50 28 -58 28 -10 0 19 4 37 10 41 5 3 10
-24 12 -67 2 -57 6 -73 18 -73 12 0 14 13 11 72 -3 62 -1 73 13 73 12 0 16
-10 16 -41 0 -52 24 -48 28 4 3 35 5 37 30 31 15 -4 50 -18 79 -31 59 -27 70
-28 54 -9 -12 15 -51 122 -51 142 0 8 15 14 37 16 45 4 58 28 15 28 -72 0 -62
15 13 20 62 4 80 8 80 20 0 12 -14 15 -70 15 -40 0 -70 4 -70 10 0 6 16 10 35
11 50 1 47 28 -3 32 -37 3 -38 5 -32 30 3 15 17 51 31 81 13 30 23 56 21 58
-2 1 -30 -8 -63 -21 -105 -42 -102 -42 -106 1 -2 26 -8 38 -18 38 -11 0 -14
-9 -12 -37 3 -29 0 -38 -12 -38 -13 0 -16 13 -16 75 0 69 -6 86 -23 68z m8
-175 c61 -1 121 9 170 28 10 4 9 -9 -6 -56 -23 -74 -25 -169 -4 -236 8 -27 15
-52 15 -56 0 -3 -21 1 -47 9 -80 24 -205 19 -288 -13 -10 -4 -9 9 6 56 23 74
25 169 4 236 -8 27 -15 52 -15 56 0 3 21 -1 48 -9 26 -8 79 -15 117 -15z"/>
</g>
</svg>
