<?xml version="1.0" standalone="no"?>
<!DOCTYPE svg PUBLIC "-//W3C//DTD SVG 20010904//EN"
 "http://www.w3.org/TR/2001/REC-SVG-20010904/DTD/svg10.dtd">
<svg version="1.0" xmlns="http://www.w3.org/2000/svg"
 width="1096.000000pt" height="1024.000000pt" viewBox="0 0 1096.000000 1024.000000"
 preserveAspectRatio="xMidYMid meet">
<metadata>
Created by potrace 1.16, written by Peter Selinger 2001-2019
</metadata>
<g transform="translate(0.000000,1024.000000) scale(0.100000,-0.100000)"
fill="#000000" stroke="none">
<path d="M8862 9882 c-37 -58 -75 -142 -68 -149 3 -3 19 23 35 57 32 66 48 90
62 90 14 0 22 -109 23 -313 1 -180 -1 -200 -16 -208 -10 -5 -18 -14 -18 -20 0
-6 7 -6 20 1 17 9 20 8 21 -12 0 -13 2 -49 5 -80 l6 -58 -104 0 -105 0 -69 73
c-38 40 -90 98 -116 128 -26 29 -77 86 -113 124 -36 39 -71 78 -76 89 -10 16
-7 18 28 13 21 -2 46 -8 56 -12 10 -4 17 -3 17 4 0 11 -49 26 -122 36 l-48 7
2 -98 c2 -93 2 -95 5 -24 2 41 8 79 13 84 5 5 20 -5 37 -25 15 -18 53 -59 83
-91 30 -31 78 -83 105 -115 28 -32 78 -88 113 -124 l63 -67 -73 -6 c-260 -21
-319 -27 -368 -41 -32 -10 -64 -27 -76 -41 -17 -21 -31 -25 -100 -30 -153 -11
-360 -12 -425 -2 -37 5 -88 8 -114 6 l-48 -3 78 -50 c107 -68 105 -67 105 -58
0 4 -17 19 -38 33 -93 61 -102 57 116 56 108 -1 247 1 309 4 96 4 114 2 131
-13 36 -33 245 -63 497 -73 77 -3 164 -7 193 -10 l52 -5 -1 -92 c-1 -51 -3
-95 -6 -99 -2 -4 -27 9 -56 30 -67 49 -77 55 -77 44 0 -5 25 -26 56 -47 30
-21 62 -48 71 -59 10 -14 17 -17 20 -8 6 15 85 92 96 92 4 0 7 5 7 10 0 20
-23 9 -55 -26 -18 -19 -35 -31 -38 -26 -4 5 -5 46 -3 93 l3 84 39 7 c21 4 85
7 142 7 265 2 558 40 613 80 21 16 50 20 170 25 306 13 439 16 439 13 0 -4
-137 -112 -163 -128 -5 -4 -8 -12 -6 -18 2 -6 19 3 39 20 19 17 63 51 98 76
85 61 82 73 -15 67 -87 -5 -459 -16 -512 -15 -20 0 -38 6 -43 15 -13 22 -73
36 -158 36 -65 -1 -73 -2 -57 -14 9 -7 45 -19 80 -26 59 -12 60 -13 32 -21
-16 -5 -88 -17 -160 -26 -169 -21 -867 -25 -1020 -5 -121 16 -217 33 -212 39
5 5 293 39 403 48 77 6 81 5 107 -20 27 -28 62 -30 62 -5 0 8 -5 15 -12 15 -6
0 -15 3 -19 8 -4 4 22 7 58 7 62 0 65 -1 64 -22 -1 -14 5 -23 14 -23 8 0 16
10 18 23 3 21 8 22 78 22 41 0 74 -2 74 -4 0 -3 -7 -12 -17 -21 -14 -14 -14
-18 -2 -26 10 -6 21 0 39 21 l25 30 130 0 c137 0 194 12 108 23 -26 4 -85 10
-130 13 -46 4 -83 10 -83 13 0 3 11 18 25 33 14 15 25 30 25 33 0 3 42 48 93
99 50 52 123 126 161 165 38 39 73 71 77 71 5 0 7 -22 4 -49 -4 -50 2 -91 14
-91 11 0 10 169 -1 176 -17 10 -162 4 -173 -7 -7 -8 11 -9 61 -5 40 2 74 2 77
-1 6 -5 -67 -85 -219 -237 -44 -44 -100 -105 -123 -133 l-43 -53 -80 0 -80 0
6 78 c3 42 5 89 6 105 0 35 8 34 49 -4 18 -16 36 -27 40 -24 3 4 -10 20 -29
36 -19 16 -43 37 -52 46 -16 15 -19 14 -39 -10 -37 -48 -49 -36 -49 51 -1 42
-2 150 -3 240 l-3 163 32 -33 c17 -18 33 -40 37 -48 4 -11 6 -9 6 5 0 11 -24
46 -53 77 l-54 58 -30 -48z m123 -619 c-5 -54 -11 -73 -21 -73 -19 0 -22 11
-27 94 -3 65 -2 72 22 94 l26 24 3 -33 c2 -19 1 -67 -3 -106z"/>
<path d="M915 9854 c-115 -25 -259 -101 -348 -184 -422 -394 -326 -1050 192
-1310 107 -53 198 -73 346 -73 114 -1 141 3 220 27 123 37 222 96 322 190 289
272 336 709 110 1013 -80 107 -142 129 -68 24 104 -148 146 -281 146 -461 0
-137 -19 -219 -75 -330 -94 -186 -286 -339 -485 -386 -103 -23 -275 -21 -372
6 -448 123 -671 625 -463 1045 57 116 111 185 195 250 152 119 270 158 475
159 120 0 145 -3 230 -28 52 -16 100 -32 105 -37 6 -4 33 -17 60 -29 49 -20
49 -20 25 0 -46 36 -154 88 -230 110 -100 29 -287 36 -385 14z"/>
<path d="M6470 9855 c-307 -69 -542 -311 -606 -622 -22 -105 -15 -281 16 -378
95 -304 351 -521 667 -566 334 -48 677 141 823 454 71 151 94 360 56 512 -28
109 -88 226 -154 297 -72 76 -99 75 -44 -2 155 -217 196 -460 118 -706 -66
-207 -261 -396 -484 -469 -72 -23 -190 -33 -297 -24 -363 30 -658 355 -657
724 0 177 50 326 156 472 83 114 231 212 381 254 66 19 105 22 220 22 121 0
151 -4 221 -26 45 -14 96 -32 113 -41 17 -9 43 -21 58 -26 l28 -10 -25 20
c-39 32 -138 78 -215 101 -94 27 -285 35 -375 14z"/>
<path d="M3158 9802 c-13 -2 -18 -13 -18 -36 0 -18 -3 -36 -7 -40 -13 -13 -50
-137 -40 -133 5 1 19 31 30 65 11 34 22 61 23 59 3 -3 11 -158 20 -368 l6
-156 -68 -6 c-92 -9 -154 -9 -155 1 -1 4 -3 30 -4 59 -1 29 -5 83 -9 120 -3
37 -8 120 -12 183 l-6 115 25 -30 c30 -36 46 -29 17 8 -11 14 -20 33 -20 42 0
9 -7 23 -16 32 -14 14 -16 14 -29 -3 -8 -11 -22 -38 -32 -61 -10 -24 -21 -43
-24 -43 -10 0 -33 -60 -26 -67 4 -3 12 7 19 23 7 16 16 31 19 34 4 3 14 23 23
44 9 22 18 37 20 35 8 -9 31 -314 31 -419 l0 -85 -69 -7 c-82 -8 -161 -26
-198 -45 -36 -17 -38 -56 -4 -78 31 -21 152 -55 193 -55 17 0 62 -7 100 -16
146 -34 738 -17 1133 32 113 15 173 72 114 110 -32 22 -204 34 -204 15 0 -15
-37 -14 -43 2 -3 10 -1 517 3 567 0 8 8 2 17 -15 22 -43 44 -65 62 -65 13 1
13 3 -3 15 -28 21 -56 67 -56 91 0 12 -7 25 -16 28 -21 8 -21 8 -27 -11 -3
-10 -15 -43 -26 -73 -24 -63 -24 -60 -12 -60 5 0 12 14 16 30 4 17 11 30 16
30 6 0 8 -108 7 -272 -3 -300 -2 -293 -64 -267 l-29 12 35 7 c31 5 26 7 -35
14 -38 4 -90 10 -115 14 -45 7 -45 7 -53 57 -10 64 -9 56 -7 223 1 142 10 173
31 112 13 -35 34 -42 23 -7 -4 12 -17 38 -29 57 -12 19 -24 43 -28 53 -13 34
-36 15 -77 -64 -23 -44 -39 -83 -37 -86 6 -5 17 11 65 97 37 65 35 76 37 -160
2 -91 5 -190 9 -221 l7 -55 -123 4 c-68 3 -126 9 -129 14 -9 14 -17 107 -25
281 -7 160 -2 175 38 112 13 -19 29 -35 36 -35 9 0 7 9 -8 30 -23 33 -81 93
-85 88 -14 -16 -75 -173 -75 -192 1 -17 27 34 45 87 9 26 21 47 26 47 4 0 8
-48 8 -107 0 -60 4 -153 10 -208 6 -55 11 -103 11 -107 0 -5 -45 -8 -100 -8
-97 0 -100 1 -100 23 -3 116 -9 250 -15 287 -8 55 -14 222 -8 233 5 9 43 -36
43 -51 0 -5 9 -17 20 -27 31 -28 24 -3 -14 52 -19 28 -36 61 -38 74 -2 17 -8
23 -20 21z"/>
<path d="M960 9711 c0 -10 117 -171 124 -171 2 0 28 34 58 75 29 41 61 77 71
81 21 7 23 24 3 24 -14 0 -79 -73 -117 -129 l-15 -24 -48 64 c-27 35 -51 70
-53 77 -6 14 -23 16 -23 3z"/>
<path d="M10230 9209 c0 -9 10 -21 23 -27 34 -18 61 -36 68 -46 4 -5 26 -10
50 -12 l44 -3 -33 15 c-18 8 -37 12 -43 9 -5 -4 -9 -2 -9 3 0 4 -19 19 -42 32
-24 13 -46 28 -50 34 -5 7 -8 5 -8 -5z"/>
<path d="M450 9202 c0 -4 27 -30 60 -58 54 -44 75 -74 52 -74 -9 0 -112 -124
-112 -135 0 -14 18 3 83 77 l66 77 -55 50 c-59 54 -94 77 -94 63z"/>
<path d="M7578 9155 c-27 -24 -48 -48 -48 -55 0 -14 87 56 101 82 16 29 -3 20
-53 -27z"/>
<path d="M1640 9104 c-38 -37 -70 -72 -70 -80 0 -7 33 -36 74 -64 41 -27 77
-54 81 -60 3 -5 13 -10 22 -10 25 0 -2 26 -86 83 l-74 50 71 70 c40 38 72 71
72 73 0 15 -29 -5 -90 -62z"/>
<path d="M1068 8553 c-14 -21 -42 -58 -62 -81 -20 -24 -36 -51 -36 -60 0 -19
26 9 92 101 22 31 42 57 44 57 1 0 13 -17 25 -37 34 -55 99 -123 117 -123 11
0 -2 19 -34 53 -28 28 -61 69 -73 90 -13 20 -28 37 -35 37 -8 0 -25 -17 -38
-37z"/>
<path d="M981 7870 c-340 -46 -615 -322 -671 -673 -54 -331 133 -681 445 -832
172 -83 389 -102 567 -48 270 83 472 288 550 560 32 111 32 295 0 408 -32 110
-85 207 -155 279 -67 69 -88 63 -34 -12 88 -120 145 -277 154 -422 14 -226
-68 -426 -240 -587 -135 -125 -308 -193 -495 -193 -221 0 -385 71 -539 234
-130 137 -203 314 -203 490 1 352 221 648 546 732 90 23 111 25 234 20 146 -6
226 -25 348 -83 34 -17 62 -28 62 -27 0 10 -113 77 -168 99 -118 48 -284 70
-401 55z"/>
<path d="M6565 7874 c-186 -25 -331 -89 -456 -201 -105 -94 -202 -261 -240
-413 -18 -71 -21 -104 -17 -210 4 -106 10 -138 35 -212 39 -112 98 -212 176
-294 138 -148 296 -228 503 -253 329 -40 674 159 811 467 91 206 88 461 -7
654 -37 74 -102 161 -142 189 -41 30 -36 6 18 -73 97 -146 137 -274 137 -443
0 -324 -200 -599 -510 -703 -70 -23 -94 -26 -223 -27 -124 0 -156 3 -220 23
-238 74 -426 266 -493 502 -36 128 -40 198 -18 329 53 314 269 542 576 608 52
11 104 14 200 9 141 -6 229 -28 346 -86 32 -16 59 -27 59 -26 0 7 -105 71
-154 94 -93 43 -292 78 -381 66z"/>
<path d="M1044 7698 c-94 -100 -108 -118 -93 -118 8 0 43 33 79 74 36 41 72
75 80 75 20 1 46 -22 109 -96 29 -35 57 -61 61 -58 17 11 -139 175 -167 175
-10 0 -41 -24 -69 -52z"/>
<path d="M3365 7355 c-27 -24 -45 -44 -39 -45 6 0 21 11 34 25 40 43 50 33 44
-42 -3 -38 -7 -73 -9 -79 -2 -8 -83 -13 -267 -17 -255 -5 -266 -6 -366 -35
-56 -16 -110 -36 -120 -45 -30 -26 -220 -36 -408 -21 l-87 7 56 29 c84 42 69
52 -17 12 -41 -19 -83 -34 -93 -34 -26 0 -47 -16 -38 -29 4 -7 12 -10 18 -8 7
2 34 -11 62 -28 72 -46 95 -57 95 -46 0 5 -25 24 -55 41 -30 17 -53 35 -51 39
3 4 40 4 83 -1 43 -4 156 -6 251 -4 96 2 172 0 172 -5 0 -5 24 -21 53 -36 47
-24 71 -28 272 -44 121 -10 263 -18 316 -18 65 -1 100 -5 106 -13 9 -13 8
-226 -1 -236 -3 -3 -16 3 -28 12 -61 43 -69 48 -74 44 -3 -3 17 -22 44 -42 57
-42 98 -46 152 -16 19 11 43 22 53 26 18 7 24 24 7 24 -5 0 -30 -13 -56 -29
-69 -44 -74 -38 -74 88 0 58 4 111 8 117 4 7 91 13 249 18 148 4 263 12 295
20 29 8 80 19 113 25 74 15 145 40 145 52 0 5 120 9 287 9 l287 0 -39 -35
c-21 -20 -35 -38 -32 -41 3 -3 16 3 28 15 30 28 98 60 132 63 31 3 36 16 10
24 -10 3 -38 14 -62 25 -24 11 -46 17 -50 13 -3 -4 -1 -9 5 -11 6 -2 20 -10
30 -18 23 -18 38 -17 -315 -17 -229 -1 -265 1 -272 15 -13 22 -59 35 -164 46
-49 5 -135 19 -190 31 -76 16 -141 21 -274 23 l-173 2 4 98 c3 53 2 97 -1 97
-3 0 -28 -20 -56 -45z m593 -225 c155 -37 170 -41 146 -50 -11 -4 -87 -16
-170 -25 -190 -23 -809 -27 -979 -7 -157 18 -238 33 -228 42 11 10 240 40 378
49 61 5 258 9 438 10 298 1 337 -1 415 -19z"/>
<path d="M3440 7383 c1 -14 44 -39 88 -52 60 -17 63 -8 5 14 -27 10 -55 24
-64 31 -17 15 -29 18 -29 7z"/>
<path d="M9680 7290 c0 -9 49 -39 67 -41 44 -7 42 -29 -2 -29 -19 0 -35 -4
-35 -10 0 -5 7 -10 16 -10 8 0 12 -4 9 -10 -3 -5 -15 -10 -26 -10 -11 0 -19
-7 -19 -16 0 -14 5 -13 36 5 20 12 59 25 87 29 49 7 79 32 39 32 -11 0 -54 16
-96 35 -42 19 -76 30 -76 25z"/>
<path d="M5990 7211 c0 -5 15 -20 33 -32 17 -12 47 -36 65 -53 l32 -30 -71
-72 c-39 -39 -67 -74 -61 -78 10 -6 152 138 152 154 0 11 -80 81 -119 103 -17
10 -31 14 -31 8z"/>
<path d="M9635 7209 c-26 -6 -24 -7 13 -6 24 0 45 3 47 7 5 8 -22 7 -60 -1z"/>
<path d="M8925 7198 c-17 -4 -38 -5 -49 -2 -10 3 -113 1 -230 -6 -310 -17
-457 -45 -471 -91 -15 -45 37 -71 185 -93 315 -46 901 -47 1215 -1 124 19 156
29 183 59 l20 24 -23 22 c-37 35 -241 54 -220 21 3 -6 34 -16 68 -23 34 -7 53
-14 42 -16 -11 -2 -22 -8 -25 -12 -3 -4 -29 -11 -57 -15 -49 -6 -53 -5 -53 14
0 15 -6 21 -23 21 -31 0 -115 29 -123 42 -5 7 2 9 17 5 13 -3 40 -2 59 2 30 6
20 9 -65 19 -55 6 -163 16 -240 22 -77 6 -149 12 -160 14 -11 1 -34 -1 -50 -6z
m394 -65 c3 -5 15 -15 26 -20 19 -11 -100 -14 -542 -13 -124 0 -153 -2 -153
-13 0 -20 87 -28 235 -22 242 9 518 4 505 -9 -32 -32 -769 -26 -1009 9 -106
15 -125 21 -100 29 27 9 295 39 414 46 161 10 616 5 624 -7z"/>
<path d="M10286 7171 c-7 -11 0 -17 64 -48 25 -12 43 -23 40 -23 -3 -1 -56 -3
-118 -4 -61 -2 -115 -6 -119 -9 -3 -4 48 -7 115 -7 67 0 122 -4 122 -9 0 -5
-17 -16 -37 -24 -48 -20 -84 -46 -63 -46 8 -1 26 8 40 19 14 11 30 20 37 20
15 0 76 32 85 45 9 12 0 26 -15 24 -15 -3 -107 39 -129 58 -10 9 -18 11 -22 4z"/>
<path d="M545 7114 c-44 -31 -84 -60 -89 -64 -5 -5 11 -34 35 -67 24 -32 52
-70 61 -83 13 -19 17 -21 17 -8 1 9 -21 46 -48 82 l-49 64 79 56 c43 31 81 61
84 66 13 21 -13 8 -90 -46z"/>
<path d="M1590 7151 c0 -5 21 -23 48 -40 26 -16 60 -43 75 -59 l27 -28 -80
-78 c-44 -43 -80 -80 -80 -82 0 -18 35 9 108 81 l85 85 -39 30 c-21 16 -59 46
-84 65 -46 36 -60 42 -60 26z"/>
<path d="M10080 7090 c-8 -5 -10 -10 -5 -10 6 0 17 5 25 10 8 5 11 10 5 10 -5
0 -17 -5 -25 -10z"/>
<path d="M9908 7083 c12 -2 32 -2 45 0 12 2 2 4 -23 4 -25 0 -35 -2 -22 -4z"/>
<path d="M9988 7083 c7 -3 16 -2 19 1 4 3 -2 6 -13 5 -11 0 -14 -3 -6 -6z"/>
<path d="M959 6583 c5 -10 43 -51 84 -91 l74 -73 74 76 c41 42 76 81 78 87 7
19 -52 -28 -102 -81 -26 -28 -50 -51 -52 -51 -3 0 -37 34 -76 75 -69 72 -101
95 -80 58z"/>
<path d="M917 5861 c-230 -51 -433 -215 -537 -436 -62 -132 -75 -192 -74 -345
1 -120 4 -145 28 -220 35 -106 61 -158 120 -238 112 -151 266 -259 441 -307
33 -9 114 -18 180 -21 107 -5 131 -3 219 20 282 73 511 299 581 575 63 247 -5
529 -164 685 -28 28 -54 47 -57 43 -4 -4 15 -39 41 -79 199 -296 190 -656 -22
-913 -200 -243 -527 -334 -825 -231 -93 33 -166 78 -249 154 -191 176 -272
420 -225 683 36 198 149 370 320 483 221 147 530 161 790 35 76 -37 82 -37 26
2 -161 109 -396 153 -593 110z"/>
<path d="M6508 5870 c-217 -39 -384 -147 -521 -336 -116 -161 -166 -413 -121
-617 21 -94 100 -256 164 -334 100 -123 248 -220 406 -265 66 -19 102 -23 219
-23 130 1 147 3 233 32 134 45 222 101 329 208 80 80 97 105 141 196 66 137
85 216 84 354 0 190 -59 355 -170 475 -73 80 -97 77 -41 -5 109 -162 151 -289
152 -460 1 -182 -42 -310 -151 -453 -94 -125 -249 -228 -402 -269 -87 -24
-280 -24 -370 0 -227 60 -436 252 -511 471 -43 125 -53 224 -35 343 23 156 61
247 158 377 50 68 170 162 260 204 116 54 276 78 417 62 84 -9 211 -43 247
-65 11 -8 38 -21 60 -30 32 -13 36 -13 24 -1 -32 31 -170 97 -246 116 -88 23
-254 34 -326 20z"/>
<path d="M3285 5783 c-69 -131 -76 -146 -72 -157 2 -6 21 24 42 67 22 42 42
77 45 77 3 0 7 -37 8 -82 2 -46 7 -139 12 -208 5 -69 8 -159 7 -200 l-2 -75
-205 -1 c-113 0 -222 -4 -242 -8 l-38 -8 0 199 c0 138 4 215 14 253 8 29 12
60 9 67 -11 27 21 11 58 -29 21 -24 38 -37 39 -31 0 19 -97 116 -109 109 -6
-4 -11 -11 -11 -16 0 -5 -19 -39 -41 -75 -23 -36 -39 -68 -36 -71 5 -6 61 73
70 100 2 6 7 9 10 6 4 -3 0 -33 -7 -65 -10 -41 -13 -121 -12 -248 0 -111 -3
-192 -9 -195 -5 -4 -48 -20 -95 -37 -74 -26 -85 -33 -88 -56 -6 -55 61 -78
318 -106 252 -26 800 -24 1005 6 216 30 269 50 263 94 -5 35 -53 50 -188 58
-69 5 -150 12 -181 18 -31 5 -103 13 -162 17 -58 3 -110 10 -116 14 -12 7 -18
336 -7 347 3 3 18 -8 33 -26 15 -17 33 -31 41 -31 7 0 -6 19 -29 43 -22 23
-45 52 -50 65 -19 48 -53 16 -96 -88 -27 -65 -27 -66 -9 -51 7 6 21 33 31 59
22 57 35 76 47 64 8 -8 11 -139 9 -334 l-1 -48 -94 0 c-67 0 -95 4 -99 13 -3
7 -5 51 -4 97 0 47 -3 141 -7 210 -11 178 -12 241 -4 246 5 4 31 -26 65 -75 2
-2 6 -2 9 2 4 3 -10 29 -31 57 -20 27 -38 58 -39 67 -5 33 -22 22 -51 -34z
m260 -688 l0 -50 -300 1 c-165 1 -320 6 -345 11 -38 7 -45 12 -48 34 l-3 26
113 12 c62 6 129 13 148 15 19 1 125 3 235 2 l200 -1 0 -50z m275 35 c140 -10
293 -43 250 -54 -52 -12 -201 -26 -352 -33 l-158 -6 0 58 0 58 68 -7 c37 -3
123 -10 192 -16z m-987 -35 c4 -8 2 -17 -3 -20 -13 -8 -80 16 -74 27 9 14 71
9 77 -7z"/>
<path d="M960 5792 c0 -5 11 -18 23 -31 13 -12 42 -46 63 -76 21 -30 44 -54
49 -54 15 0 138 159 130 167 -7 7 -21 -8 -90 -97 -36 -47 -41 -50 -53 -34 -80
110 -122 153 -122 125z"/>
<path d="M3991 5740 c-14 -28 -29 -50 -33 -50 -4 0 -8 -6 -8 -13 0 -8 -9 -24
-20 -37 -24 -27 -24 -30 -6 -30 7 0 20 15 27 33 7 17 26 50 41 71 l28 39 1
-69 c1 -88 -1 -161 -6 -199 -11 -88 -16 -317 -8 -312 6 4 11 59 12 124 0 65 4
129 7 143 3 14 9 88 13 165 5 123 8 137 19 117 8 -13 20 -31 27 -40 55 -69 68
-82 76 -82 5 0 -13 30 -41 66 -28 37 -54 79 -57 95 -9 48 -43 38 -72 -21z"/>
<path d="M1090 5572 c0 -4 -25 -39 -55 -77 -30 -38 -55 -72 -55 -77 0 -19 19
-3 70 63 l55 71 25 -33 c47 -62 99 -114 106 -106 4 4 -10 26 -32 50 -22 23
-53 59 -68 80 -25 34 -46 48 -46 29z"/>
<path d="M9754 5242 c4 -7 16 -12 26 -12 10 0 22 -4 25 -10 4 -6 -21 -10 -67
-10 -265 2 -1003 -11 -1148 -20 -322 -19 -438 -51 -414 -115 10 -25 56 -44
151 -60 231 -38 557 -51 883 -34 140 8 298 14 350 14 101 -1 270 -22 270 -34
0 -4 -18 -14 -40 -21 -22 -7 -40 -17 -40 -22 0 -10 24 -11 34 0 4 4 11 7 14 8
4 0 20 6 35 12 16 7 35 12 42 12 8 0 19 8 24 18 8 14 1 21 -45 43 -30 14 -54
20 -54 14 0 -5 17 -18 38 -28 l37 -17 -40 5 c-22 3 -62 7 -90 10 -27 3 -66 9
-85 14 l-35 7 40 8 c43 8 95 32 95 44 0 6 321 7 630 3 l54 -1 -37 -35 c-20
-19 -37 -40 -37 -46 0 -5 17 6 38 26 20 20 53 44 72 52 l35 16 -25 11 c-14 6
-43 23 -64 38 -38 27 -84 39 -71 18 4 -6 10 -8 15 -5 5 3 15 -1 23 -9 8 -8 17
-13 19 -10 3 2 11 -2 18 -11 7 -9 11 -18 8 -20 -7 -7 -616 -7 -646 -1 -27 6
-55 32 -48 45 10 16 86 51 111 51 58 0 2 41 -77 57 -22 4 -29 3 -24 -5z m23
-56 c2 -2 -9 -12 -24 -22 -23 -15 -44 -18 -125 -15 -136 4 -131 -15 10 -44 55
-11 25 -22 -103 -38 -83 -11 -169 -14 -278 -11 -115 4 -162 2 -173 -7 -11 -9
-85 -10 -297 -6 -273 5 -475 23 -515 46 -9 6 -12 11 -5 11 7 0 61 7 120 15
205 28 349 35 711 35 344 0 442 9 282 24 -136 14 -59 22 166 19 125 -2 229 -5
231 -7z"/>
<path d="M1720 5155 l-74 -74 65 -68 c66 -70 89 -90 89 -76 0 4 -30 37 -66 74
l-66 66 73 70 c39 39 67 73 62 76 -5 3 -43 -27 -83 -68z"/>
<path d="M6600 5221 c0 -6 17 -22 38 -35 20 -13 49 -37 65 -53 l27 -29 -65
-66 c-56 -57 -77 -88 -61 -88 9 0 141 142 144 154 3 15 -67 80 -117 109 -17
10 -31 13 -31 8z"/>
<path d="M681 5150 l-74 -71 64 -68 c61 -64 87 -86 96 -78 2 2 -26 35 -62 73
-36 38 -65 72 -65 76 0 3 29 32 65 63 60 53 77 75 57 75 -4 0 -40 -32 -81 -70z"/>
<path d="M400 5191 c0 -4 19 -21 43 -36 51 -34 87 -65 87 -78 0 -5 -30 -40
-66 -77 -36 -37 -61 -70 -56 -74 8 -5 46 32 127 122 l30 33 -35 30 c-43 36
-117 89 -124 89 -3 0 -6 -4 -6 -9z"/>
<path d="M1446 5193 c-3 -4 11 -17 32 -31 48 -32 92 -73 92 -86 0 -6 -30 -40
-66 -77 -36 -37 -62 -69 -56 -73 10 -6 152 138 152 154 0 21 -142 125 -154
113z"/>
<path d="M980 4764 c0 -3 17 -27 38 -53 21 -25 48 -61 61 -78 12 -18 28 -33
34 -32 7 0 40 39 75 85 34 47 56 84 48 82 -8 -2 -36 -32 -63 -68 -27 -36 -54
-65 -60 -65 -6 0 -35 30 -63 68 -46 59 -70 80 -70 61z"/>
<path d="M1100 4551 c0 -5 -25 -43 -55 -83 -30 -40 -55 -76 -55 -80 0 -20 20
-1 70 67 30 41 56 75 57 75 0 0 9 -13 20 -29 29 -46 93 -113 105 -109 5 2 -10
26 -34 53 -24 28 -54 65 -67 83 -22 31 -41 42 -41 23z"/>
<path d="M900 3861 c-276 -71 -490 -284 -572 -568 -33 -113 -32 -307 1 -413
89 -286 303 -493 586 -566 107 -27 287 -25 390 5 251 72 460 263 545 498 98
272 43 574 -139 762 -67 69 -79 53 -22 -29 52 -74 105 -186 128 -270 27 -101
25 -293 -6 -390 -76 -248 -264 -435 -505 -504 -168 -49 -387 -31 -533 42 -201
102 -340 280 -399 512 -19 77 -14 246 11 348 59 245 261 452 510 524 67 19
102 23 220 22 122 -1 152 -4 230 -28 49 -15 99 -33 111 -41 11 -7 38 -21 60
-29 l39 -16 -25 20 c-46 36 -155 88 -230 110 -109 32 -299 37 -400 11z"/>
<path d="M6465 3866 c-183 -43 -329 -137 -444 -286 -206 -266 -229 -616 -60
-896 108 -178 286 -312 487 -366 57 -15 109 -21 202 -21 109 -1 137 3 215 27
281 86 484 294 556 571 27 103 29 270 5 370 -25 106 -88 225 -154 297 -70 73
-98 76 -46 3 106 -148 156 -301 156 -475 -1 -213 -66 -366 -221 -520 -148
-147 -303 -210 -516 -210 -137 0 -233 22 -345 81 -351 182 -493 626 -316 984
77 156 191 271 342 344 104 51 180 65 339 65 124 0 149 -3 223 -27 46 -15 96
-34 112 -42 17 -9 42 -20 56 -26 23 -8 25 -8 15 5 -18 22 -168 93 -236 111
-83 23 -293 29 -370 11z"/>
<path d="M2711 3791 c-11 -21 -43 -74 -70 -117 -28 -43 -48 -80 -45 -83 6 -6
37 32 56 69 21 40 62 100 70 100 3 0 6 -48 5 -107 0 -60 3 -157 7 -218 5 -60
9 -146 10 -189 l1 -79 -47 -16 c-26 -9 -52 -21 -58 -27 -21 -22 -7 -58 30 -76
151 -74 991 -93 1380 -32 109 17 164 40 168 70 5 33 -30 55 -97 61 l-61 6 -1
51 c-2 87 -9 185 -24 340 -19 185 -19 180 1 172 12 -5 14 -1 8 17 -4 12 -7 32
-6 43 2 25 -32 39 -46 20 -22 -26 -90 -180 -85 -189 3 -5 15 12 27 39 12 27
31 67 43 89 20 36 22 38 23 15 1 -14 3 -38 6 -55 12 -87 25 -257 31 -392 l6
-153 -27 0 c-15 0 -25 -4 -22 -9 5 -8 -154 -21 -255 -21 -42 0 -70 13 -57 26
3 2 52 7 109 10 57 3 105 7 107 9 2 2 -27 6 -65 10 -37 3 -86 10 -107 13 -39
7 -40 8 -38 47 0 22 3 136 6 254 3 117 7 216 10 218 3 3 19 -20 36 -51 18 -31
36 -56 41 -56 17 0 13 7 -60 120 -20 30 -37 57 -38 59 -4 6 -58 -57 -91 -104
-15 -22 -33 -46 -39 -53 -7 -7 -13 -21 -13 -30 1 -15 3 -14 15 3 8 11 19 25
25 32 5 7 10 15 10 18 0 12 72 95 83 95 9 0 5 -538 -4 -543 -2 -1 -104 -1
-226 1 l-223 3 -1 37 c-3 105 -4 479 0 495 6 28 18 20 61 -37 37 -49 66 -73
77 -63 2 2 -28 37 -67 78 -38 40 -70 79 -70 85 0 41 -35 18 -102 -66 -40 -51
-63 -105 -34 -81 9 7 16 18 16 24 0 12 82 116 93 117 8 0 13 -578 5 -585 -2
-1 -57 -6 -123 -9 -66 -4 -160 -11 -210 -16 -49 -5 -93 -10 -96 -10 -3 0 -9
62 -13 138 -13 232 -17 452 -8 452 4 0 15 -8 23 -17 31 -35 82 -74 88 -68 3 4
-18 28 -47 55 -28 26 -52 53 -52 60 0 6 -7 18 -15 26 -12 13 -17 10 -34 -25z
m957 -641 c1 0 2 -7 2 -15 0 -13 -29 -15 -227 -13 -163 2 -227 6 -230 15 -6
18 44 21 257 17 107 -2 196 -4 198 -4z m-473 -11 c4 -6 5 -12 4 -13 -2 -2 -87
-6 -189 -9 -188 -5 -190 4 -3 22 129 12 181 12 188 0z m944 -44 c-12 -11 -212
-36 -365 -45 -215 -12 -572 -12 -734 0 -172 13 -242 22 -235 28 3 3 253 7 557
9 303 1 553 5 556 8 3 3 55 5 115 5 61 0 108 -2 106 -5z"/>
<path d="M4060 3712 c0 -20 59 -89 81 -95 14 -4 10 5 -16 31 -19 21 -41 46
-49 57 -9 12 -15 15 -16 7z"/>
<path d="M9920 3282 c0 -5 11 -14 25 -20 49 -22 26 -32 -77 -33 -57 -1 -116
-2 -133 -3 -16 -2 -100 -6 -185 -10 -85 -4 -198 -9 -250 -11 -52 -3 -255 -7
-450 -9 -462 -5 -630 -26 -668 -84 -15 -24 -15 -26 11 -48 35 -30 75 -40 233
-59 141 -17 329 -23 944 -30 626 -7 591 -3 516 -54 -25 -18 -46 -36 -46 -41 0
-12 17 -13 22 -2 9 20 103 74 140 80 49 8 64 32 21 32 -15 0 -47 9 -70 20 -48
21 -57 14 -15 -13 26 -17 21 -18 -178 -11 -113 4 -214 7 -224 6 -46 -2 6 16
79 27 90 14 142 35 150 59 4 14 20 17 102 17 54 0 114 3 133 6 19 3 -19 6 -85
6 -108 0 -128 3 -189 27 -88 36 -155 46 -298 46 -65 0 -118 4 -118 8 0 4 8 8
18 8 9 0 121 4 247 9 203 7 328 9 375 5 8 0 0 -7 -17 -15 -18 -8 -33 -19 -33
-25 0 -14 17 -13 22 1 2 7 35 19 73 29 77 19 92 35 43 44 -18 3 -50 15 -71 26
-41 22 -47 24 -47 12z m-373 -148 c17 -8 37 -14 45 -14 23 0 90 -21 85 -27
-12 -11 -201 -33 -386 -44 -337 -20 -912 2 -1012 39 -24 9 -24 9 6 15 67 14
293 39 412 46 71 4 283 5 473 3 269 -3 352 -7 377 -18z m-40 -140 c-3 -3 -12
-4 -19 -1 -8 3 -5 6 6 6 11 1 17 -2 13 -5z"/>
<path d="M489 3198 c27 -35 60 -73 74 -86 l24 -23 62 73 c80 95 78 113 -4 23
-35 -38 -65 -68 -67 -65 -32 42 -123 140 -129 140 -5 0 13 -28 40 -62z"/>
<path d="M810 3237 c0 -9 5 -19 10 -22 6 -3 36 -38 67 -77 l56 -71 24 29 c75
91 111 144 99 144 -7 0 -32 -26 -54 -58 -65 -92 -62 -92 -121 -19 -62 79 -81
96 -81 74z"/>
<path d="M1190 3234 c0 -13 103 -164 112 -164 6 0 16 6 22 14 77 96 105 136
94 135 -7 0 -35 -27 -61 -60 -26 -32 -51 -59 -55 -59 -4 0 -27 32 -51 70 -38
60 -61 85 -61 64z"/>
<path d="M1527 3233 c-3 -5 2 -16 11 -25 9 -8 40 -42 67 -76 28 -34 55 -62 61
-62 10 0 116 121 123 142 8 24 -20 -1 -70 -61 l-53 -64 -36 43 c-69 85 -97
113 -103 103z"/>
<path d="M7170 3200 c0 -5 13 -16 30 -25 37 -19 100 -74 100 -87 0 -5 -29 -40
-65 -77 -36 -37 -62 -71 -59 -74 8 -8 38 19 105 96 l51 58 -23 25 c-23 24
-122 94 -133 94 -3 0 -6 -4 -6 -10z"/>
<path d="M10400 3175 c0 -2 23 -14 50 -27 28 -13 50 -26 50 -29 0 -6 -154 -11
-332 -11 -26 -1 -45 -4 -43 -8 3 -5 56 -8 118 -9 221 0 215 0 192 -17 -11 -8
-27 -19 -35 -24 -8 -5 -12 -12 -7 -16 4 -4 15 0 24 8 30 26 101 58 128 58 33
0 28 23 -6 30 -13 3 -44 16 -69 28 -43 20 -70 27 -70 17z"/>
<path d="M10045 3101 c8 -7 65 -8 65 0 0 4 -16 7 -35 6 -19 -1 -32 -3 -30 -6z"/>
<path d="M522 2979 c-34 -39 -62 -78 -62 -87 0 -11 12 -2 32 23 18 22 49 57
69 79 l35 39 27 -44 c32 -54 76 -103 84 -96 3 4 -16 34 -42 69 -26 35 -50 69
-52 76 -10 24 -29 11 -91 -59z"/>
<path d="M930 3021 c0 -5 -25 -41 -55 -79 -30 -39 -55 -73 -55 -76 0 -18 21 2
70 64 30 39 57 70 60 70 3 0 12 -11 20 -24 23 -37 101 -118 108 -112 3 3 -9
23 -26 44 -18 20 -47 56 -65 79 -30 39 -57 55 -57 34z"/>
<path d="M1606 2953 c-62 -72 -76 -94 -58 -92 4 0 34 32 66 71 59 71 60 71 75
49 57 -80 95 -123 99 -112 2 7 -7 25 -21 39 -13 15 -36 46 -50 69 -15 23 -31
44 -36 47 -5 4 -39 -28 -75 -71z"/>
<path d="M1231 2953 c-34 -37 -61 -74 -61 -82 0 -7 29 17 63 55 l64 68 39 -67
c33 -58 54 -82 54 -61 0 12 -84 154 -91 154 -4 0 -35 -30 -68 -67z"/>
<path d="M3429 1973 c-5 -14 -20 -36 -33 -47 -12 -12 -34 -37 -47 -56 -13 -19
-32 -43 -41 -52 -19 -19 -25 -54 -8 -43 6 3 10 10 10 16 0 5 8 17 18 28 9 10
33 39 52 64 19 26 40 46 45 47 8 0 14 -615 7 -696 -2 -20 -11 -21 -279 -33
-391 -17 -514 -42 -521 -104 -3 -24 2 -30 40 -47 214 -94 1388 -88 1518 8 66
50 21 88 -116 98 -72 6 -86 5 -82 -7 3 -8 31 -20 64 -27 32 -7 63 -17 67 -21
9 -9 -78 -24 -243 -42 -141 -16 -772 -16 -920 0 -154 16 -243 32 -233 41 22
21 423 60 616 60 l97 0 -6 -25 c-5 -21 -3 -25 15 -25 24 0 25 4 11 31 -10 18
-5 19 177 20 103 1 204 1 223 0 25 -1 31 2 20 8 -15 9 -223 29 -340 32 -36 1
-71 4 -78 7 -9 3 -12 86 -11 376 l0 371 25 -30 c14 -16 41 -58 60 -92 33 -58
62 -86 47 -45 -7 18 -94 154 -104 162 -4 3 -9 15 -13 28 -10 30 -24 28 -37 -5z"/>
<path d="M954 1876 c-98 -19 -136 -32 -224 -77 -105 -54 -188 -125 -260 -221
-69 -91 -106 -164 -141 -278 -20 -63 -24 -97 -24 -205 1 -150 15 -215 75 -340
212 -440 763 -594 1162 -324 165 112 276 265 330 456 32 111 32 295 0 408 -32
111 -87 210 -156 280 -67 69 -87 61 -33 -13 48 -66 112 -195 131 -267 39 -144
29 -326 -25 -471 -31 -81 -108 -192 -185 -264 -136 -127 -281 -188 -464 -197
-143 -8 -245 13 -370 74 -80 39 -108 60 -185 137 -51 51 -107 119 -128 156
-89 155 -117 338 -79 522 91 441 510 682 967 556 44 -12 85 -25 90 -29 6 -4
33 -17 60 -29 50 -20 50 -20 25 0 -45 36 -163 90 -245 110 -105 27 -232 33
-321 16z"/>
<path d="M6497 1875 c-316 -60 -556 -295 -633 -621 -25 -106 -15 -294 20 -399
92 -270 310 -472 581 -536 463 -109 916 208 975 684 21 168 -23 360 -112 493
-47 70 -108 134 -129 134 -12 0 -10 -3 48 -92 97 -149 136 -276 135 -443 -1
-270 -122 -484 -355 -629 -233 -145 -556 -141 -782 10 -135 89 -255 243 -299
383 -41 130 -49 222 -30 343 19 120 42 187 95 280 98 169 266 294 455 339 184
44 384 20 569 -67 62 -29 67 -30 40 -8 -129 104 -394 164 -578 129z"/>
<path d="M980 1299 c0 -12 92 -140 113 -158 11 -8 21 1 47 41 19 29 51 69 72
90 32 32 35 38 18 38 -13 0 -39 -26 -76 -75 l-56 -75 -49 67 c-27 36 -49 70
-49 74 0 5 -4 9 -10 9 -5 0 -10 -5 -10 -11z"/>
<path d="M1207 1162 c-37 -37 -67 -71 -67 -74 0 -4 28 -26 63 -49 34 -23 75
-53 91 -66 16 -13 31 -21 34 -18 9 9 -28 43 -94 86 -35 23 -64 45 -64 49 0 3
31 37 69 73 43 42 63 67 52 67 -9 0 -47 -30 -84 -68z"/>
<path d="M930 1214 c0 -5 28 -35 62 -67 38 -35 58 -60 51 -63 -14 -6 -113
-128 -113 -139 0 -4 4 -5 8 -3 14 5 132 146 132 157 0 5 -24 29 -52 53 -77 64
-88 71 -88 62z"/>
<path d="M8653 1199 c-303 -11 -454 -39 -476 -87 -25 -55 63 -85 333 -114 149
-16 778 -16 930 0 83 8 137 9 195 1 44 -5 123 -12 175 -16 52 -3 97 -7 98 -8
2 -2 -19 -15 -47 -29 -28 -15 -51 -31 -51 -36 0 -14 -3 -14 74 25 38 19 79 35
92 35 33 0 30 18 -3 26 -16 4 -39 15 -53 24 -34 23 -70 34 -70 21 0 -6 5 -11
10 -11 6 0 13 0 18 -1 11 -1 32 -20 32 -29 0 -14 -266 6 -275 21 -4 5 2 9 12
9 46 0 95 23 111 50 l17 29 340 -1 c187 0 367 -3 399 -5 l59 -5 -31 -20 c-18
-11 -32 -26 -32 -34 0 -20 13 -17 27 5 6 10 32 24 57 32 32 9 46 19 46 31 0
12 -8 19 -22 20 -37 2 -41 3 -86 25 -25 13 -42 17 -39 10 2 -7 13 -17 25 -23
13 -6 25 -13 27 -16 3 -3 -171 -5 -387 -5 -315 0 -398 2 -425 14 -45 18 -188
29 -197 15 -6 -11 27 -23 102 -38 79 -16 24 -30 -218 -55 -142 -15 -776 -15
-915 0 -141 15 -235 31 -235 40 0 12 258 42 340 41 41 -1 191 -1 333 0 270 2
419 -6 396 -21 -8 -5 -23 -9 -35 -9 -11 0 -29 -6 -40 -14 -39 -29 -2 -29 86
-1 78 25 90 32 90 51 0 19 -7 24 -47 30 -26 4 -63 14 -82 22 -26 10 -36 11
-39 3 -3 -8 -29 -10 -85 -6 -154 10 -332 11 -534 4z"/>
<path d="M7225 1147 c16 -12 47 -39 70 -59 l40 -37 -69 -70 c-39 -39 -66 -74
-62 -78 4 -4 41 27 83 70 l75 78 -28 31 c-36 38 -108 88 -126 87 -7 0 0 -10
17 -22z"/>
<path d="M5962 1141 c2 -5 31 -32 66 -61 l62 -52 -66 -74 c-37 -41 -64 -78
-59 -82 4 -4 23 13 44 38 20 25 52 60 71 78 l35 34 -69 64 c-62 58 -93 78 -84
55z"/>
<path d="M1057 997 c-26 -34 -56 -74 -69 -89 -12 -15 -19 -30 -16 -34 8 -8 60
49 99 109 17 26 34 47 38 47 3 0 18 -19 33 -43 30 -47 105 -124 113 -115 3 3
-13 25 -36 49 -22 24 -51 60 -63 79 -44 66 -48 66 -99 -3z"/>
</g>
</svg>
