<?xml version="1.0" standalone="no"?>
<!DOCTYPE svg PUBLIC "-//W3C//DTD SVG 20010904//EN"
 "http://www.w3.org/TR/2001/REC-SVG-20010904/DTD/svg10.dtd">
<svg version="1.0" xmlns="http://www.w3.org/2000/svg"
 width="70.000000pt" height="70.000000pt" viewBox="0 0 70.000000 70.000000"
 preserveAspectRatio="xMidYMid meet">
<metadata>
Created by potrace 1.16, written by Peter Selinger 2001-2019
</metadata>
<g transform="translate(0.000000,70.000000) scale(0.100000,-0.100000)"
fill="#000000" stroke="none">
<path d="M314 530 c-54 -12 -100 -48 -125 -97 -13 -25 -41 -62 -61 -81 -59
-54 -48 -86 11 -36 30 25 31 25 31 4 0 -41 39 -98 85 -126 94 -55 207 -24 255
70 14 27 42 65 63 84 58 54 47 86 -12 36 l-31 -26 0 23 c0 12 -11 42 -25 66
-38 63 -120 99 -191 83z m142 -71 c23 -23 37 -48 41 -74 l6 -40 -44 36 c-49
40 -101 61 -127 52 -28 -10 -62 -45 -62 -65 0 -26 15 -22 35 8 25 39 79 29
143 -26 58 -48 58 -63 1 -115 -34 -30 -46 -35 -90 -35 -27 0 -63 7 -78 15 -43
22 -81 72 -81 107 l0 30 42 -34 c48 -39 100 -60 126 -51 28 10 62 45 62 65 0
26 -15 22 -35 -8 -25 -39 -79 -29 -144 26 -54 46 -56 56 -12 104 36 39 57 46
124 43 51 -3 62 -8 93 -38z"/>
<path d="M330 364 c-11 -12 -10 -18 3 -32 16 -15 18 -15 34 0 13 14 14 20 3
32 -7 9 -16 16 -20 16 -4 0 -13 -7 -20 -16z"/>
</g>
</svg>
