<?xml version="1.0" standalone="no"?>
<!DOCTYPE svg PUBLIC "-//W3C//DTD SVG 20010904//EN"
 "http://www.w3.org/TR/2001/REC-SVG-20010904/DTD/svg10.dtd">
<svg version="1.0" xmlns="http://www.w3.org/2000/svg"
 width="70.000000pt" height="70.000000pt" viewBox="0 0 70.000000 70.000000"
 preserveAspectRatio="xMidYMid meet">
<metadata>
Created by potrace 1.16, written by Peter Selinger 2001-2019
</metadata>
<g transform="translate(0.000000,70.000000) scale(0.100000,-0.100000)"
fill="#000000" stroke="none">
<path d="M287 602 c-46 -47 -58 -72 -35 -72 7 0 27 14 45 32 l33 32 0 -175 0
-175 -45 -44 c-25 -24 -45 -49 -45 -55 0 -15 83 -95 99 -95 14 0 111 81 111
94 0 4 -20 31 -45 58 l-45 50 0 171 0 171 33 -32 c34 -33 57 -41 57 -19 0 15
-91 107 -106 107 -5 0 -31 -22 -57 -48z m113 -442 c7 -13 3 -23 -15 -40 l-25
-23 0 52 c0 47 2 52 16 41 8 -8 19 -21 24 -30z m-70 -17 l0 -46 -25 23 -25 24
22 23 c12 13 23 23 25 23 2 0 3 -21 3 -47z"/>
</g>
</svg>
