<?xml version="1.0" standalone="no"?>
<!DOCTYPE svg PUBLIC "-//W3C//DTD SVG 20010904//EN"
 "http://www.w3.org/TR/2001/REC-SVG-20010904/DTD/svg10.dtd">
<svg version="1.0" xmlns="http://www.w3.org/2000/svg"
 width="700.000000pt" height="280.000000pt" viewBox="0 0 700.000000 280.000000"
 preserveAspectRatio="xMidYMid meet">
<metadata>
Created by potrace 1.16, written by Peter Selinger 2001-2019
</metadata>
<g transform="translate(0.000000,280.000000) scale(0.100000,-0.100000)"
fill="#000000" stroke="none">
<path d="M6360 2713 c-21 -32 -30 -60 -30 -88 0 -35 6 -46 45 -84 54 -52 57
-80 16 -142 -28 -41 -31 -59 -10 -59 21 0 69 94 69 135 0 35 -6 46 -45 84 -54
52 -57 80 -16 142 28 41 31 59 10 59 -5 0 -23 -21 -39 -47z"/>
<path d="M6460 2713 c-21 -32 -30 -60 -30 -88 0 -35 6 -46 45 -84 54 -52 57
-80 16 -142 -28 -41 -31 -59 -10 -59 21 0 69 94 69 135 0 35 -6 46 -45 84 -54
52 -57 80 -16 142 28 41 31 59 10 59 -5 0 -23 -21 -39 -47z"/>
<path d="M1012 2715 c-42 -18 -65 -69 -52 -115 5 -17 21 -52 36 -78 l27 -46
-54 31 c-30 16 -65 33 -78 36 -37 9 -89 -17 -107 -56 -14 -30 -14 -37 0 -70
10 -26 26 -42 49 -52 39 -16 67 -11 135 24 23 12 42 18 42 14 0 -5 -11 -26
-23 -49 -13 -22 -26 -51 -30 -64 -9 -36 17 -88 56 -106 30 -14 37 -14 70 0 26
10 42 26 52 49 16 39 11 67 -24 135 l-22 43 43 -22 c23 -12 55 -25 71 -30 42
-12 93 12 113 54 14 30 14 37 0 70 -11 27 -26 42 -52 53 -34 14 -38 14 -101
-15 -36 -17 -67 -31 -69 -31 -3 0 5 19 17 42 35 68 40 96 24 134 -7 18 -27 40
-44 48 -36 19 -37 19 -79 1z m82 -41 c9 -8 16 -27 16 -41 0 -28 -48 -143 -60
-143 -12 0 -60 115 -60 143 0 34 25 57 60 57 16 0 36 -7 44 -16z m-143 -190
c33 -15 59 -29 59 -33 0 -3 -24 -18 -53 -33 -86 -46 -147 -32 -147 32 0 64 49
75 141 34z m323 10 c20 -20 20 -68 0 -88 -23 -23 -61 -20 -128 12 l-60 28 55
31 c60 35 109 41 133 17z m-164 -221 c0 -39 -22 -63 -60 -63 -67 0 -77 67 -25
157 l28 46 28 -54 c15 -30 28 -68 29 -86z"/>
<path d="M5810 2615 l0 -75 60 0 60 0 0 -150 0 -150 -45 0 -44 0 -3 63 c-4 88
-22 77 -26 -15 l-3 -78 141 0 140 0 0 75 c0 60 -3 75 -15 75 -12 0 -15 -13
-15 -60 l0 -60 -50 0 -50 0 0 150 0 150 65 0 65 0 0 75 c0 60 -3 75 -15 75
-12 0 -15 -13 -15 -60 l0 -60 -110 0 -110 0 0 60 c0 47 -3 60 -15 60 -12 0
-15 -15 -15 -75z"/>
<path d="M3830 2450 c0 -180 2 -210 15 -210 13 0 15 30 15 210 0 180 -2 210
-15 210 -13 0 -15 -30 -15 -210z"/>
<path d="M330 2480 c0 -144 2 -170 15 -170 13 0 15 26 15 170 0 144 -2 170
-15 170 -13 0 -15 -26 -15 -170z"/>
<path d="M1605 2609 c-4 -5 17 -38 46 -72 29 -34 58 -69 65 -77 11 -13 3 -28
-52 -93 -36 -42 -62 -82 -59 -88 10 -16 18 -9 83 69 l61 72 57 -67 c31 -38 63
-69 70 -71 28 -7 12 25 -46 92 -51 60 -58 72 -47 85 7 9 37 44 66 78 29 34 50
67 46 73 -9 14 -282 14 -290 -1z m214 -56 c-13 -16 -34 -40 -47 -55 l-24 -26
-31 36 c-67 80 -71 72 33 72 l93 0 -24 -27z"/>
<path d="M2436 2584 c-3 -9 -6 -67 -6 -130 l0 -114 -60 0 c-46 0 -60 -3 -60
-15 0 -22 32 -26 160 -23 94 2 115 6 115 18 0 11 -14 16 -57 18 l-58 3 0 129
c0 105 -3 130 -14 130 -8 0 -17 -7 -20 -16z"/>
<path d="M5236 2584 c-3 -9 -6 -67 -6 -130 l0 -114 -60 0 c-46 0 -60 -3 -60
-15 0 -22 32 -26 160 -23 94 2 115 6 115 18 0 11 -14 16 -57 18 l-58 3 0 129
c0 105 -3 130 -14 130 -8 0 -17 -7 -20 -16z"/>
<path d="M3711 2580 c-16 -9 -6 -30 15 -30 15 0 20 25 6 34 -4 2 -14 1 -21 -4z"/>
<path d="M3959 2574 c-10 -13 -10 -17 1 -24 17 -10 30 -4 30 15 0 22 -16 26
-31 9z"/>
<path d="M2986 2551 c-8 -13 149 -286 164 -286 15 0 172 273 164 286 -7 12
-321 12 -328 0z m248 -93 c-19 -35 -45 -82 -57 -105 -11 -24 -24 -43 -27 -43
-3 0 -16 19 -27 43 -12 23 -38 70 -58 105 l-36 62 120 0 121 0 -36 -62z"/>
<path d="M6690 2513 c-21 -32 -30 -60 -30 -88 0 -35 6 -46 45 -84 54 -52 57
-80 16 -142 -28 -41 -31 -59 -10 -59 21 0 69 94 69 135 0 35 -6 46 -45 84 -54
52 -57 80 -16 142 28 41 31 59 10 59 -5 0 -23 -21 -39 -47z"/>
<path d="M6790 2513 c-21 -32 -30 -60 -30 -88 0 -35 6 -46 45 -84 54 -52 57
-80 16 -142 -28 -41 -31 -59 -10 -59 21 0 69 94 69 135 0 35 -6 46 -45 84 -54
52 -57 80 -16 142 28 41 31 59 10 59 -5 0 -23 -21 -39 -47z"/>
<path d="M6890 2513 c-21 -32 -30 -60 -30 -88 0 -35 6 -46 45 -84 54 -52 57
-80 16 -142 -28 -41 -31 -59 -10 -59 21 0 69 94 69 135 0 35 -6 46 -45 84 -54
52 -57 80 -16 142 28 41 31 59 10 59 -5 0 -23 -21 -39 -47z"/>
<path d="M4386 2462 c-31 -39 -56 -76 -56 -81 0 -26 28 -7 69 46 l44 57 54
-59 54 -60 54 60 c34 37 57 56 62 49 5 -5 23 -31 42 -57 32 -44 61 -61 61 -36
0 8 -69 106 -101 143 -4 5 -33 -18 -63 -50 l-56 -59 -54 59 -53 58 -57 -70z"/>
<path d="M200 2478 c0 -33 53 -168 66 -168 18 0 18 0 -13 97 -15 47 -33 83
-40 83 -7 0 -13 -6 -13 -12z"/>
<path d="M463 2458 c-16 -21 -64 -140 -59 -146 3 -2 11 -2 18 1 19 7 71 138
60 149 -5 5 -13 4 -19 -4z"/>
<path d="M3710 2344 c-9 -10 -10 -18 -2 -26 12 -12 32 -2 32 17 0 21 -16 26
-30 9z"/>
<path d="M3955 2340 c-10 -16 16 -43 28 -31 11 11 2 41 -12 41 -5 0 -13 -5
-16 -10z"/>
<path d="M5105 2270 c-14 -22 51 -68 117 -84 64 -15 201 54 171 85 -10 10 -19
7 -43 -16 -24 -23 -41 -29 -87 -33 -49 -3 -64 0 -93 20 -55 38 -58 39 -65 28z"/>
<path d="M6593 2050 c-94 -19 -178 -87 -220 -178 -44 -94 -28 -235 34 -304 16
-17 14 -21 -20 -56 -20 -21 -37 -43 -37 -50 0 -23 25 -11 72 35 l47 46 -33 38
c-40 47 -56 97 -56 175 0 146 118 263 264 264 81 0 129 -17 183 -64 61 -53 93
-123 93 -202 0 -74 -13 -117 -51 -166 -16 -20 -29 -41 -29 -45 0 -13 84 -93
98 -93 22 0 13 26 -22 59 l-33 32 35 69 c30 59 35 77 34 139 -1 190 -176 337
-359 301z"/>
<path d="M4487 2002 c-46 -47 -58 -72 -35 -72 7 0 27 14 45 32 l33 32 0 -175
0 -175 -45 -44 c-25 -24 -45 -49 -45 -55 0 -15 83 -95 99 -95 14 0 111 81 111
94 0 4 -20 31 -45 58 l-45 50 0 171 0 171 33 -32 c34 -33 57 -41 57 -19 0 15
-91 107 -106 107 -5 0 -31 -22 -57 -48z m113 -442 c7 -13 3 -23 -15 -40 l-25
-23 0 52 c0 47 2 52 16 41 8 -8 19 -21 24 -30z m-70 -17 l0 -46 -25 23 -25 24
22 23 c12 13 23 23 25 23 2 0 3 -21 3 -47z"/>
<path d="M945 2020 c-8 -12 5 -109 17 -133 5 -10 23 -23 39 -29 l29 -10 0
-189 c0 -161 2 -189 15 -189 13 0 15 28 15 188 l0 188 33 12 c42 15 61 49 61
109 1 67 -21 68 -30 2 -7 -49 -31 -89 -54 -89 -5 0 -10 33 -12 73 -2 39 -7 72
-13 72 -5 0 -12 -33 -15 -73 l-5 -73 -22 16 c-15 10 -23 26 -23 44 0 67 -18
109 -35 81z"/>
<path d="M2437 2004 c-4 -4 -7 -60 -7 -123 l0 -117 -39 4 c-21 2 -42 -1 -45
-7 -4 -6 13 -43 38 -81 26 -40 46 -82 46 -98 0 -25 -4 -23 -58 37 -42 46 -63
62 -77 59 -17 -3 -6 -18 64 -91 47 -48 89 -87 95 -86 14 1 146 153 146 168 0
25 -28 7 -75 -49 -44 -52 -51 -56 -57 -39 -6 15 5 39 42 94 54 79 53 91 -7 86
l-32 -2 -3 122 c-3 114 -10 143 -31 123z m-7 -299 c0 -14 -2 -25 -4 -25 -2 0
-11 11 -20 25 -16 24 -16 25 4 25 15 0 20 -7 20 -25z m64 0 c-9 -14 -18 -25
-20 -25 -2 0 -4 11 -4 25 0 18 5 25 20 25 20 0 20 -1 4 -25z"/>
<path d="M3814 1930 c-54 -12 -100 -48 -125 -97 -13 -25 -41 -62 -61 -81 -59
-54 -48 -86 11 -36 30 25 31 25 31 4 0 -41 39 -98 85 -126 94 -55 207 -24 255
70 14 27 42 65 63 84 58 54 47 86 -12 36 l-31 -26 0 23 c0 12 -11 42 -25 66
-38 63 -120 99 -191 83z m142 -71 c23 -23 37 -48 41 -74 l6 -40 -44 36 c-49
40 -101 61 -127 52 -28 -10 -62 -45 -62 -65 0 -26 15 -22 35 8 25 39 79 29
143 -26 58 -48 58 -63 1 -115 -34 -30 -46 -35 -90 -35 -27 0 -63 7 -78 15 -43
22 -81 72 -81 107 l0 30 43 -34 c47 -39 99 -60 125 -51 28 10 62 45 62 65 0
26 -15 22 -35 -8 -25 -39 -79 -29 -144 26 -54 46 -56 56 -12 104 36 39 57 46
124 43 51 -3 62 -8 93 -38z"/>
<path d="M3830 1764 c-11 -12 -10 -18 3 -32 16 -15 18 -15 34 0 13 14 14 20 3
32 -7 9 -16 16 -20 16 -4 0 -13 -7 -20 -16z"/>
<path d="M5218 1924 c-31 -16 -43 -48 -42 -114 1 -77 90 -240 131 -240 18 0
16 14 -6 34 -21 19 -77 128 -87 169 -6 26 -4 27 29 27 26 0 41 7 56 26 26 33
26 55 4 82 -25 28 -53 34 -85 16z m66 -40 c10 -27 -12 -54 -44 -54 -25 0 -30
4 -30 23 0 13 5 28 12 35 17 17 55 15 62 -4z"/>
<path d="M265 1860 c-54 -55 -67 -72 -57 -82 10 -10 24 -1 67 42 l55 54 0 -64
0 -65 -66 -78 c-36 -42 -62 -82 -59 -88 10 -16 18 -9 83 69 l61 72 57 -67 c55
-66 84 -87 84 -62 0 6 -25 41 -56 77 -67 79 -75 98 -67 158 l6 45 46 -45 c47
-46 71 -57 71 -33 0 18 -122 137 -141 137 -8 0 -46 -31 -84 -70z"/>
<path d="M1711 1855 c-22 -30 -41 -59 -41 -65 0 -19 19 -10 44 22 14 18 27 30
29 28 2 -3 1 -44 -1 -92 l-4 -87 -32 -3 c-17 -2 -30 -7 -28 -13 3 -15 174 -13
180 3 2 8 -10 12 -42 12 l-46 0 0 90 c0 50 3 90 8 90 4 0 16 -14 27 -30 20
-31 52 -42 42 -15 -9 21 -80 115 -88 115 -4 0 -25 -25 -48 -55z"/>
<path d="M5900 1820 l-45 -80 -42 0 c-32 0 -43 -4 -43 -15 0 -10 10 -15 30
-15 36 0 37 -4 5 -55 -13 -22 -25 -46 -25 -52 0 -10 41 -13 170 -13 129 0 170
3 170 13 0 6 -11 32 -25 56 -14 23 -25 45 -25 47 0 2 14 4 30 4 20 0 30 5 30
15 0 11 -11 15 -40 15 -39 0 -40 1 -82 80 -24 44 -47 80 -53 80 -5 0 -30 -36
-55 -80z m110 -75 c0 -3 -27 -5 -59 -5 l-60 0 31 55 32 54 28 -49 c15 -27 28
-52 28 -55z m46 -82 l25 -43 -130 0 -131 0 28 45 27 46 78 -3 78 -3 25 -42z"/>
<path d="M3056 1774 c-60 -81 -76 -108 -67 -117 8 -8 14 -9 19 -1 27 41 137
184 142 184 5 0 115 -143 142 -184 5 -8 11 -7 19 1 9 9 -7 36 -67 117 -44 58
-86 105 -94 105 -8 0 -50 -47 -94 -105z"/>
<path d="M1005 1355 c-30 -29 -31 -58 -6 -108 19 -37 19 -38 -2 -76 -21 -38
-21 -40 -4 -95 16 -51 17 -58 3 -78 -20 -28 -21 -94 -2 -130 13 -24 12 -26
-10 -31 -23 -4 -24 -2 -24 59 0 50 -3 64 -15 64 -12 0 -15 -14 -15 -65 0 -67
-5 -74 -44 -59 -12 5 -16 21 -16 65 0 45 -3 59 -15 59 -10 0 -15 -15 -17 -56
l-3 -56 -23 19 c-13 10 -27 34 -31 52 -10 51 -31 52 -31 1 0 -34 6 -47 31 -71
17 -16 37 -29 45 -29 10 0 14 -13 14 -45 0 -33 4 -45 15 -45 10 0 15 11 15 35
0 32 2 35 30 35 28 0 30 -3 30 -35 0 -24 5 -35 15 -35 10 0 15 11 15 35 0 21
5 35 13 35 6 0 22 3 35 6 20 6 22 3 22 -35 0 -30 4 -41 15 -41 11 0 15 11 15
40 0 39 1 40 28 34 49 -10 52 -13 52 -44 0 -20 5 -30 15 -30 10 0 15 10 15 29
0 26 14 41 41 41 5 0 9 -16 9 -35 0 -24 5 -35 15 -35 11 0 15 11 15 38 0 29 5
39 22 47 28 13 55 60 60 104 4 42 -19 54 -27 14 -11 -49 -26 -81 -41 -87 -11
-4 -14 7 -14 54 0 47 -3 60 -15 60 -12 0 -15 -14 -15 -64 0 -60 -1 -64 -25
-68 -25 -5 -25 -4 -25 63 0 55 -3 69 -15 69 -12 0 -15 -14 -15 -65 0 -67 -5
-74 -44 -59 -14 5 -14 8 -1 27 8 12 15 42 15 67 0 37 -5 51 -26 69 l-26 23 26
27 c32 34 35 91 6 139 l-20 33 20 29 c26 36 26 84 0 110 -27 27 -56 25 -85 -5z
m75 -41 c0 -21 -28 -74 -39 -74 -5 0 -15 16 -21 36 -10 30 -9 38 5 54 14 15
22 17 36 9 11 -5 19 -17 19 -25z m0 -199 c0 -19 -8 -39 -20 -50 -19 -17 -20
-17 -36 20 -15 36 -15 42 1 74 l17 36 19 -24 c10 -13 19 -38 19 -56z m-12
-137 c15 -15 16 -84 2 -93 -6 -4 -10 10 -10 34 0 30 -4 41 -15 41 -11 0 -15
-11 -15 -42 0 -32 -3 -39 -10 -28 -11 17 -13 61 -4 84 7 19 35 21 52 4z"/>
<path d="M6527 1363 c-11 -10 -8 -23 6 -23 6 0 30 -5 51 -11 33 -9 37 -13 23
-21 -9 -5 -17 -15 -17 -23 0 -7 -20 -24 -44 -38 l-44 -25 -28 29 c-15 16 -34
29 -41 29 -22 0 -15 -25 16 -54 l29 -28 -25 -44 c-14 -24 -31 -44 -38 -44 -8
0 -18 -8 -23 -17 -8 -14 -12 -10 -21 23 -6 21 -11 45 -11 52 0 6 -5 12 -10 12
-20 0 -22 -31 -6 -80 15 -46 15 -54 0 -100 -16 -49 -14 -80 6 -80 5 0 10 8 10
19 0 10 5 33 11 51 10 27 13 30 21 16 5 -9 15 -16 23 -16 7 0 24 -20 38 -43
l24 -44 -29 -32 c-48 -54 -25 -75 26 -22 l28 29 44 -25 c24 -14 44 -31 44 -38
0 -8 8 -18 17 -23 14 -8 10 -12 -23 -21 -21 -6 -45 -11 -51 -11 -7 0 -13 -5
-13 -10 0 -20 31 -22 80 -6 46 15 54 15 100 0 49 -16 80 -14 80 6 0 5 -8 10
-19 10 -10 0 -33 5 -51 11 -27 10 -30 13 -16 21 9 5 16 15 16 23 0 7 20 24 44
38 l44 25 28 -29 c29 -31 54 -38 54 -16 0 7 -13 26 -29 41 l-29 28 25 44 c14
24 31 44 38 44 8 0 18 7 23 16 8 14 11 11 21 -16 6 -18 11 -41 11 -51 0 -11 5
-19 10 -19 20 0 22 31 6 80 -15 46 -15 54 0 100 16 49 14 80 -6 80 -5 0 -10
-6 -10 -12 0 -7 -5 -31 -11 -52 -9 -33 -13 -37 -21 -23 -5 9 -15 17 -23 17 -7
0 -24 20 -38 44 l-25 44 29 28 c31 29 38 54 16 54 -7 0 -26 -13 -41 -29 l-28
-29 -44 25 c-24 14 -44 31 -44 38 0 8 -8 18 -17 23 -14 8 -10 12 23 21 21 6
45 11 52 11 6 0 12 5 12 10 0 20 -31 22 -80 6 -46 -15 -55 -15 -96 -1 -49 16
-67 18 -77 8z m143 -77 c6 -8 10 -25 8 -38 -2 -17 -10 -23 -28 -23 -18 0 -26
6 -28 23 -3 22 13 52 28 52 4 0 13 -7 20 -14z m-63 -76 c14 -11 33 -20 43 -20
10 0 29 9 43 20 14 11 29 20 33 20 16 0 75 -53 89 -81 15 -28 14 -31 -5 -56
-26 -33 -25 -54 2 -88 20 -26 20 -29 5 -54 -8 -14 -32 -39 -52 -56 -30 -24
-39 -27 -53 -17 -54 38 -70 38 -124 0 -14 -10 -23 -7 -53 17 -20 17 -44 42
-52 56 -15 25 -15 28 5 54 27 34 28 55 2 88 -19 24 -20 28 -6 56 15 28 73 81
89 81 5 0 20 -9 34 -20z m-132 -160 c0 -19 -6 -26 -26 -28 -34 -4 -57 22 -39
44 8 8 25 14 39 12 20 -2 26 -9 26 -28z m415 15 c17 -20 -3 -45 -37 -45 -25 0
-39 20 -29 45 3 8 16 15 29 15 14 0 30 -7 37 -15z m-212 -216 c4 -34 -22 -57
-43 -39 -16 13 -20 51 -8 64 16 16 48 1 51 -25z"/>
<path d="M3543 1344 c-2 -5 -2 -62 -1 -125 2 -93 6 -114 18 -114 12 0 16 20
18 107 l3 107 107 3 c87 2 107 6 107 18 0 13 -20 15 -124 15 -78 0 -125 -4
-128 -11z"/>
<path d="M3905 1350 c-14 -23 11 -30 110 -30 l104 0 3 -107 c2 -88 6 -108 18
-108 13 0 15 20 13 125 l-2 125 -120 3 c-74 2 -122 -1 -126 -8z"/>
<path d="M1730 1247 c0 -104 0 -104 -35 -151 l-36 -46 33 -48 c31 -44 33 -54
38 -147 4 -80 8 -100 20 -100 12 0 16 20 20 100 5 93 7 103 38 148 l33 47 -33
42 c-32 40 -33 47 -38 147 -4 90 -8 106 -22 109 -16 3 -18 -7 -18 -101z m-2
-219 l-3 -23 -13 23 c-11 19 -11 26 0 39 12 15 13 15 16 0 2 -9 2 -27 0 -39z
m72 23 c0 -4 -7 -16 -15 -27 -13 -18 -14 -16 -15 20 0 33 2 37 15 26 8 -7 15
-16 15 -19z"/>
<path d="M337 1294 c-4 -4 -7 -104 -7 -223 l-1 -216 -42 48 c-42 46 -67 59
-67 35 1 -7 28 -42 60 -77 89 -95 90 -94 90 166 l1 218 42 -47 c42 -47 67 -60
67 -36 0 13 -109 131 -125 136 -6 1 -14 0 -18 -4z"/>
<path d="M2434 1287 c-10 -28 1 -190 14 -195 9 -3 12 22 12 102 0 66 -4 106
-10 106 -6 0 -13 -6 -16 -13z"/>
<path d="M3604 1287 c-10 -27 1 -180 13 -184 9 -3 13 19 15 79 l3 83 83 3 c60
2 82 6 79 15 -6 18 -186 22 -193 4z"/>
<path d="M3907 1294 c-18 -18 -1 -23 76 -26 l82 -3 3 -83 c2 -60 6 -82 15 -79
8 2 12 33 12 98 l0 94 -90 3 c-50 1 -94 0 -98 -4z"/>
<path d="M3077 1164 c-37 -58 -67 -110 -67 -117 0 -17 130 -212 140 -212 11 0
140 201 140 217 0 13 -132 218 -140 218 -4 0 -36 -47 -73 -106z m132 -33 l52
-79 -53 -86 c-29 -47 -55 -85 -58 -85 -3 0 -29 38 -58 84 l-53 84 51 81 c29
44 55 80 60 80 4 0 31 -36 59 -79z"/>
<path d="M5937 1254 c-4 -4 -7 -16 -7 -26 0 -11 -7 -18 -18 -18 -29 0 -88 -47
-106 -83 -20 -43 -21 -119 -1 -157 17 -33 60 -66 98 -75 16 -4 27 -15 29 -28
4 -28 32 -28 36 -1 2 14 12 24 30 27 96 19 146 162 88 248 -22 33 -77 69 -104
69 -6 0 -12 10 -14 22 -3 22 -19 33 -31 22z m-7 -204 c0 -71 -2 -130 -5 -130
-20 0 -69 36 -85 63 -38 61 -18 140 43 177 18 11 35 20 40 20 4 0 7 -58 7
-130z m81 115 c38 -20 69 -71 69 -113 0 -56 -38 -111 -87 -126 l-23 -7 0 130
c0 72 2 131 5 131 4 0 19 -7 36 -15z"/>
<path d="M3664 1227 c-10 -26 0 -120 14 -125 8 -3 12 12 12 52 l0 56 56 0 c40
0 55 3 52 13 -7 18 -127 22 -134 4z"/>
<path d="M3907 1234 c-17 -17 -3 -24 48 -24 l55 0 0 -56 c0 -40 3 -55 13 -51
8 2 12 25 12 68 l0 64 -60 3 c-34 2 -64 0 -68 -4z"/>
<path d="M5125 1179 c-4 -6 18 -34 49 -62 l56 -51 -27 -28 -27 -28 -58 57
c-45 45 -60 55 -70 45 -10 -10 0 -25 46 -71 l58 -59 -23 -15 c-26 -19 -28 -18
-101 52 -36 33 -51 42 -59 34 -9 -9 6 -28 56 -75 37 -35 71 -64 76 -66 5 -2
41 26 81 62 l72 66 71 -70 c39 -38 74 -70 78 -70 14 0 137 114 137 128 0 24
-25 11 -77 -40 l-53 -52 -31 30 -30 31 60 49 c57 46 76 74 50 74 -6 0 -37 -22
-69 -50 -32 -27 -62 -50 -67 -50 -6 0 -18 10 -29 21 -19 21 -19 22 39 73 31
28 57 57 57 64 0 16 -256 17 -265 1z m175 -54 c-19 -19 -39 -35 -45 -35 -6 0
-26 16 -45 35 l-34 35 79 0 79 0 -34 -35z"/>
<path d="M4460 1160 c-59 -20 -125 -82 -137 -128 -5 -21 1 -31 33 -59 54 -45
95 -57 194 -57 99 0 140 12 194 57 33 28 38 37 32 60 -11 47 -85 113 -145 131
-70 20 -103 20 -171 -4z m188 -36 c38 -16 92 -71 92 -96 0 -9 -17 -30 -37 -45
-35 -27 -41 -28 -153 -28 -112 0 -118 1 -153 28 -42 32 -45 52 -14 87 34 40
54 52 105 66 51 14 107 10 160 -12z"/>
<path d="M4516 1084 c-19 -18 -21 -55 -4 -72 28 -28 88 -2 88 38 0 24 -26 50
-50 50 -10 0 -26 -7 -34 -16z"/>
<path d="M2265 1060 c-14 -23 12 -31 79 -24 42 4 65 11 63 18 -5 15 -133 20
-142 6z"/>
<path d="M2532 1063 c-72 -7 -46 -28 34 -28 55 0 69 3 69 15 0 16 -29 20 -103
13z"/>
<path d="M2440 905 c0 -81 3 -106 13 -102 8 2 12 32 12 102 0 70 -4 100 -12
103 -10 3 -13 -22 -13 -103z"/>
<path d="M3546 991 c-4 -6 -5 -63 -2 -128 l4 -117 124 3 c68 1 125 4 127 6 1
2 0 8 -4 14 -4 7 -47 11 -110 11 l-104 0 -3 107 c-2 69 -7 108 -15 110 -6 2
-14 -1 -17 -6z"/>
<path d="M3604 987 c-3 -8 -4 -52 -2 -98 l3 -84 94 0 c65 0 96 4 98 12 3 9
-19 13 -79 15 l-83 3 -3 83 c-3 74 -14 104 -28 69z"/>
<path d="M3664 986 c-3 -7 -4 -38 -2 -67 l3 -54 64 0 c43 0 66 4 69 13 3 9
-12 12 -52 12 l-56 0 0 55 c0 51 -14 73 -26 41z"/>
<path d="M4010 946 l0 -56 -56 0 c-40 0 -55 -3 -51 -12 2 -9 25 -13 68 -13
l64 0 0 64 c0 43 -4 66 -12 69 -10 3 -13 -12 -13 -52z"/>
<path d="M4068 918 l-3 -83 -83 -3 c-60 -2 -82 -6 -79 -15 2 -8 33 -12 98 -12
l94 0 0 94 c0 65 -4 96 -12 98 -9 3 -13 -19 -15 -79z"/>
<path d="M4127 994 c-4 -4 -7 -54 -7 -110 l0 -103 -107 -3 c-88 -2 -108 -6
-108 -18 0 -13 20 -15 125 -14 l125 0 0 124 c0 115 -7 145 -28 124z"/>
<path d="M1738 685 c-3 -3 -3 -72 -1 -153 l5 -147 -104 103 c-57 56 -109 102
-116 102 -28 0 -7 -30 87 -122 l98 -97 -145 -3 c-104 -2 -147 -7 -149 -15 -3
-9 33 -13 146 -15 l151 -3 -100 -100 c-54 -55 -99 -106 -100 -112 0 -29 30 -7
127 89 l103 103 0 -154 c0 -118 3 -152 13 -149 9 3 13 45 15 150 l3 146 100
-99 c55 -55 104 -99 109 -99 26 0 2 33 -92 127 l-103 103 154 0 c118 0 152 3
149 13 -3 8 -46 13 -148 17 l-143 5 97 97 c53 53 96 102 96 107 0 27 -31 4
-122 -86 l-98 -98 0 101 c0 148 -11 210 -32 189z"/>
<path d="M1037 673 c-4 -3 -7 -37 -7 -75 0 -39 -4 -68 -10 -68 -5 0 -10 18
-10 41 0 52 -24 48 -28 -4 -2 -20 -5 -37 -8 -37 -12 0 -131 44 -141 52 -13 11
-9 -9 21 -91 23 -63 21 -69 -21 -73 -51 -4 -53 -31 -3 -32 19 -1 35 -5 35 -11
0 -6 -30 -10 -70 -10 -56 0 -70 -3 -70 -15 0 -12 18 -16 80 -20 75 -5 85 -20
13 -20 -43 0 -30 -24 15 -28 20 -2 37 -7 37 -11 0 -16 -40 -124 -51 -138 -20
-24 -4 -24 57 1 105 42 102 42 106 0 4 -50 28 -58 28 -10 0 19 4 37 10 41 5 3
10 -24 12 -67 2 -57 6 -73 18 -73 12 0 14 13 11 72 -3 62 -1 73 13 73 12 0 16
-10 16 -41 0 -52 24 -48 28 4 3 35 5 37 30 31 15 -4 50 -18 79 -31 59 -27 70
-28 54 -9 -12 15 -51 122 -51 142 0 8 15 14 37 16 45 4 58 28 15 28 -72 0 -62
15 13 20 62 4 80 8 80 20 0 12 -14 15 -70 15 -40 0 -70 4 -70 10 0 6 16 10 35
11 50 1 47 28 -3 32 -37 3 -38 5 -32 30 3 15 17 51 31 81 13 30 23 56 21 58
-2 1 -30 -8 -63 -21 -105 -42 -102 -42 -106 1 -2 26 -8 38 -18 38 -11 0 -14
-9 -12 -37 3 -29 0 -38 -12 -38 -13 0 -16 13 -16 75 0 69 -6 86 -23 68z m8
-175 c61 -1 121 9 170 28 10 4 9 -9 -6 -56 -23 -74 -25 -169 -4 -236 8 -27 15
-52 15 -56 0 -3 -21 1 -47 9 -80 24 -205 19 -288 -13 -10 -4 -9 9 6 56 23 74
25 169 4 236 -8 27 -15 52 -15 56 0 3 21 -1 48 -9 26 -8 79 -15 117 -15z"/>
<path d="M3124 613 c-13 -43 -32 -70 -66 -92 -21 -13 -35 -28 -32 -33 8 -13
80 31 95 58 7 13 15 24 19 24 4 0 12 -11 19 -24 16 -28 87 -71 96 -57 3 6 -7
17 -22 25 -37 19 -63 48 -72 82 -9 33 -29 43 -37 17z"/>
<path d="M2437 584 c-4 -4 -7 -27 -7 -50 l0 -43 -62 -3 -62 -3 3 -57 2 -57
-47 -3 c-64 -4 -72 -28 -10 -28 l45 0 3 -67 3 -68 62 3 62 4 3 -49 c2 -35 7
-48 18 -48 11 0 16 13 18 47 l3 47 61 3 61 3 1 60 1 60 48 3 c63 4 58 26 -7
30 l-47 3 2 57 3 57 -61 3 -62 3 -3 46 c-3 44 -15 62 -31 47z m-7 -169 l0 -45
-45 0 -45 0 0 45 0 45 45 0 45 0 0 -45z m130 0 l0 -45 -45 0 -45 0 0 45 0 45
45 0 45 0 0 -45z m-130 -125 l0 -50 -51 0 c-48 0 -51 1 -45 23 3 12 6 34 6 50
0 25 3 27 45 27 l45 0 0 -50z m130 0 l0 -50 -45 0 -45 0 0 50 0 50 45 0 45 0
0 -50z"/>
<path d="M2918 539 c-35 -20 -42 -52 -43 -184 -2 -137 7 -175 44 -195 38 -20
44 -9 14 23 -29 30 -37 50 -34 86 1 11 7 9 24 -7 13 -12 26 -22 30 -22 16 0 5
23 -19 42 l-25 20 22 24 c21 22 21 25 6 42 -22 24 -21 39 3 54 20 13 28 38 12
38 -5 0 -17 -9 -27 -20 -13 -15 -21 -17 -26 -9 -10 17 7 59 39 92 26 28 15 37
-20 16z"/>
<path d="M3347 518 c33 -35 51 -82 35 -92 -5 -3 -17 3 -27 14 -10 11 -22 20
-27 20 -17 0 -7 -23 18 -42 l25 -20 -22 -24 c-21 -22 -21 -25 -6 -42 22 -24
21 -39 -3 -54 -20 -13 -28 -38 -12 -38 5 0 17 9 27 20 13 15 21 17 26 9 11
-18 -8 -61 -38 -86 -31 -25 -24 -42 10 -24 44 24 51 48 52 186 2 137 -7 175
-44 195 -38 20 -44 9 -14 -22z"/>
<path d="M305 491 c-69 -17 -127 -64 -159 -128 -21 -41 -21 -93 -1 -93 9 0 15
9 15 25 0 28 23 79 49 109 62 71 198 74 275 7 25 -22 56 -85 56 -116 0 -16 6
-25 15 -25 21 0 19 53 -4 98 -47 90 -156 145 -246 123z"/>
<path d="M2826 412 c-7 -11 31 -48 41 -38 4 3 -2 16 -14 27 -11 12 -23 17 -27
11z"/>
<path d="M3425 400 c-25 -27 -10 -39 16 -13 12 11 17 23 11 27 -5 3 -17 -3
-27 -14z"/>
<path d="M315 371 c-53 -23 -92 -111 -52 -119 13 -3 17 3 17 26 0 38 28 62 72
62 42 0 68 -25 68 -64 0 -21 4 -27 18 -24 26 5 17 57 -16 90 -30 30 -76 42
-107 29z"/>
<path d="M2810 350 c0 -5 11 -10 25 -10 14 0 25 5 25 10 0 6 -11 10 -25 10
-14 0 -25 -4 -25 -10z"/>
<path d="M3420 350 c0 -5 11 -10 25 -10 14 0 25 5 25 10 0 6 -11 10 -25 10
-14 0 -25 -4 -25 -10z"/>
<path d="M2837 312 c-10 -10 -14 -22 -10 -25 7 -8 43 21 43 35 0 14 -16 9 -33
-10z"/>
<path d="M3410 322 c0 -14 36 -43 43 -35 4 3 0 15 -10 25 -17 19 -33 24 -33
10z"/>
</g>
</svg>
