<?xml version="1.0" standalone="no"?>
<!DOCTYPE svg PUBLIC "-//W3C//DTD SVG 20010904//EN"
 "http://www.w3.org/TR/2001/REC-SVG-20010904/DTD/svg10.dtd">
<svg version="1.0" xmlns="http://www.w3.org/2000/svg"
 width="70.000000pt" height="70.000000pt" viewBox="0 0 70.000000 70.000000"
 preserveAspectRatio="xMidYMid meet">
<metadata>
Created by potrace 1.16, written by Peter Selinger 2001-2019
</metadata>
<g transform="translate(0.000000,70.000000) scale(0.100000,-0.100000)"
fill="#000000" stroke="none">
<path d="M318 524 c-31 -16 -43 -48 -42 -114 1 -77 90 -240 131 -240 18 0 16
14 -6 34 -21 19 -77 128 -87 169 -6 26 -4 27 29 27 26 0 41 7 56 26 26 33 26
55 4 82 -25 28 -53 34 -85 16z m66 -40 c10 -27 -12 -54 -44 -54 -25 0 -30 4
-30 23 0 13 5 28 12 35 17 17 55 15 62 -4z"/>
</g>
</svg>
