<?xml version="1.0" standalone="no"?>
<!DOCTYPE svg PUBLIC "-//W3C//DTD SVG 20010904//EN"
 "http://www.w3.org/TR/2001/REC-SVG-20010904/DTD/svg10.dtd">
<svg version="1.0" xmlns="http://www.w3.org/2000/svg"
 width="1500.000000pt" height="725.000000pt" viewBox="0 0 1500.000000 725.000000"
 preserveAspectRatio="xMidYMid meet">
<metadata>
Created by potrace 1.16, written by Peter Selinger 2001-2019
</metadata>
<g transform="translate(0.000000,725.000000) scale(0.100000,-0.100000)"
fill="#000000" stroke="none">
<path d="M513 7233 c14 -14 35 -18 92 -18 57 0 78 4 92 18 16 16 12 17 -92 17
-104 0 -108 -1 -92 -17z"/>
<path d="M925 7238 c-2 -7 -9 -31 -15 -53 -7 -22 -43 -86 -81 -142 -96 -143
-121 -196 -127 -270 -6 -79 7 -112 66 -164 l45 -40 1 -92 1 -93 -45 -15 c-53
-17 -81 -53 -106 -137 -49 -166 21 -464 134 -575 21 -20 83 -67 139 -104 194
-130 283 -287 312 -553 6 -52 16 -138 23 -190 6 -52 12 -232 12 -400 1 -401
-22 -599 -80 -688 -23 -35 -45 -101 -54 -162 -4 -30 -16 -76 -26 -102 -18 -45
-18 -48 1 -105 24 -74 25 -224 2 -268 -32 -63 -56 -73 -219 -92 l-48 -5 0 50
c0 70 -15 106 -81 199 -62 86 -68 106 -48 176 9 32 30 52 151 145 77 59 148
110 157 113 21 9 61 60 91 119 25 49 39 171 39 352 1 93 0 98 -23 113 -19 13
-29 14 -45 5 -27 -14 -29 -26 -35 -215 -4 -146 -17 -225 -35 -225 -4 0 -14
-13 -23 -28 -10 -16 -87 -81 -172 -145 -85 -64 -164 -129 -175 -144 -11 -16
-26 -34 -32 -41 -23 -27 -31 -82 -19 -135 6 -28 15 -54 19 -57 14 -8 97 -124
117 -161 15 -29 16 -48 8 -149 -5 -63 -8 -178 -7 -255 1 -157 18 -234 93 -411
22 -51 40 -105 40 -119 0 -14 -13 -60 -29 -103 -17 -42 -33 -90 -37 -105 -6
-26 -10 -28 -38 -23 -17 3 -69 8 -116 12 -68 5 -92 3 -116 -9 -39 -20 -49 -45
-63 -148 -18 -139 -16 -159 30 -246 62 -117 79 -188 79 -320 l0 -113 -34 -44
c-53 -70 -59 -102 -59 -291 -1 -198 10 -235 91 -318 61 -63 108 -96 218 -150
224 -112 574 -197 1004 -244 234 -26 863 -25 1100 0 604 66 1057 213 1222 395
75 83 82 107 86 298 2 101 -1 188 -7 211 -16 60 -67 128 -133 180 -56 44 -59
49 -52 78 4 16 8 48 9 70 1 22 6 49 12 60 11 21 19 54 28 122 9 66 31 109 74
144 50 40 71 98 70 193 -1 171 -22 214 -103 223 -68 8 -121 -17 -196 -90 -72
-69 -129 -117 -141 -117 -4 0 -7 98 -5 218 l2 217 52 116 c29 64 52 122 52
128 0 6 5 11 10 11 6 0 10 27 10 60 0 33 -4 60 -8 60 -12 0 -32 84 -32 135 0
49 19 147 30 155 3 3 19 46 34 95 32 102 84 203 130 249 89 89 126 186 107
277 -17 79 -37 115 -92 174 -40 42 -68 61 -129 86 l-77 32 10 51 c5 28 13 54
18 57 6 3 16 42 24 87 8 44 33 149 56 234 43 162 58 276 59 460 0 131 21 196
104 327 108 170 123 278 67 471 -38 129 -55 250 -49 349 4 63 11 89 43 151 70
138 59 278 -32 405 -61 84 -94 156 -100 217 -4 44 1 68 30 143 l35 90 106 55
c183 95 250 161 258 256 l3 39 -1783 3 c-1421 2 -1783 0 -1787 -10z m850 -448
c47 -18 94 -64 115 -113 18 -41 21 -71 23 -210 1 -146 -1 -166 -19 -197 -40
-69 -141 -95 -203 -51 -16 12 -39 21 -51 21 -53 0 -120 75 -120 134 0 8 -9 33
-20 57 -23 52 -26 116 -6 163 14 34 94 143 120 165 20 17 85 40 113 41 12 0
33 -4 48 -10z m1670 -66 c218 -35 306 -66 402 -140 59 -46 87 -85 103 -145 7
-24 18 -55 25 -69 31 -62 47 -131 41 -183 -4 -29 -10 -110 -15 -182 -4 -71
-14 -164 -21 -205 -7 -45 -10 -110 -6 -165 21 -324 22 -323 -14 -409 -39 -94
-88 -145 -180 -188 -70 -33 -63 -25 -203 -228 -44 -63 -85 -119 -92 -125 -6
-5 -40 -50 -75 -99 -71 -100 -215 -251 -275 -288 -134 -83 -266 -76 -344 19
-49 59 -61 116 -61 285 0 98 -8 213 -25 344 -34 271 -32 357 13 502 l16 54
-29 56 c-16 32 -33 60 -38 63 -6 4 -28 44 -51 90 -39 81 -43 84 -87 97 -39 10
-51 20 -87 75 -23 35 -92 112 -154 173 -152 147 -207 242 -186 321 9 36 76
100 181 171 104 71 143 88 248 112 52 12 114 29 139 37 31 11 107 18 248 23
111 4 206 10 209 14 12 11 227 5 318 -10z m-2449 -532 c60 -39 101 -82 193
-207 107 -144 181 -205 246 -205 23 0 25 -3 25 -48 0 -48 -3 -54 -60 -124 -46
-58 -123 -79 -203 -57 -68 18 -336 298 -392 409 -20 38 -24 98 -12 148 7 25 5
32 -6 32 -8 0 -20 6 -26 14 -19 23 19 53 76 61 26 4 53 8 58 10 26 9 46 2 101
-33z m687 -726 c45 -19 64 -43 86 -113 42 -133 -19 -326 -120 -378 -15 -8 -49
-15 -75 -15 -41 0 -51 5 -85 39 -22 21 -39 48 -39 60 0 11 -4 21 -10 21 -5 0
-10 7 -10 15 0 8 5 15 10 15 6 0 10 11 10 24 0 48 41 222 63 265 35 71 101 97
170 67z m22 -1569 c44 -31 104 -79 133 -106 49 -46 63 -53 173 -85 l120 -34
58 30 c47 24 75 31 143 35 107 7 143 -5 213 -69 58 -53 75 -90 75 -164 0 -84
-8 -101 -66 -134 -56 -32 -60 -46 -21 -78 7 -6 24 -34 37 -62 l24 -50 -33 -33
c-38 -40 -71 -122 -71 -178 0 -71 65 -164 138 -195 29 -13 32 -18 32 -57 0
-100 -56 -232 -124 -295 -72 -67 -118 -85 -222 -90 -165 -8 -235 35 -305 186
-35 76 -127 223 -154 247 -51 45 -219 383 -254 509 -6 25 -32 62 -73 105 -113
120 -103 91 -100 296 2 99 7 182 11 185 3 3 12 17 18 33 19 42 70 69 123 64
36 -3 63 -16 125 -60z m2074 -323 c22 -9 60 -38 85 -66 51 -57 62 -96 51 -186
-5 -46 -11 -60 -28 -67 -15 -7 -22 -19 -23 -40 -1 -16 -13 -63 -27 -103 -40
-110 -67 -223 -76 -326 -9 -86 -14 -104 -75 -231 -64 -135 -66 -140 -66 -219
0 -44 -7 -106 -16 -136 -9 -30 -21 -77 -26 -105 -17 -83 -37 -130 -71 -167
-18 -19 -45 -62 -62 -96 -26 -54 -35 -63 -85 -86 -132 -60 -192 -64 -351 -24
-124 31 -131 31 -196 19 -37 -8 -79 -19 -93 -26 -32 -16 -59 -6 -92 34 -36 42
-51 94 -46 157 8 92 75 155 181 170 38 5 48 11 53 30 3 13 24 34 48 48 57 33
155 140 186 201 14 28 42 66 63 86 38 36 38 36 19 59 -16 19 -17 31 -10 80 8
53 7 60 -14 82 -78 82 -215 168 -290 182 -32 6 -38 12 -52 53 -28 82 -15 195
29 243 15 17 31 19 144 17 196 -3 267 26 319 130 35 69 158 226 194 248 15 9
60 20 100 24 40 5 84 14 98 19 37 16 84 14 129 -4z m-1124 -657 l7 -49 -24 16
c-27 18 -48 56 -48 86 0 11 8 39 17 62 l17 42 12 -55 c7 -29 16 -76 19 -102z
m-1456 20 c15 -12 150 -59 248 -86 87 -24 127 -129 83 -213 -35 -66 -43 -79
-85 -142 -66 -98 -80 -126 -90 -188 -12 -71 -51 -126 -113 -157 -35 -18 -52
-8 -137 82 -58 61 -88 102 -116 162 -64 136 -79 185 -79 255 0 57 6 75 43 148
57 109 107 152 180 152 28 0 58 -6 66 -13z m1798 -309 c9 -10 14 -20 11 -23
-5 -6 -111 83 -117 98 -5 12 82 -49 106 -75z m-1418 -624 c97 -13 130 -21 143
-35 13 -15 30 -19 90 -19 64 0 185 -17 354 -51 70 -14 81 -25 89 -90 l7 -56
-80 -45 -79 -45 -129 -7 c-71 -3 -167 -11 -214 -16 -47 -6 -130 -15 -185 -20
-55 -5 -125 -12 -156 -16 -45 -5 -65 -2 -103 14 -40 18 -50 29 -71 77 -33 74
-33 137 -2 162 13 10 29 35 36 55 13 41 30 57 86 86 49 26 56 26 214 6z m2521
-83 c29 -56 0 -181 -56 -241 -38 -40 -73 -113 -74 -151 0 -15 -15 -60 -34
-101 -38 -83 -76 -116 -144 -125 -31 -4 -44 0 -69 21 -17 14 -37 26 -44 26
-26 1 -57 25 -87 65 -16 22 -49 50 -74 63 -53 26 -78 59 -78 100 0 26 7 33 54
57 30 15 59 24 65 20 7 -3 19 2 29 12 19 22 87 46 175 63 98 19 128 37 212
126 82 86 106 99 125 65z m-3388 -77 c55 -6 68 -12 102 -45 l38 -39 -6 -73
c-7 -71 6 -160 25 -181 5 -6 9 -24 9 -41 0 -28 23 -68 107 -184 16 -22 16 -24
-2 -37 -49 -36 -98 -8 -140 81 -35 74 -80 127 -176 207 -43 36 -60 59 -77 103
-20 52 -21 59 -7 92 8 19 15 55 15 78 0 42 11 58 37 50 6 -2 40 -7 75 -11z
m2418 -298 c56 -18 77 -30 84 -47 5 -13 18 -43 28 -66 21 -49 26 -120 10 -150
-7 -12 -12 -33 -12 -46 0 -57 -129 -168 -224 -193 -104 -28 -169 -14 -219 46
-19 22 -39 33 -78 40 -108 21 -183 89 -158 144 9 19 20 26 40 26 15 0 30 4 33
9 11 18 -6 41 -30 41 -24 0 -24 0 -8 33 21 41 54 72 91 84 15 6 42 23 58 38
49 45 109 63 215 64 74 1 111 -4 170 -23z m-1053 -238 c15 -6 33 -10 39 -10 6
1 21 -9 34 -23 22 -23 23 -29 12 -57 -8 -21 -8 -36 -2 -42 30 -30 -8 -159 -54
-187 -17 -10 -37 -19 -44 -19 -8 0 -27 -13 -42 -30 -24 -26 -35 -30 -79 -30
-28 0 -51 3 -51 6 0 4 19 23 42 43 29 26 40 42 35 54 -10 26 -33 21 -74 -16
-68 -59 -70 -60 -93 -47 -49 26 -99 83 -121 136 -20 50 -21 60 -9 93 16 47 65
99 115 122 31 15 64 19 152 19 62 0 124 -5 140 -12z m-1024 -103 c15 -13 27
-33 27 -45 0 -24 16 -25 58 -4 25 12 41 13 79 5 101 -20 269 -65 281 -74 15
-11 16 -71 2 -98 -6 -10 -25 -26 -42 -35 -45 -23 -173 -11 -235 22 -25 13 -53
24 -61 24 -29 0 -141 61 -166 91 -30 35 -34 83 -10 117 19 28 32 27 67 -3z
m3068 -207 c90 -175 -137 -359 -592 -478 -188 -50 -394 -86 -639 -112 -278
-29 -780 -29 -1065 1 -718 75 -1197 260 -1249 484 -7 30 10 107 23 107 11 0
41 -85 41 -113 0 -31 48 -103 93 -139 103 -83 249 -153 386 -183 64 -14 134
-30 156 -36 70 -19 177 -38 270 -50 50 -6 113 -15 141 -20 44 -8 333 -20 554
-22 41 0 194 3 340 8 146 4 300 7 343 7 60 -1 87 3 117 18 30 15 59 20 122 20
107 0 278 33 340 65 26 14 56 25 66 25 11 0 35 11 55 25 20 13 56 29 79 35 54
15 196 97 214 125 8 12 17 37 20 56 4 18 10 39 14 44 4 6 10 22 14 36 3 15 17
34 31 43 23 15 25 22 25 93 l0 77 41 -39 c22 -22 49 -57 60 -77z m-3436 -356
c49 -33 204 -108 283 -136 200 -72 526 -138 842 -173 234 -26 863 -25 1100 0
576 63 1015 199 1198 370 l32 31 0 -57 c0 -74 -23 -120 -93 -184 -175 -159
-596 -285 -1157 -345 -278 -29 -780 -29 -1065 1 -549 57 -949 175 -1153 340
-63 51 -92 107 -98 188 l-5 68 43 -41 c24 -22 57 -50 73 -62z"/>
<path d="M3093 1460 l-10 -40 33 0 c45 0 63 31 34 60 -30 30 -45 25 -57 -20z"/>
<path d="M3023 1367 c-13 -5 -23 -14 -23 -19 0 -15 40 -9 47 7 8 22 2 24 -24
12z"/>
<path d="M1985 991 c-6 -11 33 -36 42 -27 3 3 3 12 0 21 -7 17 -33 20 -42 6z"/>
<path d="M10395 7005 c-583 -83 -1091 -413 -1346 -873 -103 -186 -160 -387
-179 -640 -39 -507 148 -1175 441 -1572 38 -52 82 -115 97 -139 81 -130 328
-277 598 -356 465 -136 878 -137 1304 -3 337 106 734 405 954 720 157 225 251
536 263 869 9 256 -22 452 -107 686 -165 451 -529 896 -925 1128 -143 84 -295
137 -490 171 -119 22 -486 27 -610 9z m507 -115 c113 -13 294 -59 389 -99 474
-199 932 -766 1073 -1326 38 -154 48 -228 47 -385 0 -232 -34 -403 -122 -625
-73 -183 -170 -329 -313 -470 -339 -336 -751 -519 -1216 -542 l-125 -6 38 40
c20 21 37 44 37 50 0 15 98 32 262 47 117 10 143 15 154 31 19 26 18 41 -6 65
-17 17 -33 20 -99 20 -90 0 -91 1 -91 98 0 96 -19 195 -42 214 -28 25 -55 22
-74 -7 -14 -22 -15 -37 -5 -122 6 -54 12 -121 14 -149 l4 -50 -89 -17 c-78
-14 -92 -14 -123 -2 -46 20 -81 18 -131 -4 -53 -24 -78 -74 -72 -142 4 -39 2
-49 -10 -49 -39 0 -276 54 -375 86 -125 40 -281 112 -372 171 -86 56 -219 214
-310 368 -284 481 -418 1094 -339 1555 60 355 259 675 555 895 383 285 855
410 1341 355z m-296 -3325 c19 -15 19 -15 -5 -35 -35 -30 -115 -24 -104 8 14
41 72 55 109 27z"/>
<path d="M10396 6727 c-36 -36 -33 -48 14 -80 17 -12 45 -17 97 -17 l73 0 0
-37 c0 -21 5 -85 11 -143 14 -126 27 -146 84 -136 l38 7 -7 127 c-4 70 -10
137 -13 149 -5 22 -4 22 79 16 135 -9 189 25 138 89 -18 24 -24 25 -177 32
-87 3 -193 9 -235 12 -73 6 -78 5 -102 -19z"/>
<path d="M10717 5893 c-8 -10 -30 -74 -48 -143 -27 -104 -32 -144 -33 -241
l-1 -117 80 -158 79 -158 4 -99 c5 -121 -10 -224 -50 -340 -33 -97 -32 -132 6
-147 57 -21 76 6 129 189 19 66 22 100 22 253 l0 176 -80 157 -80 157 1 77 c1
47 13 125 33 207 37 155 37 158 11 184 -25 25 -52 26 -73 3z"/>
<path d="M12196 5421 c-15 -17 -17 -32 -11 -110 l8 -91 -119 -1 c-66 -1 -132
-4 -149 -8 -38 -8 -57 -43 -43 -82 l10 -29 152 6 152 7 10 -84 c8 -75 12 -85
36 -98 21 -12 31 -13 53 -3 l27 12 -7 133 c-10 211 -25 330 -42 350 -21 23
-56 22 -77 -2z"/>
<path d="M11100 5362 c-19 -9 -45 -33 -58 -52 -22 -32 -24 -42 -19 -130 6
-127 43 -230 94 -261 52 -33 74 -17 128 92 51 100 63 162 46 227 -14 51 -64
110 -108 128 -41 18 -41 17 -83 -4z m80 -182 c0 -53 -18 -100 -30 -80 -14 22
-23 114 -15 141 l8 23 18 -23 c11 -14 19 -39 19 -61z"/>
<path d="M10426 5338 c-22 -37 -86 -233 -93 -286 -10 -88 39 -142 131 -142 36
0 52 6 80 30 47 41 59 85 54 184 -6 90 -42 188 -81 218 -32 25 -74 23 -91 -4z
m64 -241 c0 -43 -22 -89 -36 -75 -10 10 15 118 27 118 5 0 9 -19 9 -43z"/>
<path d="M9089 5319 c-19 -19 -20 -28 -14 -132 4 -62 8 -118 11 -125 2 -7 -2
-24 -8 -38 -10 -20 -9 -31 4 -57 9 -18 25 -88 34 -157 23 -155 47 -188 105
-141 23 18 23 19 11 117 -7 55 -15 111 -18 125 l-6 27 99 6 c54 3 150 10 213
16 63 6 189 15 280 20 91 5 206 14 255 19 50 5 104 10 122 10 46 1 88 40 79
74 -10 42 -30 46 -176 31 -126 -13 -401 -31 -584 -40 -44 -2 -102 -8 -128 -14
-79 -16 -156 -13 -166 8 -5 9 -12 66 -16 126 -4 81 -10 114 -23 128 -21 24
-48 23 -74 -3z"/>
<path d="M11440 3995 c-15 -18 -35 -184 -26 -219 15 -59 66 -71 146 -35 79 35
120 88 120 153 0 51 -8 65 -52 87 -37 19 -41 19 -64 4 -13 -8 -24 -20 -24 -26
0 -20 21 -49 35 -49 42 0 12 -55 -47 -86 -27 -14 -28 -14 -27 13 0 16 4 52 8
81 5 39 4 58 -6 72 -17 24 -46 26 -63 5z"/>
<path d="M6035 6963 c-192 -10 -408 -51 -579 -109 -340 -118 -653 -339 -849
-599 -214 -286 -312 -612 -302 -1005 13 -492 190 -1043 446 -1390 38 -52 82
-115 97 -139 83 -134 330 -279 613 -360 460 -132 872 -132 1289 1 353 113 751
417 970 742 88 130 173 348 216 550 35 166 44 451 20 608 -51 323 -182 636
-379 901 -243 329 -537 579 -807 685 -196 77 -508 126 -735 115z m307 -133
c113 -13 294 -59 389 -99 474 -199 932 -766 1073 -1326 38 -154 48 -228 47
-385 0 -232 -34 -403 -122 -625 -73 -183 -170 -329 -313 -470 -345 -342 -758
-523 -1236 -542 -371 -15 -813 97 -1085 274 -86 56 -219 214 -310 368 -284
481 -418 1094 -339 1555 60 355 259 675 555 895 383 285 855 410 1341 355z"/>
<path d="M5763 6675 c-30 -22 -31 -69 -1 -89 17 -12 50 -16 139 -16 l116 0 8
-92 c31 -380 35 -397 91 -398 38 0 57 33 50 87 -3 26 -10 107 -15 178 -6 72
-12 148 -15 170 l-5 41 154 -4 154 -4 25 25 c31 31 32 38 7 68 -19 23 -25 24
-218 31 -109 3 -259 9 -333 13 -117 6 -138 5 -157 -10z"/>
<path d="M6077 5865 c-12 -12 -50 -154 -83 -312 -9 -45 -5 -204 6 -240 6 -21
46 -107 88 -191 l77 -154 3 -117 c4 -131 -13 -247 -54 -367 -31 -89 -29 -133
7 -153 24 -13 29 -13 52 2 52 34 117 304 117 487 0 155 -12 197 -103 378 l-82
162 2 78 c0 49 14 133 38 235 34 148 35 160 20 183 -18 28 -65 33 -88 9z"/>
<path d="M4525 5684 c-49 -53 -86 -225 -65 -303 27 -102 77 -106 251 -18 99
49 125 67 127 85 11 73 -68 67 -213 -16 l-70 -40 -3 35 c-3 36 9 109 27 157
l11 27 54 -30 c62 -36 77 -38 100 -12 33 37 17 63 -63 104 -89 44 -123 47
-156 11z"/>
<path d="M7636 5361 c-15 -17 -17 -32 -11 -109 l7 -89 -153 -8 c-291 -13 -291
-13 -310 -31 -24 -21 -24 -46 -1 -67 21 -19 104 -22 322 -11 l146 7 13 -123
c10 -94 18 -127 32 -141 24 -24 41 -24 69 -1 l23 18 -12 155 c-26 334 -31 383
-48 401 -21 23 -55 23 -77 -1z"/>
<path d="M6505 5290 c-31 -13 -66 -50 -81 -86 -18 -42 -18 -103 0 -196 25
-128 61 -199 114 -219 44 -17 68 5 118 105 56 113 69 204 40 281 -36 92 -122
144 -191 115z m70 -150 c18 -34 19 -75 4 -119 -19 -54 -33 -38 -45 48 -7 54 0
101 16 101 5 0 16 -13 25 -30z"/>
<path d="M5767 5268 c-25 -19 -99 -252 -105 -329 -4 -63 -3 -67 28 -102 53
-61 143 -62 206 -4 26 25 37 45 46 89 22 108 -25 301 -83 342 -28 19 -69 21
-92 4z m63 -278 c0 -48 -21 -87 -41 -75 -13 8 -11 23 6 83 19 63 35 59 35 -8z"/>
<path d="M4644 5236 c-14 -23 -14 -40 0 -206 9 -100 16 -222 16 -271 0 -80 3
-92 23 -112 l22 -23 -31 -31 c-41 -40 -58 -105 -39 -149 21 -51 54 -67 127
-62 58 4 64 7 100 47 40 46 54 91 43 140 -9 42 -13 44 -117 58 -36 5 -37 6
-22 28 13 20 14 44 8 138 l-7 114 223 6 c242 7 270 13 270 62 0 48 -25 53
-272 50 l-226 -2 -6 30 c-3 16 -6 60 -6 98 0 56 -4 73 -20 89 -28 28 -66 26
-86 -4z m159 -720 c1 -5 -10 -18 -26 -29 -32 -24 -49 -14 -36 21 7 17 15 23
34 20 14 -2 27 -7 28 -12z"/>
<path d="M6140 4091 c-13 -25 -13 -170 0 -259 5 -37 11 -97 12 -133 l4 -65
-114 -22 c-63 -11 -120 -26 -128 -33 -30 -25 -7 -99 31 -99 7 0 55 9 108 19
103 22 270 41 351 41 64 0 96 20 96 60 0 48 -26 58 -135 52 -52 -2 -95 -3 -96
-1 -3 14 -20 223 -25 314 -5 77 -11 115 -22 128 -21 23 -69 22 -82 -2z"/>
<path d="M14910 5578 c-110 -131 -146 -187 -160 -251 -15 -69 -40 -137 -50
-137 -4 0 -13 7 -20 15 -7 8 -27 15 -45 15 -44 0 -148 -79 -195 -148 -74 -106
-104 -125 -228 -139 -35 -4 -45 -10 -53 -30 -8 -21 -14 -24 -37 -19 -15 3 -59
9 -99 12 -71 7 -73 6 -140 -34 -42 -25 -112 -84 -183 -155 -125 -124 -156
-144 -294 -188 -153 -48 -283 -141 -403 -287 -48 -58 -86 -95 -102 -99 -25 -6
-67 -7 -188 -3 -64 2 -158 -24 -201 -57 -47 -35 -77 -86 -108 -183 -46 -146
-66 -178 -132 -207 -81 -36 -126 -39 -192 -13 -101 40 -178 23 -347 -76 -174
-102 -257 -143 -396 -193 -75 -28 -150 -57 -167 -66 -47 -24 -120 -99 -120
-122 0 -25 -98 -118 -177 -169 -83 -53 -140 -79 -263 -119 -63 -20 -141 -48
-173 -62 -32 -14 -61 -23 -63 -20 -3 2 24 23 59 46 97 63 111 81 104 136 -8
56 -36 111 -74 146 -62 58 -119 51 -202 -26 -32 -30 -64 -68 -71 -85 -7 -17
-20 -30 -30 -30 -30 0 -54 -93 -32 -126 14 -22 50 -34 73 -25 19 7 27 3 44
-23 18 -26 28 -31 58 -30 20 1 37 0 37 -2 0 -2 -15 -11 -32 -20 -42 -21 -78
-54 -78 -70 0 -7 10 -22 22 -33 17 -17 19 -23 8 -36 -18 -22 -37 -19 -56 11
-21 31 -127 108 -179 130 -99 41 -282 47 -352 11 -30 -16 -129 -129 -230 -263
-67 -88 -160 -175 -236 -218 -87 -50 -114 -81 -138 -158 -41 -128 -151 -218
-409 -333 -47 -20 -175 -83 -285 -138 l-200 -100 -114 -115 c-113 -114 -114
-115 -187 -133 -224 -58 -461 -183 -538 -284 -62 -80 -70 -116 -72 -295 -1
-162 -1 -166 27 -225 45 -98 124 -167 274 -243 223 -111 612 -203 1055 -249
232 -24 819 -24 1050 0 335 35 671 102 886 178 201 70 370 183 432 287 26 45
27 54 32 217 l5 169 48 14 c26 7 47 17 47 22 0 6 8 19 18 30 9 11 19 32 22 47
4 22 14 30 60 43 90 28 140 56 245 140 195 155 275 178 378 107 79 -54 131
-68 293 -74 157 -6 215 2 304 47 64 33 93 61 115 113 9 22 26 42 40 47 13 5
32 22 41 37 10 15 19 30 21 32 1 2 16 -8 33 -23 84 -70 149 -46 439 167 336
246 457 284 854 272 194 -6 210 -5 316 19 61 14 137 38 169 53 67 32 227 185
238 227 7 31 1 30 111 12 49 -8 109 -17 136 -20 l47 -6 0 686 0 686 -40 -36
c-33 -29 -48 -36 -83 -36 -23 0 -64 -3 -92 -6 -44 -5 -53 -3 -77 19 -36 33
-37 78 -4 126 l25 36 -15 90 c-16 98 -14 139 18 258 19 72 19 79 4 102 -26 39
-20 65 28 110 31 30 71 53 140 80 l96 38 0 238 c0 231 -1 239 -24 286 -56 111
-57 179 -6 300 l30 72 -2 205 -3 205 -85 -101z m-860 -778 c0 -5 -12 -10 -27
-10 -16 0 -39 -3 -53 -6 -24 -5 -24 -5 -6 10 22 18 86 22 86 6z m178 -76 c20
-8 50 -27 65 -42 35 -33 77 -113 77 -146 0 -16 9 -32 25 -42 14 -9 56 -52 95
-97 81 -92 96 -134 61 -171 -11 -12 -21 -32 -21 -43 0 -11 -6 -26 -14 -32 -7
-6 -16 -33 -20 -59 -3 -26 -13 -60 -22 -77 -8 -16 -20 -68 -26 -115 -7 -62
-18 -101 -41 -145 -39 -74 -137 -174 -198 -203 -60 -29 -132 -29 -179 0 -30
18 -52 21 -146 23 -87 1 -118 5 -138 18 -23 16 -31 16 -67 4 l-41 -14 32 -13
c22 -9 39 -27 51 -54 25 -55 24 -70 -9 -108 -16 -18 -34 -48 -42 -67 -10 -24
-25 -39 -57 -53 -64 -28 -103 -17 -138 42 -5 9 -18 29 -28 43 -12 16 -16 34
-12 46 10 32 92 124 128 143 29 15 30 17 9 18 -12 0 -33 -6 -45 -14 -41 -27
-90 -30 -118 -7 -53 41 -76 208 -42 307 31 92 70 137 153 175 30 13 42 31 78
107 42 88 44 94 44 192 l1 101 46 46 c53 53 98 75 157 75 35 1 44 6 58 30 46
77 162 143 259 147 15 1 44 -6 65 -15z m-855 -508 c58 -54 40 -164 -40 -243
-22 -21 -52 -57 -67 -79 -15 -23 -44 -55 -65 -72 -33 -26 -37 -34 -33 -65 3
-23 -5 -58 -21 -99 -27 -67 -27 -99 2 -137 15 -19 31 -25 99 -31 44 -5 89 -13
99 -18 36 -20 66 -62 79 -112 17 -65 1 -131 -57 -233 -45 -79 -48 -120 -11
-161 31 -34 44 -66 38 -92 -15 -57 -122 -144 -178 -144 -13 0 -50 18 -84 40
-33 21 -82 44 -108 50 -61 13 -103 35 -116 60 -6 11 -8 47 -4 88 8 82 -4 127
-52 195 -19 26 -35 56 -37 66 -2 11 -8 25 -14 33 -6 7 -13 30 -16 51 -3 23
-15 47 -30 61 -44 41 -60 84 -54 146 8 97 39 148 179 298 21 21 44 34 70 39
33 5 46 15 79 59 22 29 51 82 64 119 28 77 52 113 97 147 84 63 138 74 181 34z
m-445 -191 c31 -11 -17 -144 -77 -209 -35 -38 -86 -60 -111 -46 -10 5 -34 10
-52 10 -46 0 -74 22 -103 83 -39 84 -22 141 50 164 29 9 267 8 293 -2z m-887
-557 c95 -35 150 -75 185 -130 15 -24 35 -55 46 -70 29 -43 22 -63 -41 -119
l-59 -53 20 -27 c26 -34 25 -82 -1 -159 -23 -66 -23 -74 17 -190 36 -105 38
-243 4 -312 -45 -92 -143 -167 -218 -168 -18 0 -67 18 -110 39 -62 32 -93 55
-143 111 l-64 72 -62 -7 c-106 -11 -164 27 -173 114 l-4 49 -52 7 c-28 3 -74
10 -101 16 -44 8 -58 6 -113 -16 -34 -14 -75 -25 -91 -25 -62 0 -123 86 -102
143 6 15 28 39 50 54 39 27 40 29 35 73 -5 37 -1 52 18 80 33 48 157 142 258
194 63 33 104 64 160 121 84 86 151 135 258 189 123 62 154 64 283 14z m2718
-166 c45 -22 71 -59 78 -108 4 -33 1 -43 -21 -63 -38 -36 -124 -40 -215 -11
-56 18 -73 20 -91 10 -12 -7 -52 -12 -89 -12 -53 0 -78 5 -126 28 -53 26 -60
32 -60 58 0 20 9 35 28 50 25 18 40 21 120 18 51 -1 103 -4 117 -5 14 -2 48 5
75 16 44 17 111 34 140 35 6 1 25 -7 44 -16z m-4335 -223 c28 -53 17 -80 -46
-112 -29 -15 -66 -27 -81 -27 -16 0 -37 -5 -48 -10 -27 -15 -25 -1 11 69 32
65 94 123 125 119 11 -2 29 -19 39 -39z m2166 -48 c22 -16 25 -25 22 -69 -2
-38 5 -64 27 -112 17 -35 33 -88 37 -119 4 -36 13 -60 24 -68 22 -16 32 -55
22 -82 -4 -12 -41 -50 -81 -86 -66 -58 -79 -65 -116 -65 -48 0 -87 25 -111 73
-25 47 -43 171 -44 293 0 103 2 112 26 145 14 19 32 49 39 67 8 18 24 37 37
42 32 13 87 4 118 -19z m-2645 -292 c53 -14 75 -36 75 -72 0 -16 11 -42 25
-59 14 -16 25 -40 25 -53 0 -34 -68 -86 -186 -141 -54 -26 -112 -58 -127 -71
-34 -27 -80 -30 -137 -7 -62 25 -80 79 -40 121 15 17 76 66 98 79 2 1 -4 16
-13 34 -19 37 -15 53 29 103 53 63 161 91 251 66z m1001 -205 c26 -12 42 -32
66 -82 36 -72 39 -114 14 -196 -10 -33 -13 -70 -9 -112 5 -49 2 -69 -11 -89
-16 -25 -16 -26 19 -57 96 -84 84 -193 -29 -253 -48 -26 -98 -14 -144 36 -20
21 -69 72 -108 112 -81 82 -98 111 -119 199 -14 64 -12 96 11 133 7 11 15 40
19 65 4 25 16 68 26 95 11 28 19 58 19 67 0 10 13 32 29 50 29 32 45 37 164
47 11 0 34 -6 53 -15z m-1463 -313 c21 -5 62 -28 92 -51 29 -23 73 -51 97 -63
78 -40 111 -126 69 -178 -16 -20 -29 -24 -73 -24 -40 0 -60 -6 -82 -22 -37
-30 -53 -29 -100 7 -22 17 -45 30 -52 30 -7 0 -22 9 -33 21 -17 19 -23 20 -77
10 -99 -19 -151 -15 -179 14 -28 27 -33 70 -11 101 23 32 163 135 204 150 43
15 92 17 145 5z m-714 -470 c12 -16 21 -44 21 -63 -1 -58 -34 -153 -70 -202
-19 -26 -42 -56 -50 -67 -11 -15 -35 -23 -90 -31 -83 -11 -101 -23 -125 -82
l-16 -39 41 7 c22 3 60 13 82 21 23 8 44 12 46 10 7 -7 -81 -155 -116 -196
-22 -26 -47 -42 -75 -50 -28 -7 -55 -25 -83 -55 -29 -31 -49 -44 -68 -44 -15
0 -39 -9 -53 -20 -31 -24 -103 -28 -103 -6 0 9 -7 12 -19 9 -13 -3 -25 5 -40
31 -22 35 -26 64 -22 177 1 25 -3 58 -9 74 -9 24 -7 31 10 50 11 12 20 33 20
47 0 34 17 46 70 50 42 3 47 6 81 59 50 75 129 145 225 198 43 25 120 68 169
98 107 63 143 68 174 24z m169 -193 c21 -21 13 -28 -32 -28 -27 0 -52 -7 -65
-17 -20 -17 -21 -19 -6 -40 14 -20 25 -23 76 -23 32 0 59 -3 59 -7 -1 -24 -24
-37 -76 -41 -61 -5 -84 -19 -83 -49 0 -16 1 -16 9 2 8 18 9 17 9 -7 1 -20 6
-28 19 -28 9 0 22 -10 27 -22 7 -16 20 -24 44 -26 31 -3 33 -5 28 -35 -2 -18
3 -48 14 -72 10 -22 19 -51 19 -65 0 -34 -34 -105 -64 -135 -23 -23 -32 -25
-126 -25 -56 0 -110 -4 -120 -10 -10 -5 -28 -6 -39 -2 -19 7 -17 11 30 72 99
129 97 125 109 250 20 217 32 258 84 302 24 20 67 23 84 6z m-1298 -393 c-7
-8 -16 -15 -21 -15 -22 0 -81 -72 -109 -134 -46 -100 -49 -128 -14 -173 42
-58 137 -143 157 -143 11 0 30 -9 44 -20 14 -11 34 -20 45 -20 10 0 41 -11 68
-25 27 -14 58 -25 68 -25 10 0 52 -16 92 -36 58 -29 90 -38 145 -41 38 -3 86
-11 106 -18 65 -25 167 -42 284 -48 68 -4 206 -56 150 -57 -17 0 -86 7 -155
15 -593 69 -1038 234 -1132 418 -50 99 22 207 203 307 61 33 89 40 69 15z
m3280 -325 c-31 -74 -205 -188 -390 -255 -126 -45 -357 -102 -525 -129 -154
-25 -434 -57 -485 -55 -42 2 112 27 168 28 29 1 74 9 100 20 75 29 182 51 252
51 113 0 387 76 465 130 24 17 77 45 117 61 40 17 84 42 99 55 14 13 30 24 36
24 6 0 33 16 59 36 52 40 107 73 113 68 2 -2 -2 -17 -9 -34z m-2169 20 c65 0
69 -1 60 -18 -15 -29 -123 -132 -155 -149 -69 -36 -129 45 -96 131 7 19 17 26
37 26 16 0 35 5 43 10 8 5 21 8 28 5 8 -3 45 -5 83 -5z m-1253 -252 c210 -130
621 -235 1112 -284 246 -25 823 -25 1070 0 575 58 1030 191 1212 355 l51 46
-6 -63 c-8 -79 -24 -108 -87 -165 -173 -156 -607 -285 -1160 -344 -232 -25
-865 -25 -1095 0 -655 71 -1128 236 -1226 428 -11 23 -19 58 -19 89 l0 50 36
-32 c19 -18 70 -54 112 -80z m1927 -209 c11 -11 -501 -10 -635 1 -61 5 -8 6
150 3 135 -2 268 0 295 5 56 10 175 4 190 -9z"/>
<path d="M8566 1434 c-17 -12 -17 -14 -4 -14 9 0 20 5 23 11 11 17 2 18 -19 3z"/>
<path d="M4226 4405 c-54 -19 -92 -59 -132 -141 -42 -84 -53 -144 -31 -163 23
-19 60 -9 73 19 7 14 26 55 43 91 41 87 60 104 123 104 43 0 53 -4 79 -33 63
-71 23 -139 -108 -182 -84 -28 -93 -35 -93 -71 0 -46 29 -54 108 -30 215 65
287 227 158 355 -62 62 -139 80 -220 51z"/>
<path d="M13445 1818 c-50 -35 -195 -181 -212 -212 -18 -34 -11 -86 15 -108
26 -23 73 -28 144 -17 87 14 134 37 206 101 34 31 79 64 99 73 56 26 73 44 73
79 -1 66 -43 89 -156 85 -56 -2 -88 1 -96 9 -17 17 -39 14 -73 -10z"/>
</g>
</svg>
