<?xml version="1.0" standalone="no"?>
<!DOCTYPE svg PUBLIC "-//W3C//DTD SVG 20010904//EN"
 "http://www.w3.org/TR/2001/REC-SVG-20010904/DTD/svg10.dtd">
<svg version="1.0" xmlns="http://www.w3.org/2000/svg"
 width="70.000000pt" height="70.000000pt" viewBox="0 0 70.000000 70.000000"
 preserveAspectRatio="xMidYMid meet">
<metadata>
Created by potrace 1.16, written by Peter Selinger 2001-2019
</metadata>
<g transform="translate(0.000000,70.000000) scale(0.100000,-0.100000)"
fill="#000000" stroke="none">
<path d="M300 420 l-45 -80 -42 0 c-32 0 -43 -4 -43 -15 0 -10 10 -15 30 -15
36 0 37 -4 5 -55 -13 -22 -25 -46 -25 -52 0 -10 41 -13 170 -13 129 0 170 3
170 13 0 6 -11 32 -25 56 -14 23 -25 45 -25 47 0 2 14 4 30 4 20 0 30 5 30 15
0 11 -11 15 -40 15 -39 0 -40 1 -82 80 -24 44 -47 80 -53 80 -5 0 -30 -36 -55
-80z m110 -75 c0 -3 -27 -5 -59 -5 l-60 0 31 55 32 54 28 -49 c15 -27 28 -52
28 -55z m46 -82 l25 -43 -130 0 -131 0 28 45 27 46 78 -3 78 -3 25 -42z"/>
</g>
</svg>
