<?xml version="1.0" standalone="no"?>
<!DOCTYPE svg PUBLIC "-//W3C//DTD SVG 20010904//EN"
 "http://www.w3.org/TR/2001/REC-SVG-20010904/DTD/svg10.dtd">
<svg version="1.0" xmlns="http://www.w3.org/2000/svg"
 width="70.000000pt" height="70.000000pt" viewBox="0 0 70.000000 70.000000"
 preserveAspectRatio="xMidYMid meet">
<metadata>
Created by potrace 1.16, written by Peter Selinger 2001-2019
</metadata>
<g transform="translate(0.000000,70.000000) scale(0.100000,-0.100000)"
fill="#000000" stroke="none">
<path d="M338 685 c-3 -3 -3 -72 -1 -153 l5 -147 -104 103 c-57 56 -109 102
-116 102 -28 0 -7 -30 87 -122 l98 -97 -145 -3 c-104 -2 -147 -7 -149 -15 -3
-9 33 -13 146 -15 l151 -3 -100 -100 c-54 -55 -99 -106 -100 -112 0 -29 30 -7
127 89 l103 103 0 -154 c0 -118 3 -152 13 -149 9 3 13 45 15 150 l3 146 100
-99 c55 -55 104 -99 109 -99 26 0 2 33 -92 127 l-103 103 154 0 c118 0 152 3
149 13 -3 8 -46 13 -148 17 l-143 5 97 97 c53 53 96 102 96 107 0 27 -31 4
-122 -86 l-98 -98 0 101 c0 148 -11 210 -32 189z"/>
</g>
</svg>
