<?xml version="1.0" standalone="no"?>
<!DOCTYPE svg PUBLIC "-//W3C//DTD SVG 20010904//EN"
 "http://www.w3.org/TR/2001/REC-SVG-20010904/DTD/svg10.dtd">
<svg version="1.0" xmlns="http://www.w3.org/2000/svg"
 width="70.000000pt" height="70.000000pt" viewBox="0 0 70.000000 70.000000"
 preserveAspectRatio="xMidYMid meet">
<metadata>
Created by potrace 1.16, written by Peter Selinger 2001-2019
</metadata>
<g transform="translate(0.000000,70.000000) scale(0.100000,-0.100000)"
fill="#000000" stroke="none">
<path d="M293 650 c-94 -19 -178 -87 -220 -178 -44 -94 -28 -235 34 -304 16
-17 14 -21 -20 -56 -20 -21 -37 -43 -37 -50 0 -23 25 -11 72 35 l47 46 -33 38
c-40 47 -56 97 -56 175 0 146 118 263 264 264 81 0 129 -17 183 -64 61 -53 93
-123 93 -202 0 -74 -13 -117 -51 -166 -16 -20 -29 -41 -29 -45 0 -13 84 -93
98 -93 22 0 13 26 -22 59 l-33 32 35 69 c30 59 35 77 34 139 -1 190 -176 337
-359 301z"/>
</g>
</svg>
